<?xml version="1.0" encoding="UTF-8" ?>
<svg width="2896.309375740099" height="2896.309375740099" xmlns="http://www.w3.org/2000/svg">
  <path d="M 90.50966799187809 181.01933598375618 L0 181.01933598375618 L0 90.50966799187809 L90.50966799187809 90.50966799187809 L181.01933598375618 90.50966799187809 L181.01933598375618 181.01933598375618 L90.50966799187809 181.01933598375618 L90.50966799187809 90.50966799187809 L90.50966799187809 0 L181.01933598375618 0 L181.01933598375618 90.50966799187809 L90.50966799187809 90.50966799187809 L0 90.50966799187809 L0 0 L90.50966799187809 0 L90.50966799187809 90.50966799187809 Z" style="fill:rgb(0, 0, 0, 0)" />
  <path d="M 271.5290039756343 181.01933598375618 L181.01933598375618 181.01933598375618 L181.01933598375618 90.50966799187809 L271.5290039756343 90.50966799187809 L362.03867196751236 90.50966799187809 L362.03867196751236 181.01933598375618 L271.5290039756343 181.01933598375618 L271.5290039756343 90.50966799187809 L271.5290039756343 0 L362.03867196751236 0 L362.03867196751236 90.50966799187809 L271.5290039756343 90.50966799187809 L181.01933598375618 90.50966799187809 L181.01933598375618 0 L271.5290039756343 0 L271.5290039756343 90.50966799187809 Z" style="fill:rgb(0, 0, 0, 0)" />
  <path d="M 452.54833995939043 181.01933598375618 L362.03867196751236 181.01933598375618 L362.03867196751236 90.50966799187809 L452.54833995939043 90.50966799187809 L543.0580079512686 90.50966799187809 L543.0580079512686 181.01933598375618 L452.54833995939043 181.01933598375618 L452.54833995939043 90.50966799187809 L452.54833995939043 0 L543.0580079512686 0 L543.0580079512686 90.50966799187809 L452.54833995939043 90.50966799187809 L362.03867196751236 90.50966799187809 L362.03867196751236 0 L452.54833995939043 0 L452.54833995939043 90.50966799187809 Z" style="fill:rgb(0, 0, 0, 0)" />
  <path d="M 633.5676759431466 181.01933598375618 L543.0580079512686 181.01933598375618 L543.0580079512686 90.50966799187809 L633.5676759431466 90.50966799187809 L724.0773439350247 90.50966799187809 L724.0773439350247 181.01933598375618 L633.5676759431466 181.01933598375618 L633.5676759431466 90.50966799187809 L633.5676759431466 0 L724.0773439350247 0 L724.0773439350247 90.50966799187809 L633.5676759431466 90.50966799187809 L543.0580079512686 90.50966799187809 L543.0580079512686 0 L633.5676759431466 0 L633.5676759431466 90.50966799187809 Z" style="fill:rgb(0, 0, 0, 0)" />
  <path d="M 814.5870119269028 181.01933598375618 L724.0773439350247 181.01933598375618 L724.0773439350247 90.50966799187809 L814.5870119269028 90.50966799187809 L905.0966799187809 90.50966799187809 L905.0966799187809 181.01933598375618 L814.5870119269028 181.01933598375618 L814.5870119269028 90.50966799187809 L814.5870119269028 0 L905.0966799187809 0 L905.0966799187809 90.50966799187809 L814.5870119269028 90.50966799187809 L724.0773439350247 90.50966799187809 L724.0773439350247 0 L814.5870119269028 0 L814.5870119269028 90.50966799187809 Z" style="fill:rgb(0, 0, 0, 0)" />
  <path d="M 995.606347910659 181.01933598375618 L905.0966799187809 181.01933598375618 L905.0966799187809 90.50966799187809 L995.606347910659 90.50966799187809 L1086.1160159025371 90.50966799187809 L1086.1160159025371 181.01933598375618 L995.606347910659 181.01933598375618 L995.606347910659 90.50966799187809 L995.606347910659 0 L1086.1160159025371 0 L1086.1160159025371 90.50966799187809 L995.606347910659 90.50966799187809 L905.0966799187809 90.50966799187809 L905.0966799187809 0 L995.606347910659 0 L995.606347910659 90.50966799187809 Z" style="fill:rgb(0, 0, 0, 0)" />
  <path d="M 1176.6256838944153 181.01933598375618 L1086.1160159025371 181.01933598375618 L1086.1160159025371 90.50966799187809 L1176.6256838944153 90.50966799187809 L1267.1353518862932 90.50966799187809 L1267.1353518862932 181.01933598375618 L1176.6256838944153 181.01933598375618 L1176.6256838944153 90.50966799187809 L1176.6256838944153 0 L1267.1353518862932 0 L1267.1353518862932 90.50966799187809 L1176.6256838944153 90.50966799187809 L1086.1160159025371 90.50966799187809 L1086.1160159025371 0 L1176.6256838944153 0 L1176.6256838944153 90.50966799187809 Z" style="fill:rgb(0, 0, 0, 0)" />
  <path d="M 1357.6450198781713 181.01933598375618 L1267.1353518862932 181.01933598375618 L1267.1353518862932 90.50966799187809 L1357.6450198781713 90.50966799187809 L1448.1546878700494 90.50966799187809 L1448.1546878700494 181.01933598375618 L1357.6450198781713 181.01933598375618 L1357.6450198781713 90.50966799187809 L1357.6450198781713 0 L1448.1546878700494 0 L1448.1546878700494 90.50966799187809 L1357.6450198781713 90.50966799187809 L1267.1353518862932 90.50966799187809 L1267.1353518862932 0 L1357.6450198781713 0 L1357.6450198781713 90.50966799187809 Z" style="fill:rgb(0, 0, 0, 0)" />
  <path d="M 1538.6643558619276 181.01933598375618 L1448.1546878700494 181.01933598375618 L1448.1546878700494 90.50966799187809 L1538.6643558619276 90.50966799187809 L1629.1740238538057 90.50966799187809 L1629.1740238538057 181.01933598375618 L1538.6643558619276 181.01933598375618 L1538.6643558619276 90.50966799187809 L1538.6643558619276 0 L1629.1740238538057 0 L1629.1740238538057 90.50966799187809 L1538.6643558619276 90.50966799187809 L1448.1546878700494 90.50966799187809 L1448.1546878700494 0 L1538.6643558619276 0 L1538.6643558619276 90.50966799187809 Z" style="fill:rgb(0, 0, 0, 0)" />
  <path d="M 1719.6836918456836 181.01933598375618 L1629.1740238538057 181.01933598375618 L1629.1740238538057 90.50966799187809 L1719.6836918456836 90.50966799187809 L1810.1933598375617 90.50966799187809 L1810.1933598375617 181.01933598375618 L1719.6836918456836 181.01933598375618 L1719.6836918456836 90.50966799187809 L1719.6836918456836 0 L1810.1933598375617 0 L1810.1933598375617 90.50966799187809 L1719.6836918456836 90.50966799187809 L1629.1740238538057 90.50966799187809 L1629.1740238538057 0 L1719.6836918456836 0 L1719.6836918456836 90.50966799187809 Z" style="fill:rgb(0, 0, 0, 0)" />
  <path d="M 1900.7030278294399 181.01933598375618 L1810.1933598375617 181.01933598375618 L1810.1933598375617 90.50966799187809 L1900.7030278294399 90.50966799187809 L1991.212695821318 90.50966799187809 L1991.212695821318 181.01933598375618 L1900.7030278294399 181.01933598375618 L1900.7030278294399 90.50966799187809 L1900.7030278294399 0 L1991.212695821318 0 L1991.212695821318 90.50966799187809 L1900.7030278294399 90.50966799187809 L1810.1933598375617 90.50966799187809 L1810.1933598375617 0 L1900.7030278294399 0 L1900.7030278294399 90.50966799187809 Z" style="fill:rgb(0, 0, 0, 0)" />
  <path d="M 2081.722363813196 181.01933598375618 L1991.212695821318 181.01933598375618 L1991.212695821318 90.50966799187809 L2081.722363813196 90.50966799187809 L2172.2320318050743 90.50966799187809 L2172.2320318050743 181.01933598375618 L2081.722363813196 181.01933598375618 L2081.722363813196 90.50966799187809 L2081.722363813196 0 L2172.2320318050743 0 L2172.2320318050743 90.50966799187809 L2081.722363813196 90.50966799187809 L1991.212695821318 90.50966799187809 L1991.212695821318 0 L2081.722363813196 0 L2081.722363813196 90.50966799187809 Z" style="fill:rgb(0, 0, 0, 0)" />
  <path d="M 2262.741699796952 181.01933598375618 L2172.2320318050743 181.01933598375618 L2172.2320318050743 90.50966799187809 L2262.741699796952 90.50966799187809 L2353.2513677888305 90.50966799187809 L2353.2513677888305 181.01933598375618 L2262.741699796952 181.01933598375618 L2262.741699796952 90.50966799187809 L2262.741699796952 0 L2353.2513677888305 0 L2353.2513677888305 90.50966799187809 L2262.741699796952 90.50966799187809 L2172.2320318050743 90.50966799187809 L2172.2320318050743 0 L2262.741699796952 0 L2262.741699796952 90.50966799187809 Z" style="fill:rgb(0, 0, 0, 0)" />
  <path d="M 2443.7610357807084 181.01933598375618 L2353.2513677888305 181.01933598375618 L2353.2513677888305 90.50966799187809 L2443.7610357807084 90.50966799187809 L2534.2707037725863 90.50966799187809 L2534.2707037725863 181.01933598375618 L2443.7610357807084 181.01933598375618 L2443.7610357807084 90.50966799187809 L2443.7610357807084 0 L2534.2707037725863 0 L2534.2707037725863 90.50966799187809 L2443.7610357807084 90.50966799187809 L2353.2513677888305 90.50966799187809 L2353.2513677888305 0 L2443.7610357807084 0 L2443.7610357807084 90.50966799187809 Z" style="fill:rgb(0, 0, 0, 0)" />
  <path d="M 2624.7803717644647 181.01933598375618 L2534.2707037725863 181.01933598375618 L2534.2707037725863 90.50966799187809 L2624.7803717644647 90.50966799187809 L2715.2900397563426 90.50966799187809 L2715.2900397563426 181.01933598375618 L2624.7803717644647 181.01933598375618 L2624.7803717644647 90.50966799187809 L2624.7803717644647 0 L2715.2900397563426 0 L2715.2900397563426 90.50966799187809 L2624.7803717644647 90.50966799187809 L2534.2707037725863 90.50966799187809 L2534.2707037725863 0 L2624.7803717644647 0 L2624.7803717644647 90.50966799187809 Z" style="fill:rgb(0, 0, 0, 0)" />
  <path d="M 2805.799707748221 181.01933598375618 L2715.2900397563426 181.01933598375618 L2715.2900397563426 90.50966799187809 L2805.799707748221 90.50966799187809 L2896.309375740099 90.50966799187809 L2896.309375740099 181.01933598375618 L2805.799707748221 181.01933598375618 L2805.799707748221 90.50966799187809 L2805.799707748221 0 L2896.309375740099 0 L2896.309375740099 90.50966799187809 L2805.799707748221 90.50966799187809 L2715.2900397563426 90.50966799187809 L2715.2900397563426 0 L2805.799707748221 0 L2805.799707748221 90.50966799187809 Z" style="fill:rgb(0, 0, 0, 0)" />
  <path d="M 90.50966799187809 362.03867196751236 L0 362.03867196751236 L0 271.5290039756343 L90.50966799187809 271.5290039756343 L181.01933598375618 271.5290039756343 L181.01933598375618 362.03867196751236 L90.50966799187809 362.03867196751236 L90.50966799187809 271.5290039756343 L90.50966799187809 181.01933598375618 L181.01933598375618 181.01933598375618 L181.01933598375618 271.5290039756343 L90.50966799187809 271.5290039756343 L0 271.5290039756343 L0 181.01933598375618 L90.50966799187809 181.01933598375618 L90.50966799187809 271.5290039756343 Z" style="fill:rgb(0, 0, 0, 0)" />
  <path d="M 271.5290039756343 362.03867196751236 L181.01933598375618 362.03867196751236 L181.01933598375618 271.5290039756343 L271.5290039756343 271.5290039756343 L362.03867196751236 271.5290039756343 L362.03867196751236 362.03867196751236 L271.5290039756343 362.03867196751236 L271.5290039756343 271.5290039756343 L271.5290039756343 181.01933598375618 L362.03867196751236 181.01933598375618 L362.03867196751236 271.5290039756343 L271.5290039756343 271.5290039756343 L181.01933598375618 271.5290039756343 L181.01933598375618 181.01933598375618 L271.5290039756343 181.01933598375618 L271.5290039756343 271.5290039756343 Z" style="fill:rgb(0, 0, 0, 0)" />
  <path d="M 452.54833995939043 362.03867196751236 L362.03867196751236 362.03867196751236 L362.03867196751236 271.5290039756343 L452.54833995939043 271.5290039756343 L543.0580079512686 271.5290039756343 L543.0580079512686 362.03867196751236 L452.54833995939043 362.03867196751236 L452.54833995939043 271.5290039756343 L452.54833995939043 181.01933598375618 L543.0580079512686 181.01933598375618 L543.0580079512686 271.5290039756343 L452.54833995939043 271.5290039756343 L362.03867196751236 271.5290039756343 L362.03867196751236 181.01933598375618 L452.54833995939043 181.01933598375618 L452.54833995939043 271.5290039756343 Z" style="fill:rgb(0, 0, 0, 0)" />
  <path d="M 633.5676759431466 362.03867196751236 L543.0580079512686 362.03867196751236 L543.0580079512686 271.5290039756343 L633.5676759431466 271.5290039756343 L724.0773439350247 271.5290039756343 L724.0773439350247 362.03867196751236 L633.5676759431466 362.03867196751236 L633.5676759431466 271.5290039756343 L633.5676759431466 181.01933598375618 L724.0773439350247 181.01933598375618 L724.0773439350247 271.5290039756343 L633.5676759431466 271.5290039756343 L543.0580079512686 271.5290039756343 L543.0580079512686 181.01933598375618 L633.5676759431466 181.01933598375618 L633.5676759431466 271.5290039756343 Z" style="fill:rgb(0, 0, 0, 0)" />
  <path d="M 814.5870119269028 362.03867196751236 L724.0773439350247 362.03867196751236 L724.0773439350247 271.5290039756343 L814.5870119269028 271.5290039756343 L905.0966799187809 271.5290039756343 L905.0966799187809 362.03867196751236 L814.5870119269028 362.03867196751236 L814.5870119269028 271.5290039756343 L814.5870119269028 181.01933598375618 L905.0966799187809 181.01933598375618 L905.0966799187809 271.5290039756343 L814.5870119269028 271.5290039756343 L724.0773439350247 271.5290039756343 L724.0773439350247 181.01933598375618 L814.5870119269028 181.01933598375618 L814.5870119269028 271.5290039756343 Z" style="fill:rgb(0, 0, 0, 0)" />
  <path d="M 995.606347910659 362.03867196751236 L905.0966799187809 362.03867196751236 L905.0966799187809 271.5290039756343 L995.606347910659 271.5290039756343 L1086.1160159025371 271.5290039756343 L1086.1160159025371 362.03867196751236 L995.606347910659 362.03867196751236 L995.606347910659 271.5290039756343 L995.606347910659 181.01933598375618 L1086.1160159025371 181.01933598375618 L1086.1160159025371 271.5290039756343 L995.606347910659 271.5290039756343 L905.0966799187809 271.5290039756343 L905.0966799187809 181.01933598375618 L995.606347910659 181.01933598375618 L995.606347910659 271.5290039756343 Z" style="fill:rgb(0, 0, 0, 0)" />
  <path d="M 1176.6256838944153 362.03867196751236 L1086.1160159025371 362.03867196751236 L1086.1160159025371 271.5290039756343 L1176.6256838944153 271.5290039756343 L1267.1353518862932 271.5290039756343 L1267.1353518862932 362.03867196751236 L1176.6256838944153 362.03867196751236 L1176.6256838944153 271.5290039756343 L1176.6256838944153 181.01933598375618 L1267.1353518862932 181.01933598375618 L1267.1353518862932 271.5290039756343 L1176.6256838944153 271.5290039756343 L1086.1160159025371 271.5290039756343 L1086.1160159025371 181.01933598375618 L1176.6256838944153 181.01933598375618 L1176.6256838944153 271.5290039756343 Z" style="fill:rgb(0, 0, 0, 0)" />
  <path d="M 1357.6450198781713 362.03867196751236 L1267.1353518862932 362.03867196751236 L1267.1353518862932 271.5290039756343 L1357.6450198781713 271.5290039756343 L1448.1546878700494 271.5290039756343 L1448.1546878700494 362.03867196751236 L1357.6450198781713 362.03867196751236 L1357.6450198781713 271.5290039756343 L1357.6450198781713 181.01933598375618 L1448.1546878700494 181.01933598375618 L1448.1546878700494 271.5290039756343 L1357.6450198781713 271.5290039756343 L1267.1353518862932 271.5290039756343 L1267.1353518862932 181.01933598375618 L1357.6450198781713 181.01933598375618 L1357.6450198781713 271.5290039756343 Z" style="fill:rgb(0, 0, 0, 0)" />
  <path d="M 1538.6643558619276 362.03867196751236 L1448.1546878700494 362.03867196751236 L1448.1546878700494 271.5290039756343 L1538.6643558619276 271.5290039756343 L1629.1740238538057 271.5290039756343 L1629.1740238538057 362.03867196751236 L1538.6643558619276 362.03867196751236 L1538.6643558619276 271.5290039756343 L1538.6643558619276 181.01933598375618 L1629.1740238538057 181.01933598375618 L1629.1740238538057 271.5290039756343 L1538.6643558619276 271.5290039756343 L1448.1546878700494 271.5290039756343 L1448.1546878700494 181.01933598375618 L1538.6643558619276 181.01933598375618 L1538.6643558619276 271.5290039756343 Z" style="fill:rgb(0, 0, 0, 0)" />
  <path d="M 1719.6836918456836 362.03867196751236 L1629.1740238538057 362.03867196751236 L1629.1740238538057 271.5290039756343 L1719.6836918456836 271.5290039756343 L1810.1933598375617 271.5290039756343 L1810.1933598375617 362.03867196751236 L1719.6836918456836 362.03867196751236 L1719.6836918456836 271.5290039756343 L1719.6836918456836 181.01933598375618 L1810.1933598375617 181.01933598375618 L1810.1933598375617 271.5290039756343 L1719.6836918456836 271.5290039756343 L1629.1740238538057 271.5290039756343 L1629.1740238538057 181.01933598375618 L1719.6836918456836 181.01933598375618 L1719.6836918456836 271.5290039756343 Z" style="fill:rgb(0, 0, 0, 0)" />
  <path d="M 1900.7030278294399 362.03867196751236 L1810.1933598375617 362.03867196751236 L1810.1933598375617 271.5290039756343 L1900.7030278294399 271.5290039756343 L1991.212695821318 271.5290039756343 L1991.212695821318 362.03867196751236 L1900.7030278294399 362.03867196751236 L1900.7030278294399 271.5290039756343 L1900.7030278294399 181.01933598375618 L1991.212695821318 181.01933598375618 L1991.212695821318 271.5290039756343 L1900.7030278294399 271.5290039756343 L1810.1933598375617 271.5290039756343 L1810.1933598375617 181.01933598375618 L1900.7030278294399 181.01933598375618 L1900.7030278294399 271.5290039756343 Z" style="fill:rgb(0, 0, 0, 0)" />
  <path d="M 2081.722363813196 362.03867196751236 L1991.212695821318 362.03867196751236 L1991.212695821318 271.5290039756343 L2081.722363813196 271.5290039756343 L2172.2320318050743 271.5290039756343 L2172.2320318050743 362.03867196751236 L2081.722363813196 362.03867196751236 L2081.722363813196 271.5290039756343 L2081.722363813196 181.01933598375618 L2172.2320318050743 181.01933598375618 L2172.2320318050743 271.5290039756343 L2081.722363813196 271.5290039756343 L1991.212695821318 271.5290039756343 L1991.212695821318 181.01933598375618 L2081.722363813196 181.01933598375618 L2081.722363813196 271.5290039756343 Z" style="fill:rgb(0, 0, 0, 0)" />
  <path d="M 2262.741699796952 362.03867196751236 L2172.2320318050743 362.03867196751236 L2172.2320318050743 271.5290039756343 L2262.741699796952 271.5290039756343 L2353.2513677888305 271.5290039756343 L2353.2513677888305 362.03867196751236 L2262.741699796952 362.03867196751236 L2262.741699796952 271.5290039756343 L2262.741699796952 181.01933598375618 L2353.2513677888305 181.01933598375618 L2353.2513677888305 271.5290039756343 L2262.741699796952 271.5290039756343 L2172.2320318050743 271.5290039756343 L2172.2320318050743 181.01933598375618 L2262.741699796952 181.01933598375618 L2262.741699796952 271.5290039756343 Z" style="fill:rgb(0, 0, 0, 0)" />
  <path d="M 2443.7610357807084 362.03867196751236 L2353.2513677888305 362.03867196751236 L2353.2513677888305 271.5290039756343 L2443.7610357807084 271.5290039756343 L2534.2707037725863 271.5290039756343 L2534.2707037725863 362.03867196751236 L2443.7610357807084 362.03867196751236 L2443.7610357807084 271.5290039756343 L2443.7610357807084 181.01933598375618 L2534.2707037725863 181.01933598375618 L2534.2707037725863 271.5290039756343 L2443.7610357807084 271.5290039756343 L2353.2513677888305 271.5290039756343 L2353.2513677888305 181.01933598375618 L2443.7610357807084 181.01933598375618 L2443.7610357807084 271.5290039756343 Z" style="fill:rgb(0, 0, 0, 0)" />
  <path d="M 2624.7803717644647 362.03867196751236 L2534.2707037725863 362.03867196751236 L2534.2707037725863 271.5290039756343 L2624.7803717644647 271.5290039756343 L2715.2900397563426 271.5290039756343 L2715.2900397563426 362.03867196751236 L2624.7803717644647 362.03867196751236 L2624.7803717644647 271.5290039756343 L2624.7803717644647 181.01933598375618 L2715.2900397563426 181.01933598375618 L2715.2900397563426 271.5290039756343 L2624.7803717644647 271.5290039756343 L2534.2707037725863 271.5290039756343 L2534.2707037725863 181.01933598375618 L2624.7803717644647 181.01933598375618 L2624.7803717644647 271.5290039756343 Z" style="fill:rgb(0, 0, 0, 0)" />
  <path d="M 2805.799707748221 362.03867196751236 L2715.2900397563426 362.03867196751236 L2715.2900397563426 271.5290039756343 L2805.799707748221 271.5290039756343 L2896.309375740099 271.5290039756343 L2896.309375740099 362.03867196751236 L2805.799707748221 362.03867196751236 L2805.799707748221 271.5290039756343 L2805.799707748221 181.01933598375618 L2896.309375740099 181.01933598375618 L2896.309375740099 271.5290039756343 L2805.799707748221 271.5290039756343 L2715.2900397563426 271.5290039756343 L2715.2900397563426 181.01933598375618 L2805.799707748221 181.01933598375618 L2805.799707748221 271.5290039756343 Z" style="fill:rgb(0, 0, 0, 0)" />
  <path d="M 90.50966799187809 543.0580079512686 L0 543.0580079512686 L0 452.54833995939043 L90.50966799187809 452.54833995939043 L181.01933598375618 452.54833995939043 L181.01933598375618 543.0580079512686 L90.50966799187809 543.0580079512686 L90.50966799187809 452.54833995939043 L90.50966799187809 362.03867196751236 L181.01933598375618 362.03867196751236 L181.01933598375618 452.54833995939043 L90.50966799187809 452.54833995939043 L0 452.54833995939043 L0 362.03867196751236 L90.50966799187809 362.03867196751236 L90.50966799187809 452.54833995939043 Z" style="fill:rgb(0, 0, 0, 0)" />
  <path d="M 271.5290039756343 543.0580079512686 L181.01933598375618 543.0580079512686 L181.01933598375618 452.54833995939043 L271.5290039756343 452.54833995939043 L362.03867196751236 452.54833995939043 L362.03867196751236 543.0580079512686 L271.5290039756343 543.0580079512686 L271.5290039756343 452.54833995939043 L271.5290039756343 362.03867196751236 L362.03867196751236 362.03867196751236 L362.03867196751236 452.54833995939043 L271.5290039756343 452.54833995939043 L181.01933598375618 452.54833995939043 L181.01933598375618 362.03867196751236 L271.5290039756343 362.03867196751236 L271.5290039756343 452.54833995939043 Z" style="fill:rgb(0, 0, 0, 0)" />
  <path d="M 452.54833995939043 543.0580079512686 L362.03867196751236 543.0580079512686 L362.03867196751236 452.54833995939043 L452.54833995939043 452.54833995939043 L543.0580079512686 452.54833995939043 L543.0580079512686 543.0580079512686 L452.54833995939043 543.0580079512686 L452.54833995939043 452.54833995939043 L452.54833995939043 362.03867196751236 L543.0580079512686 362.03867196751236 L543.0580079512686 452.54833995939043 L452.54833995939043 452.54833995939043 L362.03867196751236 452.54833995939043 L362.03867196751236 362.03867196751236 L452.54833995939043 362.03867196751236 L452.54833995939043 452.54833995939043 Z" style="fill:rgb(0, 0, 0, 0)" />
  <path d="M 633.5676759431466 543.0580079512686 L543.0580079512686 543.0580079512686 L543.0580079512686 452.54833995939043 L633.5676759431466 452.54833995939043 L724.0773439350247 452.54833995939043 L724.0773439350247 543.0580079512686 L633.5676759431466 543.0580079512686 L633.5676759431466 452.54833995939043 L633.5676759431466 362.03867196751236 L724.0773439350247 362.03867196751236 L724.0773439350247 452.54833995939043 L633.5676759431466 452.54833995939043 L543.0580079512686 452.54833995939043 L543.0580079512686 362.03867196751236 L633.5676759431466 362.03867196751236 L633.5676759431466 452.54833995939043 Z" style="fill:rgb(0, 0, 0, 0)" />
  <path d="M 814.5870119269028 543.0580079512686 L724.0773439350247 543.0580079512686 L724.0773439350247 452.54833995939043 L814.5870119269028 452.54833995939043 L905.0966799187809 452.54833995939043 L905.0966799187809 543.0580079512686 L814.5870119269028 543.0580079512686 L814.5870119269028 452.54833995939043 L814.5870119269028 362.03867196751236 L905.0966799187809 362.03867196751236 L905.0966799187809 452.54833995939043 L814.5870119269028 452.54833995939043 L724.0773439350247 452.54833995939043 L724.0773439350247 362.03867196751236 L814.5870119269028 362.03867196751236 L814.5870119269028 452.54833995939043 Z" style="fill:rgb(0, 0, 0, 0)" />
  <path d="M 995.606347910659 543.0580079512686 L905.0966799187809 543.0580079512686 L905.0966799187809 452.54833995939043 L995.606347910659 452.54833995939043 L1086.1160159025371 452.54833995939043 L1086.1160159025371 543.0580079512686 L995.606347910659 543.0580079512686 L995.606347910659 452.54833995939043 L995.606347910659 362.03867196751236 L1086.1160159025371 362.03867196751236 L1086.1160159025371 452.54833995939043 L995.606347910659 452.54833995939043 L905.0966799187809 452.54833995939043 L905.0966799187809 362.03867196751236 L995.606347910659 362.03867196751236 L995.606347910659 452.54833995939043 Z" style="fill:rgb(0, 0, 0, 0)" />
  <path d="M 1176.6256838944153 543.0580079512686 L1086.1160159025371 543.0580079512686 L1086.1160159025371 452.54833995939043 L1176.6256838944153 452.54833995939043 L1267.1353518862932 452.54833995939043 L1267.1353518862932 543.0580079512686 L1176.6256838944153 543.0580079512686 L1176.6256838944153 452.54833995939043 L1176.6256838944153 362.03867196751236 L1267.1353518862932 362.03867196751236 L1267.1353518862932 452.54833995939043 L1176.6256838944153 452.54833995939043 L1086.1160159025371 452.54833995939043 L1086.1160159025371 362.03867196751236 L1176.6256838944153 362.03867196751236 L1176.6256838944153 452.54833995939043 Z" style="fill:rgb(0, 0, 0, 0)" />
  <path d="M 1357.6450198781713 543.0580079512686 L1267.1353518862932 543.0580079512686 L1267.1353518862932 452.54833995939043 L1357.6450198781713 452.54833995939043 L1448.1546878700494 452.54833995939043 L1448.1546878700494 543.0580079512686 L1357.6450198781713 543.0580079512686 L1357.6450198781713 452.54833995939043 L1357.6450198781713 362.03867196751236 L1448.1546878700494 362.03867196751236 L1448.1546878700494 452.54833995939043 L1357.6450198781713 452.54833995939043 L1267.1353518862932 452.54833995939043 L1267.1353518862932 362.03867196751236 L1357.6450198781713 362.03867196751236 L1357.6450198781713 452.54833995939043 Z" style="fill:rgb(0, 0, 0, 0)" />
  <path d="M 1538.6643558619276 543.0580079512686 L1448.1546878700494 543.0580079512686 L1448.1546878700494 452.54833995939043 L1538.6643558619276 452.54833995939043 L1629.1740238538057 452.54833995939043 L1629.1740238538057 543.0580079512686 L1538.6643558619276 543.0580079512686 L1538.6643558619276 452.54833995939043 L1538.6643558619276 362.03867196751236 L1629.1740238538057 362.03867196751236 L1629.1740238538057 452.54833995939043 L1538.6643558619276 452.54833995939043 L1448.1546878700494 452.54833995939043 L1448.1546878700494 362.03867196751236 L1538.6643558619276 362.03867196751236 L1538.6643558619276 452.54833995939043 Z" style="fill:rgb(0, 0, 0, 0)" />
  <path d="M 1719.6836918456836 543.0580079512686 L1629.1740238538057 543.0580079512686 L1629.1740238538057 452.54833995939043 L1719.6836918456836 452.54833995939043 L1810.1933598375617 452.54833995939043 L1810.1933598375617 543.0580079512686 L1719.6836918456836 543.0580079512686 L1719.6836918456836 452.54833995939043 L1719.6836918456836 362.03867196751236 L1810.1933598375617 362.03867196751236 L1810.1933598375617 452.54833995939043 L1719.6836918456836 452.54833995939043 L1629.1740238538057 452.54833995939043 L1629.1740238538057 362.03867196751236 L1719.6836918456836 362.03867196751236 L1719.6836918456836 452.54833995939043 Z" style="fill:rgb(0, 0, 0, 0)" />
  <path d="M 1900.7030278294399 543.0580079512686 L1810.1933598375617 543.0580079512686 L1810.1933598375617 452.54833995939043 L1900.7030278294399 452.54833995939043 L1991.212695821318 452.54833995939043 L1991.212695821318 543.0580079512686 L1900.7030278294399 543.0580079512686 L1900.7030278294399 452.54833995939043 L1900.7030278294399 362.03867196751236 L1991.212695821318 362.03867196751236 L1991.212695821318 452.54833995939043 L1900.7030278294399 452.54833995939043 L1810.1933598375617 452.54833995939043 L1810.1933598375617 362.03867196751236 L1900.7030278294399 362.03867196751236 L1900.7030278294399 452.54833995939043 Z" style="fill:rgb(0, 0, 0, 0)" />
  <path d="M 2081.722363813196 543.0580079512686 L1991.212695821318 543.0580079512686 L1991.212695821318 452.54833995939043 L2081.722363813196 452.54833995939043 L2172.2320318050743 452.54833995939043 L2172.2320318050743 543.0580079512686 L2081.722363813196 543.0580079512686 L2081.722363813196 452.54833995939043 L2081.722363813196 362.03867196751236 L2172.2320318050743 362.03867196751236 L2172.2320318050743 452.54833995939043 L2081.722363813196 452.54833995939043 L1991.212695821318 452.54833995939043 L1991.212695821318 362.03867196751236 L2081.722363813196 362.03867196751236 L2081.722363813196 452.54833995939043 Z" style="fill:rgb(0, 0, 0, 0)" />
  <path d="M 2262.741699796952 543.0580079512686 L2172.2320318050743 543.0580079512686 L2172.2320318050743 452.54833995939043 L2262.741699796952 452.54833995939043 L2353.2513677888305 452.54833995939043 L2353.2513677888305 543.0580079512686 L2262.741699796952 543.0580079512686 L2262.741699796952 452.54833995939043 L2262.741699796952 362.03867196751236 L2353.2513677888305 362.03867196751236 L2353.2513677888305 452.54833995939043 L2262.741699796952 452.54833995939043 L2172.2320318050743 452.54833995939043 L2172.2320318050743 362.03867196751236 L2262.741699796952 362.03867196751236 L2262.741699796952 452.54833995939043 Z" style="fill:rgb(0, 0, 0, 0)" />
  <path d="M 2443.7610357807084 543.0580079512686 L2353.2513677888305 543.0580079512686 L2353.2513677888305 452.54833995939043 L2443.7610357807084 452.54833995939043 L2534.2707037725863 452.54833995939043 L2534.2707037725863 543.0580079512686 L2443.7610357807084 543.0580079512686 L2443.7610357807084 452.54833995939043 L2443.7610357807084 362.03867196751236 L2534.2707037725863 362.03867196751236 L2534.2707037725863 452.54833995939043 L2443.7610357807084 452.54833995939043 L2353.2513677888305 452.54833995939043 L2353.2513677888305 362.03867196751236 L2443.7610357807084 362.03867196751236 L2443.7610357807084 452.54833995939043 Z" style="fill:rgb(0, 0, 0, 0)" />
  <path d="M 2624.7803717644647 543.0580079512686 L2534.2707037725863 543.0580079512686 L2534.2707037725863 452.54833995939043 L2624.7803717644647 452.54833995939043 L2715.2900397563426 452.54833995939043 L2715.2900397563426 543.0580079512686 L2624.7803717644647 543.0580079512686 L2624.7803717644647 452.54833995939043 L2624.7803717644647 362.03867196751236 L2715.2900397563426 362.03867196751236 L2715.2900397563426 452.54833995939043 L2624.7803717644647 452.54833995939043 L2534.2707037725863 452.54833995939043 L2534.2707037725863 362.03867196751236 L2624.7803717644647 362.03867196751236 L2624.7803717644647 452.54833995939043 Z" style="fill:rgb(0, 0, 0, 0)" />
  <path d="M 2805.799707748221 543.0580079512686 L2715.2900397563426 543.0580079512686 L2715.2900397563426 452.54833995939043 L2805.799707748221 452.54833995939043 L2896.309375740099 452.54833995939043 L2896.309375740099 543.0580079512686 L2805.799707748221 543.0580079512686 L2805.799707748221 452.54833995939043 L2805.799707748221 362.03867196751236 L2896.309375740099 362.03867196751236 L2896.309375740099 452.54833995939043 L2805.799707748221 452.54833995939043 L2715.2900397563426 452.54833995939043 L2715.2900397563426 362.03867196751236 L2805.799707748221 362.03867196751236 L2805.799707748221 452.54833995939043 Z" style="fill:rgb(0, 0, 0, 0)" />
  <path d="M 90.50966799187809 724.0773439350247 L0 724.0773439350247 L0 633.5676759431466 L90.50966799187809 633.5676759431466 L181.01933598375618 633.5676759431466 L181.01933598375618 724.0773439350247 L90.50966799187809 724.0773439350247 L90.50966799187809 633.5676759431466 L90.50966799187809 543.0580079512686 L181.01933598375618 543.0580079512686 L181.01933598375618 633.5676759431466 L90.50966799187809 633.5676759431466 L0 633.5676759431466 L0 543.0580079512686 L90.50966799187809 543.0580079512686 L90.50966799187809 633.5676759431466 Z" style="fill:rgb(0, 0, 0, 0)" />
  <path d="M 271.5290039756343 724.0773439350247 L181.01933598375618 724.0773439350247 L181.01933598375618 633.5676759431466 L271.5290039756343 633.5676759431466 L362.03867196751236 633.5676759431466 L362.03867196751236 724.0773439350247 L271.5290039756343 724.0773439350247 L271.5290039756343 633.5676759431466 L271.5290039756343 543.0580079512686 L362.03867196751236 543.0580079512686 L362.03867196751236 633.5676759431466 L271.5290039756343 633.5676759431466 L181.01933598375618 633.5676759431466 L181.01933598375618 543.0580079512686 L271.5290039756343 543.0580079512686 L271.5290039756343 633.5676759431466 Z" style="fill:rgb(0, 0, 0, 0)" />
  <path d="M 452.54833995939043 724.0773439350247 L362.03867196751236 724.0773439350247 L362.03867196751236 633.5676759431466 L452.54833995939043 633.5676759431466 L543.0580079512686 633.5676759431466 L543.0580079512686 724.0773439350247 L452.54833995939043 724.0773439350247 L452.54833995939043 633.5676759431466 L452.54833995939043 543.0580079512686 L543.0580079512686 543.0580079512686 L543.0580079512686 633.5676759431466 L452.54833995939043 633.5676759431466 L362.03867196751236 633.5676759431466 L362.03867196751236 543.0580079512686 L452.54833995939043 543.0580079512686 L452.54833995939043 633.5676759431466 Z" style="fill:rgb(0, 0, 0, 0)" />
  <path d="M 633.5676759431466 724.0773439350247 L543.0580079512686 724.0773439350247 L543.0580079512686 633.5676759431466 L633.5676759431466 633.5676759431466 L724.0773439350247 633.5676759431466 L724.0773439350247 724.0773439350247 L633.5676759431466 724.0773439350247 L633.5676759431466 633.5676759431466 L633.5676759431466 543.0580079512686 L724.0773439350247 543.0580079512686 L724.0773439350247 633.5676759431466 L633.5676759431466 633.5676759431466 L543.0580079512686 633.5676759431466 L543.0580079512686 543.0580079512686 L633.5676759431466 543.0580079512686 L633.5676759431466 633.5676759431466 Z" style="fill:rgb(0, 0, 0, 0)" />
  <path d="M 814.5870119269028 724.0773439350247 L724.0773439350247 724.0773439350247 L724.0773439350247 633.5676759431466 L814.5870119269028 633.5676759431466 L905.0966799187809 633.5676759431466 L905.0966799187809 724.0773439350247 L814.5870119269028 724.0773439350247 L814.5870119269028 633.5676759431466 L814.5870119269028 543.0580079512686 L905.0966799187809 543.0580079512686 L905.0966799187809 633.5676759431466 L814.5870119269028 633.5676759431466 L724.0773439350247 633.5676759431466 L724.0773439350247 543.0580079512686 L814.5870119269028 543.0580079512686 L814.5870119269028 633.5676759431466 Z" style="fill:rgb(0, 0, 0, 0)" />
  <path d="M 995.606347910659 724.0773439350247 L905.0966799187809 724.0773439350247 L905.0966799187809 633.5676759431466 L905.0966799187809 543.0580079512686 L995.606347910659 543.0580079512686 L995.606347910659 633.5676759431466 Z" style="fill:rgb(0, 0, 0, 0)" />
  <path d="M 1086.1160159025371 633.5676759431466 L995.606347910659 633.5676759431466 L995.606347910659 543.0580079512686 L1086.1160159025371 543.0580079512686 L2896.309375740099 543.0580079512686 L2896.309375740099 633.5676759431466 L2896.309375740099 2896.309375740099 L2805.799707748221 2896.309375740099 L0 2896.309375740099 L0 2805.799707748221 L0 724.0773439350247 L90.50966799187809 724.0773439350247 L905.0966799187809 724.0773439350247 L905.0966799187809 814.5870119269028 L814.5870119269028 814.5870119269028 L724.0773439350247 814.5870119269028 L724.0773439350247 724.0773439350247 L814.5870119269028 724.0773439350247 L814.5870119269028 814.5870119269028 L814.5870119269028 905.0966799187809 L724.0773439350247 905.0966799187809 L633.5676759431466 905.0966799187809 L633.5676759431466 814.5870119269028 L724.0773439350247 814.5870119269028 L724.0773439350247 905.0966799187809 L724.0773439350247 995.606347910659 L633.5676759431466 995.606347910659 L543.0580079512686 995.606347910659 L543.0580079512686 905.0966799187809 L633.5676759431466 905.0966799187809 L633.5676759431466 995.606347910659 L633.5676759431466 1086.1160159025371 L543.0580079512686 1086.1160159025371 L452.54833995939043 1086.1160159025371 L452.54833995939043 995.606347910659 L543.0580079512686 995.606347910659 L543.0580079512686 1086.1160159025371 L543.0580079512686 1176.6256838944153 L452.54833995939043 1176.6256838944153 L362.03867196751236 1176.6256838944153 L362.03867196751236 1086.1160159025371 L452.54833995939043 1086.1160159025371 L452.54833995939043 1176.6256838944153 L452.54833995939043 1267.1353518862932 L362.03867196751236 1267.1353518862932 L271.5290039756343 1267.1353518862932 L271.5290039756343 1176.6256838944153 L362.03867196751236 1176.6256838944153 L362.03867196751236 1267.1353518862932 L362.03867196751236 1357.6450198781713 L271.5290039756343 1357.6450198781713 L181.01933598375618 1357.6450198781713 L181.01933598375618 1267.1353518862932 L271.5290039756343 1267.1353518862932 L271.5290039756343 1357.6450198781713 L271.5290039756343 1448.1546878700494 L181.01933598375618 1448.1546878700494 L90.50966799187809 1448.1546878700494 L90.50966799187809 1357.6450198781713 L181.01933598375618 1357.6450198781713 L181.01933598375618 1448.1546878700494 L181.01933598375618 1629.1740238538057 L90.50966799187809 1629.1740238538057 L90.50966799187809 1538.6643558619276 L181.01933598375618 1538.6643558619276 L271.5290039756343 1538.6643558619276 L271.5290039756343 1629.1740238538057 L271.5290039756343 1719.6836918456836 L181.01933598375618 1719.6836918456836 L181.01933598375618 1629.1740238538057 L271.5290039756343 1629.1740238538057 L362.03867196751236 1629.1740238538057 L362.03867196751236 1719.6836918456836 L362.03867196751236 1810.1933598375617 L271.5290039756343 1810.1933598375617 L271.5290039756343 1719.6836918456836 L362.03867196751236 1719.6836918456836 L452.54833995939043 1719.6836918456836 L452.54833995939043 1810.1933598375617 L452.54833995939043 1900.7030278294399 L362.03867196751236 1900.7030278294399 L362.03867196751236 1810.1933598375617 L452.54833995939043 1810.1933598375617 L543.0580079512686 1810.1933598375617 L543.0580079512686 1900.7030278294399 L543.0580079512686 1991.212695821318 L452.54833995939043 1991.212695821318 L452.54833995939043 1900.7030278294399 L543.0580079512686 1900.7030278294399 L633.5676759431466 1900.7030278294399 L633.5676759431466 1991.212695821318 L633.5676759431466 2081.722363813196 L543.0580079512686 2081.722363813196 L543.0580079512686 1991.212695821318 L633.5676759431466 1991.212695821318 L724.0773439350247 1991.212695821318 L724.0773439350247 2081.722363813196 L724.0773439350247 2172.2320318050743 L633.5676759431466 2172.2320318050743 L633.5676759431466 2081.722363813196 L724.0773439350247 2081.722363813196 L814.5870119269028 2081.722363813196 L814.5870119269028 2172.2320318050743 L814.5870119269028 2262.741699796952 L724.0773439350247 2262.741699796952 L724.0773439350247 2172.2320318050743 L814.5870119269028 2172.2320318050743 L905.0966799187809 2172.2320318050743 L905.0966799187809 2262.741699796952 L905.0966799187809 2353.2513677888305 L814.5870119269028 2353.2513677888305 L814.5870119269028 2262.741699796952 L905.0966799187809 2262.741699796952 L995.606347910659 2262.741699796952 L995.606347910659 2353.2513677888305 L995.606347910659 2443.7610357807084 L905.0966799187809 2443.7610357807084 L905.0966799187809 2353.2513677888305 L995.606347910659 2353.2513677888305 L1267.1353518862932 2353.2513677888305 L1267.1353518862932 2443.7610357807084 L1176.6256838944153 2443.7610357807084 L1176.6256838944153 2353.2513677888305 L1176.6256838944153 2262.741699796952 L1267.1353518862932 2262.741699796952 L1357.6450198781713 2262.741699796952 L1357.6450198781713 2353.2513677888305 L1267.1353518862932 2353.2513677888305 L1267.1353518862932 2262.741699796952 L1267.1353518862932 1900.7030278294399 L1357.6450198781713 1900.7030278294399 L2624.7803717644647 1900.7030278294399 L2624.7803717644647 1991.212695821318 L2534.2707037725863 1991.212695821318 L2534.2707037725863 1900.7030278294399 L2534.2707037725863 1810.1933598375617 L2624.7803717644647 1810.1933598375617 L2715.2900397563426 1810.1933598375617 L2715.2900397563426 1900.7030278294399 L2624.7803717644647 1900.7030278294399 L2624.7803717644647 1810.1933598375617 L2624.7803717644647 1086.1160159025371 L2715.2900397563426 1086.1160159025371 L2715.2900397563426 1176.6256838944153 L2624.7803717644647 1176.6256838944153 L2534.2707037725863 1176.6256838944153 L2534.2707037725863 1086.1160159025371 L2534.2707037725863 995.606347910659 L2624.7803717644647 995.606347910659 L2624.7803717644647 1086.1160159025371 L2534.2707037725863 1086.1160159025371 L1267.1353518862932 1086.1160159025371 L1267.1353518862932 995.606347910659 L1267.1353518862932 633.5676759431466 L1357.6450198781713 633.5676759431466 L1357.6450198781713 724.0773439350247 L1267.1353518862932 724.0773439350247 L1176.6256838944153 724.0773439350247 L1176.6256838944153 633.5676759431466 L1176.6256838944153 543.0580079512686 L1267.1353518862932 543.0580079512686 L1267.1353518862932 633.5676759431466 L1176.6256838944153 633.5676759431466 L995.606347910659 633.5676759431466 L995.606347910659 543.0580079512686 L1086.1160159025371 543.0580079512686 Z" style="fill:rgb(0, 0, 0, 0)" />
  <path d="M 1086.1160159025371 724.0773439350247 L995.606347910659 724.0773439350247 L995.606347910659 633.5676759431466 L1086.1160159025371 633.5676759431466 L1176.6256838944153 633.5676759431466 L1176.6256838944153 724.0773439350247 L1086.1160159025371 724.0773439350247 L995.606347910659 724.0773439350247 L995.606347910659 633.5676759431466 L1086.1160159025371 633.5676759431466 Z" style="fill:rgb(31, 16, 5, 255)" />
  <path d="M 1448.1546878700494 814.5870119269028 L1357.6450198781713 814.5870119269028 L1357.6450198781713 724.0773439350247 L1448.1546878700494 724.0773439350247 L1538.6643558619276 724.0773439350247 L1538.6643558619276 814.5870119269028 L1448.1546878700494 814.5870119269028 L1448.1546878700494 724.0773439350247 L1448.1546878700494 633.5676759431466 L1538.6643558619276 633.5676759431466 L1538.6643558619276 724.0773439350247 L1448.1546878700494 724.0773439350247 L1357.6450198781713 724.0773439350247 L1357.6450198781713 633.5676759431466 L1448.1546878700494 633.5676759431466 L1448.1546878700494 724.0773439350247 Z" style="fill:rgb(0, 0, 0, 0)" />
  <path d="M 1629.1740238538057 814.5870119269028 L1538.6643558619276 814.5870119269028 L1538.6643558619276 724.0773439350247 L1629.1740238538057 724.0773439350247 L1719.6836918456836 724.0773439350247 L1719.6836918456836 814.5870119269028 L1629.1740238538057 814.5870119269028 L1629.1740238538057 724.0773439350247 L1629.1740238538057 633.5676759431466 L1719.6836918456836 633.5676759431466 L1719.6836918456836 724.0773439350247 L1629.1740238538057 724.0773439350247 L1538.6643558619276 724.0773439350247 L1538.6643558619276 633.5676759431466 L1629.1740238538057 633.5676759431466 L1629.1740238538057 724.0773439350247 Z" style="fill:rgb(0, 0, 0, 0)" />
  <path d="M 1810.1933598375617 814.5870119269028 L1719.6836918456836 814.5870119269028 L1719.6836918456836 724.0773439350247 L1810.1933598375617 724.0773439350247 L1900.7030278294399 724.0773439350247 L1900.7030278294399 814.5870119269028 L1810.1933598375617 814.5870119269028 L1810.1933598375617 724.0773439350247 L1810.1933598375617 633.5676759431466 L1900.7030278294399 633.5676759431466 L1900.7030278294399 724.0773439350247 L1810.1933598375617 724.0773439350247 L1719.6836918456836 724.0773439350247 L1719.6836918456836 633.5676759431466 L1810.1933598375617 633.5676759431466 L1810.1933598375617 724.0773439350247 Z" style="fill:rgb(0, 0, 0, 0)" />
  <path d="M 1991.212695821318 814.5870119269028 L1900.7030278294399 814.5870119269028 L1900.7030278294399 724.0773439350247 L1991.212695821318 724.0773439350247 L2081.722363813196 724.0773439350247 L2081.722363813196 814.5870119269028 L1991.212695821318 814.5870119269028 L1991.212695821318 724.0773439350247 L1991.212695821318 633.5676759431466 L2081.722363813196 633.5676759431466 L2081.722363813196 724.0773439350247 L1991.212695821318 724.0773439350247 L1900.7030278294399 724.0773439350247 L1900.7030278294399 633.5676759431466 L1991.212695821318 633.5676759431466 L1991.212695821318 724.0773439350247 Z" style="fill:rgb(0, 0, 0, 0)" />
  <path d="M 2172.2320318050743 814.5870119269028 L2081.722363813196 814.5870119269028 L2081.722363813196 724.0773439350247 L2172.2320318050743 724.0773439350247 L2262.741699796952 724.0773439350247 L2262.741699796952 814.5870119269028 L2172.2320318050743 814.5870119269028 L2172.2320318050743 724.0773439350247 L2172.2320318050743 633.5676759431466 L2262.741699796952 633.5676759431466 L2262.741699796952 724.0773439350247 L2172.2320318050743 724.0773439350247 L2081.722363813196 724.0773439350247 L2081.722363813196 633.5676759431466 L2172.2320318050743 633.5676759431466 L2172.2320318050743 724.0773439350247 Z" style="fill:rgb(0, 0, 0, 0)" />
  <path d="M 2353.2513677888305 814.5870119269028 L2262.741699796952 814.5870119269028 L2262.741699796952 724.0773439350247 L2353.2513677888305 724.0773439350247 L2443.7610357807084 724.0773439350247 L2443.7610357807084 814.5870119269028 L2353.2513677888305 814.5870119269028 L2353.2513677888305 724.0773439350247 L2353.2513677888305 633.5676759431466 L2443.7610357807084 633.5676759431466 L2443.7610357807084 724.0773439350247 L2353.2513677888305 724.0773439350247 L2262.741699796952 724.0773439350247 L2262.741699796952 633.5676759431466 L2353.2513677888305 633.5676759431466 L2353.2513677888305 724.0773439350247 Z" style="fill:rgb(0, 0, 0, 0)" />
  <path d="M 2534.2707037725863 814.5870119269028 L2443.7610357807084 814.5870119269028 L2443.7610357807084 724.0773439350247 L2534.2707037725863 724.0773439350247 L2624.7803717644647 724.0773439350247 L2624.7803717644647 814.5870119269028 L2534.2707037725863 814.5870119269028 L2534.2707037725863 724.0773439350247 L2534.2707037725863 633.5676759431466 L2624.7803717644647 633.5676759431466 L2624.7803717644647 724.0773439350247 L2534.2707037725863 724.0773439350247 L2443.7610357807084 724.0773439350247 L2443.7610357807084 633.5676759431466 L2534.2707037725863 633.5676759431466 L2534.2707037725863 724.0773439350247 Z" style="fill:rgb(0, 0, 0, 0)" />
  <path d="M 2715.2900397563426 814.5870119269028 L2624.7803717644647 814.5870119269028 L2624.7803717644647 724.0773439350247 L2715.2900397563426 724.0773439350247 L2805.799707748221 724.0773439350247 L2805.799707748221 814.5870119269028 L2715.2900397563426 814.5870119269028 L2715.2900397563426 724.0773439350247 L2715.2900397563426 633.5676759431466 L2805.799707748221 633.5676759431466 L2805.799707748221 724.0773439350247 L2715.2900397563426 724.0773439350247 L2624.7803717644647 724.0773439350247 L2624.7803717644647 633.5676759431466 L2715.2900397563426 633.5676759431466 L2715.2900397563426 724.0773439350247 Z" style="fill:rgb(0, 0, 0, 0)" />
  <path d="M 905.0966799187809 814.5870119269028 L905.0966799187809 724.0773439350247 L995.606347910659 724.0773439350247 L995.606347910659 814.5870119269028 Z" style="fill:rgb(31, 16, 5, 255)" />
  <path d="M 1086.1160159025371 814.5870119269028 L995.606347910659 814.5870119269028 L995.606347910659 724.0773439350247 L1086.1160159025371 724.0773439350247 L1176.6256838944153 724.0773439350247 L1176.6256838944153 814.5870119269028 L1176.6256838944153 1267.1353518862932 L1086.1160159025371 1267.1353518862932 L1086.1160159025371 1176.6256838944153 L1176.6256838944153 1176.6256838944153 L2534.2707037725863 1176.6256838944153 L2534.2707037725863 1267.1353518862932 L2534.2707037725863 1810.1933598375617 L2443.7610357807084 1810.1933598375617 L1086.1160159025371 1810.1933598375617 L1086.1160159025371 1719.6836918456836 L1176.6256838944153 1719.6836918456836 L1176.6256838944153 1810.1933598375617 L1176.6256838944153 2262.741699796952 L1086.1160159025371 2262.741699796952 L995.606347910659 2262.741699796952 L995.606347910659 2172.2320318050743 L1086.1160159025371 2172.2320318050743 L1176.6256838944153 2172.2320318050743 L1176.6256838944153 2262.741699796952 L1086.1160159025371 2262.741699796952 L1086.1160159025371 2172.2320318050743 L1086.1160159025371 1719.6836918456836 L1176.6256838944153 1719.6836918456836 L2534.2707037725863 1719.6836918456836 L2534.2707037725863 1810.1933598375617 L2443.7610357807084 1810.1933598375617 L2443.7610357807084 1719.6836918456836 L2443.7610357807084 1176.6256838944153 L2534.2707037725863 1176.6256838944153 L2534.2707037725863 1267.1353518862932 L2443.7610357807084 1267.1353518862932 L1086.1160159025371 1267.1353518862932 L1086.1160159025371 1176.6256838944153 L1086.1160159025371 724.0773439350247 L1176.6256838944153 724.0773439350247 L1176.6256838944153 814.5870119269028 L1086.1160159025371 814.5870119269028 L995.606347910659 814.5870119269028 L995.606347910659 724.0773439350247 L1086.1160159025371 724.0773439350247 Z" style="fill:rgb(64, 27, 0, 255)" />
  <path d="M 1267.1353518862932 1176.6256838944153 L1176.6256838944153 1176.6256838944153 L1176.6256838944153 1086.1160159025371 L1267.1353518862932 1086.1160159025371 L2534.2707037725863 1086.1160159025371 L2534.2707037725863 1176.6256838944153 L2443.7610357807084 1176.6256838944153 L1176.6256838944153 1176.6256838944153 L1176.6256838944153 1086.1160159025371 L1176.6256838944153 724.0773439350247 L1267.1353518862932 724.0773439350247 L1267.1353518862932 814.5870119269028 Z" style="fill:rgb(31, 16, 5, 255)" />
  <path d="M 181.01933598375618 995.606347910659 L90.50966799187809 995.606347910659 L90.50966799187809 905.0966799187809 L181.01933598375618 905.0966799187809 L271.5290039756343 905.0966799187809 L271.5290039756343 995.606347910659 L181.01933598375618 995.606347910659 L181.01933598375618 905.0966799187809 L181.01933598375618 814.5870119269028 L271.5290039756343 814.5870119269028 L271.5290039756343 905.0966799187809 L181.01933598375618 905.0966799187809 L90.50966799187809 905.0966799187809 L90.50966799187809 814.5870119269028 L181.01933598375618 814.5870119269028 L181.01933598375618 905.0966799187809 Z" style="fill:rgb(0, 0, 0, 0)" />
  <path d="M 362.03867196751236 995.606347910659 L271.5290039756343 995.606347910659 L271.5290039756343 905.0966799187809 L362.03867196751236 905.0966799187809 L452.54833995939043 905.0966799187809 L452.54833995939043 995.606347910659 L362.03867196751236 995.606347910659 L362.03867196751236 905.0966799187809 L362.03867196751236 814.5870119269028 L452.54833995939043 814.5870119269028 L452.54833995939043 905.0966799187809 L362.03867196751236 905.0966799187809 L271.5290039756343 905.0966799187809 L271.5290039756343 814.5870119269028 L362.03867196751236 814.5870119269028 L362.03867196751236 905.0966799187809 Z" style="fill:rgb(0, 0, 0, 0)" />
  <path d="M 543.0580079512686 995.606347910659 L452.54833995939043 995.606347910659 L452.54833995939043 905.0966799187809 L452.54833995939043 814.5870119269028 L543.0580079512686 814.5870119269028 L543.0580079512686 905.0966799187809 Z" style="fill:rgb(0, 0, 0, 0)" />
  <path d="M 543.0580079512686 905.0966799187809 L543.0580079512686 814.5870119269028 L633.5676759431466 814.5870119269028 L633.5676759431466 905.0966799187809 Z" style="fill:rgb(0, 0, 0, 0)" />
  <path d="M 814.5870119269028 905.0966799187809 L814.5870119269028 814.5870119269028 L905.0966799187809 814.5870119269028 L905.0966799187809 905.0966799187809 Z" style="fill:rgb(31, 16, 5, 255)" />
  <path d="M 905.0966799187809 905.0966799187809 L905.0966799187809 814.5870119269028 L995.606347910659 814.5870119269028 L995.606347910659 905.0966799187809 Z" style="fill:rgb(64, 27, 0, 255)" />
  <path d="M 1086.1160159025371 1357.6450198781713 L995.606347910659 1357.6450198781713 L995.606347910659 1267.1353518862932 L1086.1160159025371 1267.1353518862932 L2443.7610357807084 1267.1353518862932 L2443.7610357807084 1357.6450198781713 L2443.7610357807084 1538.6643558619276 L2353.2513677888305 1538.6643558619276 L2262.741699796952 1538.6643558619276 L2262.741699796952 1448.1546878700494 L2353.2513677888305 1448.1546878700494 L2353.2513677888305 1538.6643558619276 L2353.2513677888305 1629.1740238538057 L2262.741699796952 1629.1740238538057 L995.606347910659 1629.1740238538057 L995.606347910659 1538.6643558619276 L1086.1160159025371 1538.6643558619276 L1086.1160159025371 1629.1740238538057 L1086.1160159025371 2081.722363813196 L995.606347910659 2081.722363813196 L995.606347910659 1991.212695821318 L995.606347910659 1900.7030278294399 L1086.1160159025371 1900.7030278294399 L1086.1160159025371 1991.212695821318 L995.606347910659 1991.212695821318 L905.0966799187809 1991.212695821318 L905.0966799187809 1900.7030278294399 L905.0966799187809 1810.1933598375617 L995.606347910659 1810.1933598375617 L995.606347910659 1900.7030278294399 L905.0966799187809 1900.7030278294399 L814.5870119269028 1900.7030278294399 L814.5870119269028 1810.1933598375617 L814.5870119269028 1719.6836918456836 L905.0966799187809 1719.6836918456836 L905.0966799187809 1810.1933598375617 L814.5870119269028 1810.1933598375617 L724.0773439350247 1810.1933598375617 L724.0773439350247 1719.6836918456836 L724.0773439350247 1629.1740238538057 L814.5870119269028 1629.1740238538057 L814.5870119269028 1719.6836918456836 L724.0773439350247 1719.6836918456836 L633.5676759431466 1719.6836918456836 L633.5676759431466 1629.1740238538057 L633.5676759431466 1538.6643558619276 L724.0773439350247 1538.6643558619276 L724.0773439350247 1629.1740238538057 L633.5676759431466 1629.1740238538057 L543.0580079512686 1629.1740238538057 L543.0580079512686 1538.6643558619276 L543.0580079512686 1448.1546878700494 L633.5676759431466 1448.1546878700494 L633.5676759431466 1538.6643558619276 L543.0580079512686 1538.6643558619276 L452.54833995939043 1538.6643558619276 L452.54833995939043 1448.1546878700494 L452.54833995939043 1357.6450198781713 L543.0580079512686 1357.6450198781713 L633.5676759431466 1357.6450198781713 L633.5676759431466 1448.1546878700494 L543.0580079512686 1448.1546878700494 L543.0580079512686 1357.6450198781713 L543.0580079512686 1267.1353518862932 L633.5676759431466 1267.1353518862932 L724.0773439350247 1267.1353518862932 L724.0773439350247 1357.6450198781713 L633.5676759431466 1357.6450198781713 L633.5676759431466 1267.1353518862932 L633.5676759431466 1176.6256838944153 L724.0773439350247 1176.6256838944153 L814.5870119269028 1176.6256838944153 L814.5870119269028 1267.1353518862932 L724.0773439350247 1267.1353518862932 L724.0773439350247 1176.6256838944153 L724.0773439350247 1086.1160159025371 L814.5870119269028 1086.1160159025371 L905.0966799187809 1086.1160159025371 L905.0966799187809 1176.6256838944153 L814.5870119269028 1176.6256838944153 L814.5870119269028 1086.1160159025371 L814.5870119269028 995.606347910659 L905.0966799187809 995.606347910659 L995.606347910659 995.606347910659 L995.606347910659 1086.1160159025371 L905.0966799187809 1086.1160159025371 L905.0966799187809 995.606347910659 L905.0966799187809 905.0966799187809 L995.606347910659 905.0966799187809 L1086.1160159025371 905.0966799187809 L1086.1160159025371 995.606347910659 L995.606347910659 995.606347910659 L995.606347910659 905.0966799187809 L995.606347910659 814.5870119269028 L1086.1160159025371 814.5870119269028 L1086.1160159025371 905.0966799187809 Z" style="fill:rgb(204, 97, 61, 255)" />
  <path d="M 1448.1546878700494 995.606347910659 L1357.6450198781713 995.606347910659 L1357.6450198781713 905.0966799187809 L1448.1546878700494 905.0966799187809 L1538.6643558619276 905.0966799187809 L1538.6643558619276 995.606347910659 L1448.1546878700494 995.606347910659 L1448.1546878700494 905.0966799187809 L1448.1546878700494 814.5870119269028 L1538.6643558619276 814.5870119269028 L1538.6643558619276 905.0966799187809 L1448.1546878700494 905.0966799187809 L1357.6450198781713 905.0966799187809 L1357.6450198781713 814.5870119269028 L1448.1546878700494 814.5870119269028 L1448.1546878700494 905.0966799187809 Z" style="fill:rgb(0, 0, 0, 0)" />
  <path d="M 1629.1740238538057 995.606347910659 L1538.6643558619276 995.606347910659 L1538.6643558619276 905.0966799187809 L1629.1740238538057 905.0966799187809 L1719.6836918456836 905.0966799187809 L1719.6836918456836 995.606347910659 L1629.1740238538057 995.606347910659 L1629.1740238538057 905.0966799187809 L1629.1740238538057 814.5870119269028 L1719.6836918456836 814.5870119269028 L1719.6836918456836 905.0966799187809 L1629.1740238538057 905.0966799187809 L1538.6643558619276 905.0966799187809 L1538.6643558619276 814.5870119269028 L1629.1740238538057 814.5870119269028 L1629.1740238538057 905.0966799187809 Z" style="fill:rgb(0, 0, 0, 0)" />
  <path d="M 1810.1933598375617 995.606347910659 L1719.6836918456836 995.606347910659 L1719.6836918456836 905.0966799187809 L1810.1933598375617 905.0966799187809 L1900.7030278294399 905.0966799187809 L1900.7030278294399 995.606347910659 L1810.1933598375617 995.606347910659 L1810.1933598375617 905.0966799187809 L1810.1933598375617 814.5870119269028 L1900.7030278294399 814.5870119269028 L1900.7030278294399 905.0966799187809 L1810.1933598375617 905.0966799187809 L1719.6836918456836 905.0966799187809 L1719.6836918456836 814.5870119269028 L1810.1933598375617 814.5870119269028 L1810.1933598375617 905.0966799187809 Z" style="fill:rgb(0, 0, 0, 0)" />
  <path d="M 1991.212695821318 995.606347910659 L1900.7030278294399 995.606347910659 L1900.7030278294399 905.0966799187809 L1991.212695821318 905.0966799187809 L2081.722363813196 905.0966799187809 L2081.722363813196 995.606347910659 L1991.212695821318 995.606347910659 L1991.212695821318 905.0966799187809 L1991.212695821318 814.5870119269028 L2081.722363813196 814.5870119269028 L2081.722363813196 905.0966799187809 L1991.212695821318 905.0966799187809 L1900.7030278294399 905.0966799187809 L1900.7030278294399 814.5870119269028 L1991.212695821318 814.5870119269028 L1991.212695821318 905.0966799187809 Z" style="fill:rgb(0, 0, 0, 0)" />
  <path d="M 2172.2320318050743 995.606347910659 L2081.722363813196 995.606347910659 L2081.722363813196 905.0966799187809 L2172.2320318050743 905.0966799187809 L2262.741699796952 905.0966799187809 L2262.741699796952 995.606347910659 L2172.2320318050743 995.606347910659 L2172.2320318050743 905.0966799187809 L2172.2320318050743 814.5870119269028 L2262.741699796952 814.5870119269028 L2262.741699796952 905.0966799187809 L2172.2320318050743 905.0966799187809 L2081.722363813196 905.0966799187809 L2081.722363813196 814.5870119269028 L2172.2320318050743 814.5870119269028 L2172.2320318050743 905.0966799187809 Z" style="fill:rgb(0, 0, 0, 0)" />
  <path d="M 2353.2513677888305 995.606347910659 L2262.741699796952 995.606347910659 L2262.741699796952 905.0966799187809 L2353.2513677888305 905.0966799187809 L2443.7610357807084 905.0966799187809 L2443.7610357807084 995.606347910659 L2353.2513677888305 995.606347910659 L2353.2513677888305 905.0966799187809 L2353.2513677888305 814.5870119269028 L2443.7610357807084 814.5870119269028 L2443.7610357807084 905.0966799187809 L2353.2513677888305 905.0966799187809 L2262.741699796952 905.0966799187809 L2262.741699796952 814.5870119269028 L2353.2513677888305 814.5870119269028 L2353.2513677888305 905.0966799187809 Z" style="fill:rgb(0, 0, 0, 0)" />
  <path d="M 2534.2707037725863 995.606347910659 L2443.7610357807084 995.606347910659 L2443.7610357807084 905.0966799187809 L2534.2707037725863 905.0966799187809 L2624.7803717644647 905.0966799187809 L2624.7803717644647 995.606347910659 L2534.2707037725863 995.606347910659 L2534.2707037725863 905.0966799187809 L2534.2707037725863 814.5870119269028 L2624.7803717644647 814.5870119269028 L2624.7803717644647 905.0966799187809 L2534.2707037725863 905.0966799187809 L2443.7610357807084 905.0966799187809 L2443.7610357807084 814.5870119269028 L2534.2707037725863 814.5870119269028 L2534.2707037725863 905.0966799187809 Z" style="fill:rgb(0, 0, 0, 0)" />
  <path d="M 2715.2900397563426 995.606347910659 L2624.7803717644647 995.606347910659 L2624.7803717644647 905.0966799187809 L2715.2900397563426 905.0966799187809 L2805.799707748221 905.0966799187809 L2805.799707748221 995.606347910659 L2715.2900397563426 995.606347910659 L2715.2900397563426 905.0966799187809 L2715.2900397563426 814.5870119269028 L2805.799707748221 814.5870119269028 L2805.799707748221 905.0966799187809 L2715.2900397563426 905.0966799187809 L2624.7803717644647 905.0966799187809 L2624.7803717644647 814.5870119269028 L2715.2900397563426 814.5870119269028 L2715.2900397563426 905.0966799187809 Z" style="fill:rgb(0, 0, 0, 0)" />
  <path d="M 724.0773439350247 995.606347910659 L724.0773439350247 905.0966799187809 L814.5870119269028 905.0966799187809 L814.5870119269028 995.606347910659 Z" style="fill:rgb(31, 16, 5, 255)" />
  <path d="M 814.5870119269028 995.606347910659 L814.5870119269028 905.0966799187809 L905.0966799187809 905.0966799187809 L905.0966799187809 995.606347910659 Z" style="fill:rgb(64, 27, 0, 255)" />
  <path d="M 181.01933598375618 1176.6256838944153 L90.50966799187809 1176.6256838944153 L90.50966799187809 1086.1160159025371 L181.01933598375618 1086.1160159025371 L271.5290039756343 1086.1160159025371 L271.5290039756343 1176.6256838944153 L181.01933598375618 1176.6256838944153 L181.01933598375618 1086.1160159025371 L181.01933598375618 995.606347910659 L271.5290039756343 995.606347910659 L271.5290039756343 1086.1160159025371 L181.01933598375618 1086.1160159025371 L90.50966799187809 1086.1160159025371 L90.50966799187809 995.606347910659 L181.01933598375618 995.606347910659 L181.01933598375618 1086.1160159025371 Z" style="fill:rgb(0, 0, 0, 0)" />
  <path d="M 362.03867196751236 1176.6256838944153 L271.5290039756343 1176.6256838944153 L271.5290039756343 1086.1160159025371 L271.5290039756343 995.606347910659 L362.03867196751236 995.606347910659 L362.03867196751236 1086.1160159025371 Z" style="fill:rgb(0, 0, 0, 0)" />
  <path d="M 362.03867196751236 1086.1160159025371 L362.03867196751236 995.606347910659 L452.54833995939043 995.606347910659 L452.54833995939043 1086.1160159025371 Z" style="fill:rgb(0, 0, 0, 0)" />
  <path d="M 633.5676759431466 1086.1160159025371 L633.5676759431466 995.606347910659 L724.0773439350247 995.606347910659 L724.0773439350247 1086.1160159025371 Z" style="fill:rgb(31, 16, 5, 255)" />
  <path d="M 724.0773439350247 1086.1160159025371 L724.0773439350247 995.606347910659 L814.5870119269028 995.606347910659 L814.5870119269028 1086.1160159025371 Z" style="fill:rgb(64, 27, 0, 255)" />
  <path d="M 2715.2900397563426 1086.1160159025371 L2624.7803717644647 1086.1160159025371 L2624.7803717644647 995.606347910659 L2715.2900397563426 995.606347910659 L2805.799707748221 995.606347910659 L2805.799707748221 1086.1160159025371 L2805.799707748221 2805.799707748221 L2715.2900397563426 2805.799707748221 L90.50966799187809 2805.799707748221 L90.50966799187809 2715.2900397563426 L90.50966799187809 1629.1740238538057 L181.01933598375618 1629.1740238538057 L181.01933598375618 1719.6836918456836 L181.01933598375618 1810.1933598375617 L90.50966799187809 1810.1933598375617 L90.50966799187809 1719.6836918456836 L181.01933598375618 1719.6836918456836 L271.5290039756343 1719.6836918456836 L271.5290039756343 1810.1933598375617 L271.5290039756343 1900.7030278294399 L181.01933598375618 1900.7030278294399 L181.01933598375618 1810.1933598375617 L271.5290039756343 1810.1933598375617 L362.03867196751236 1810.1933598375617 L362.03867196751236 1900.7030278294399 L362.03867196751236 1991.212695821318 L271.5290039756343 1991.212695821318 L271.5290039756343 1900.7030278294399 L362.03867196751236 1900.7030278294399 L452.54833995939043 1900.7030278294399 L452.54833995939043 1991.212695821318 L452.54833995939043 2081.722363813196 L362.03867196751236 2081.722363813196 L362.03867196751236 1991.212695821318 L452.54833995939043 1991.212695821318 L543.0580079512686 1991.212695821318 L543.0580079512686 2081.722363813196 L543.0580079512686 2172.2320318050743 L452.54833995939043 2172.2320318050743 L452.54833995939043 2081.722363813196 L543.0580079512686 2081.722363813196 L633.5676759431466 2081.722363813196 L633.5676759431466 2172.2320318050743 L633.5676759431466 2262.741699796952 L543.0580079512686 2262.741699796952 L543.0580079512686 2172.2320318050743 L633.5676759431466 2172.2320318050743 L724.0773439350247 2172.2320318050743 L724.0773439350247 2262.741699796952 L724.0773439350247 2353.2513677888305 L633.5676759431466 2353.2513677888305 L633.5676759431466 2262.741699796952 L724.0773439350247 2262.741699796952 L814.5870119269028 2262.741699796952 L814.5870119269028 2353.2513677888305 L814.5870119269028 2443.7610357807084 L724.0773439350247 2443.7610357807084 L724.0773439350247 2353.2513677888305 L814.5870119269028 2353.2513677888305 L905.0966799187809 2353.2513677888305 L905.0966799187809 2443.7610357807084 L905.0966799187809 2534.2707037725863 L814.5870119269028 2534.2707037725863 L814.5870119269028 2443.7610357807084 L905.0966799187809 2443.7610357807084 L1357.6450198781713 2443.7610357807084 L1357.6450198781713 2534.2707037725863 L1267.1353518862932 2534.2707037725863 L1267.1353518862932 2443.7610357807084 L1267.1353518862932 2353.2513677888305 L1357.6450198781713 2353.2513677888305 L1448.1546878700494 2353.2513677888305 L1448.1546878700494 2443.7610357807084 L1357.6450198781713 2443.7610357807084 L1357.6450198781713 2353.2513677888305 L1357.6450198781713 1991.212695821318 L1448.1546878700494 1991.212695821318 L2715.2900397563426 1991.212695821318 L2715.2900397563426 2081.722363813196 L2624.7803717644647 2081.722363813196 L2624.7803717644647 1991.212695821318 L2624.7803717644647 1900.7030278294399 L2715.2900397563426 1900.7030278294399 L2805.799707748221 1900.7030278294399 L2805.799707748221 1991.212695821318 L2715.2900397563426 1991.212695821318 L2715.2900397563426 1900.7030278294399 L2715.2900397563426 995.606347910659 L2805.799707748221 995.606347910659 L2805.799707748221 1086.1160159025371 L2715.2900397563426 1086.1160159025371 L2624.7803717644647 1086.1160159025371 L2624.7803717644647 995.606347910659 L2715.2900397563426 995.606347910659 Z" style="fill:rgb(0, 0, 0, 0)" />
  <path d="M 543.0580079512686 1176.6256838944153 L543.0580079512686 1086.1160159025371 L633.5676759431466 1086.1160159025371 L633.5676759431466 1176.6256838944153 Z" style="fill:rgb(31, 16, 5, 255)" />
  <path d="M 633.5676759431466 1176.6256838944153 L633.5676759431466 1086.1160159025371 L724.0773439350247 1086.1160159025371 L724.0773439350247 1176.6256838944153 Z" style="fill:rgb(64, 27, 0, 255)" />
  <path d="M 995.606347910659 1448.1546878700494 L905.0966799187809 1448.1546878700494 L905.0966799187809 1357.6450198781713 L995.606347910659 1357.6450198781713 L2353.2513677888305 1357.6450198781713 L2353.2513677888305 1448.1546878700494 L2262.741699796952 1448.1546878700494 L2172.2320318050743 1448.1546878700494 L2172.2320318050743 1357.6450198781713 L2262.741699796952 1357.6450198781713 L2262.741699796952 1448.1546878700494 L2262.741699796952 1538.6643558619276 L2172.2320318050743 1538.6643558619276 L905.0966799187809 1538.6643558619276 L905.0966799187809 1448.1546878700494 L995.606347910659 1448.1546878700494 L995.606347910659 1538.6643558619276 L995.606347910659 1810.1933598375617 L905.0966799187809 1810.1933598375617 L905.0966799187809 1719.6836918456836 L905.0966799187809 1629.1740238538057 L995.606347910659 1629.1740238538057 L995.606347910659 1719.6836918456836 L905.0966799187809 1719.6836918456836 L814.5870119269028 1719.6836918456836 L814.5870119269028 1629.1740238538057 L814.5870119269028 1538.6643558619276 L905.0966799187809 1538.6643558619276 L905.0966799187809 1629.1740238538057 L814.5870119269028 1629.1740238538057 L724.0773439350247 1629.1740238538057 L724.0773439350247 1538.6643558619276 L724.0773439350247 1448.1546878700494 L814.5870119269028 1448.1546878700494 L814.5870119269028 1538.6643558619276 L724.0773439350247 1538.6643558619276 L633.5676759431466 1538.6643558619276 L633.5676759431466 1448.1546878700494 L633.5676759431466 1357.6450198781713 L724.0773439350247 1357.6450198781713 L814.5870119269028 1357.6450198781713 L814.5870119269028 1448.1546878700494 L724.0773439350247 1448.1546878700494 L724.0773439350247 1357.6450198781713 L724.0773439350247 1267.1353518862932 L814.5870119269028 1267.1353518862932 L905.0966799187809 1267.1353518862932 L905.0966799187809 1357.6450198781713 L814.5870119269028 1357.6450198781713 L814.5870119269028 1267.1353518862932 L814.5870119269028 1176.6256838944153 L905.0966799187809 1176.6256838944153 L995.606347910659 1176.6256838944153 L995.606347910659 1267.1353518862932 L905.0966799187809 1267.1353518862932 L905.0966799187809 1176.6256838944153 L905.0966799187809 1086.1160159025371 L995.606347910659 1086.1160159025371 L995.606347910659 1176.6256838944153 Z" style="fill:rgb(204, 97, 61, 255)" />
  <path d="M 181.01933598375618 1357.6450198781713 L90.50966799187809 1357.6450198781713 L90.50966799187809 1267.1353518862932 L90.50966799187809 1176.6256838944153 L181.01933598375618 1176.6256838944153 L181.01933598375618 1267.1353518862932 Z" style="fill:rgb(0, 0, 0, 0)" />
  <path d="M 181.01933598375618 1267.1353518862932 L181.01933598375618 1176.6256838944153 L271.5290039756343 1176.6256838944153 L271.5290039756343 1267.1353518862932 Z" style="fill:rgb(0, 0, 0, 0)" />
  <path d="M 452.54833995939043 1267.1353518862932 L452.54833995939043 1176.6256838944153 L543.0580079512686 1176.6256838944153 L543.0580079512686 1267.1353518862932 Z" style="fill:rgb(31, 16, 5, 255)" />
  <path d="M 543.0580079512686 1267.1353518862932 L543.0580079512686 1176.6256838944153 L633.5676759431466 1176.6256838944153 L633.5676759431466 1267.1353518862932 Z" style="fill:rgb(64, 27, 0, 255)" />
  <path d="M 2624.7803717644647 1810.1933598375617 L2534.2707037725863 1810.1933598375617 L2534.2707037725863 1719.6836918456836 L2534.2707037725863 1176.6256838944153 L2624.7803717644647 1176.6256838944153 L2624.7803717644647 1267.1353518862932 Z" style="fill:rgb(31, 16, 5, 255)" />
  <path d="M 362.03867196751236 1357.6450198781713 L362.03867196751236 1267.1353518862932 L452.54833995939043 1267.1353518862932 L452.54833995939043 1357.6450198781713 Z" style="fill:rgb(31, 16, 5, 255)" />
  <path d="M 452.54833995939043 1357.6450198781713 L452.54833995939043 1267.1353518862932 L543.0580079512686 1267.1353518862932 L543.0580079512686 1357.6450198781713 Z" style="fill:rgb(64, 27, 0, 255)" />
  <path d="M 271.5290039756343 1448.1546878700494 L271.5290039756343 1357.6450198781713 L362.03867196751236 1357.6450198781713 L362.03867196751236 1448.1546878700494 Z" style="fill:rgb(31, 16, 5, 255)" />
  <path d="M 362.03867196751236 1448.1546878700494 L362.03867196751236 1357.6450198781713 L452.54833995939043 1357.6450198781713 L452.54833995939043 1448.1546878700494 Z" style="fill:rgb(64, 27, 0, 255)" />
  <path d="M 905.0966799187809 1538.6643558619276 L814.5870119269028 1538.6643558619276 L814.5870119269028 1448.1546878700494 L814.5870119269028 1357.6450198781713 L905.0966799187809 1357.6450198781713 L905.0966799187809 1448.1546878700494 Z" style="fill:rgb(204, 97, 61, 255)" />
  <path d="M 181.01933598375618 1538.6643558619276 L181.01933598375618 1448.1546878700494 L271.5290039756343 1448.1546878700494 L271.5290039756343 1538.6643558619276 Z" style="fill:rgb(31, 16, 5, 255)" />
  <path d="M 271.5290039756343 1538.6643558619276 L271.5290039756343 1448.1546878700494 L362.03867196751236 1448.1546878700494 L362.03867196751236 1538.6643558619276 Z" style="fill:rgb(64, 27, 0, 255)" />
  <path d="M 362.03867196751236 1538.6643558619276 L362.03867196751236 1448.1546878700494 L452.54833995939043 1448.1546878700494 L452.54833995939043 1538.6643558619276 Z" style="fill:rgb(230, 127, 92, 255)" />
  <path d="M 271.5290039756343 1629.1740238538057 L271.5290039756343 1538.6643558619276 L362.03867196751236 1538.6643558619276 L362.03867196751236 1629.1740238538057 Z" style="fill:rgb(31, 16, 5, 255)" />
  <path d="M 362.03867196751236 1629.1740238538057 L362.03867196751236 1538.6643558619276 L452.54833995939043 1538.6643558619276 L452.54833995939043 1629.1740238538057 Z" style="fill:rgb(64, 27, 0, 255)" />
  <path d="M 452.54833995939043 1629.1740238538057 L452.54833995939043 1538.6643558619276 L543.0580079512686 1538.6643558619276 L543.0580079512686 1629.1740238538057 Z" style="fill:rgb(230, 127, 92, 255)" />
  <path d="M 2443.7610357807084 1719.6836918456836 L2353.2513677888305 1719.6836918456836 L1086.1160159025371 1719.6836918456836 L1086.1160159025371 1629.1740238538057 L1176.6256838944153 1629.1740238538057 L2443.7610357807084 1629.1740238538057 L2443.7610357807084 1719.6836918456836 L2353.2513677888305 1719.6836918456836 L2353.2513677888305 1629.1740238538057 L2353.2513677888305 1538.6643558619276 L2443.7610357807084 1538.6643558619276 L2443.7610357807084 1629.1740238538057 Z" style="fill:rgb(230, 127, 92, 255)" />
  <path d="M 362.03867196751236 1719.6836918456836 L362.03867196751236 1629.1740238538057 L452.54833995939043 1629.1740238538057 L452.54833995939043 1719.6836918456836 Z" style="fill:rgb(31, 16, 5, 255)" />
  <path d="M 452.54833995939043 1719.6836918456836 L452.54833995939043 1629.1740238538057 L543.0580079512686 1629.1740238538057 L543.0580079512686 1719.6836918456836 Z" style="fill:rgb(64, 27, 0, 255)" />
  <path d="M 543.0580079512686 1719.6836918456836 L543.0580079512686 1629.1740238538057 L633.5676759431466 1629.1740238538057 L633.5676759431466 1719.6836918456836 Z" style="fill:rgb(230, 127, 92, 255)" />
  <path d="M 452.54833995939043 1810.1933598375617 L452.54833995939043 1719.6836918456836 L543.0580079512686 1719.6836918456836 L543.0580079512686 1810.1933598375617 Z" style="fill:rgb(31, 16, 5, 255)" />
  <path d="M 543.0580079512686 1810.1933598375617 L543.0580079512686 1719.6836918456836 L633.5676759431466 1719.6836918456836 L633.5676759431466 1810.1933598375617 Z" style="fill:rgb(64, 27, 0, 255)" />
  <path d="M 633.5676759431466 1810.1933598375617 L633.5676759431466 1719.6836918456836 L724.0773439350247 1719.6836918456836 L724.0773439350247 1810.1933598375617 Z" style="fill:rgb(230, 127, 92, 255)" />
  <path d="M 543.0580079512686 1900.7030278294399 L543.0580079512686 1810.1933598375617 L633.5676759431466 1810.1933598375617 L633.5676759431466 1900.7030278294399 Z" style="fill:rgb(31, 16, 5, 255)" />
  <path d="M 633.5676759431466 1900.7030278294399 L633.5676759431466 1810.1933598375617 L724.0773439350247 1810.1933598375617 L724.0773439350247 1900.7030278294399 Z" style="fill:rgb(64, 27, 0, 255)" />
  <path d="M 724.0773439350247 1900.7030278294399 L724.0773439350247 1810.1933598375617 L814.5870119269028 1810.1933598375617 L814.5870119269028 1900.7030278294399 Z" style="fill:rgb(230, 127, 92, 255)" />
  <path d="M 1267.1353518862932 2262.741699796952 L1176.6256838944153 2262.741699796952 L1176.6256838944153 2172.2320318050743 L1176.6256838944153 1810.1933598375617 L1267.1353518862932 1810.1933598375617 L1267.1353518862932 1900.7030278294399 Z" style="fill:rgb(31, 16, 5, 255)" />
  <path d="M 1357.6450198781713 1900.7030278294399 L1267.1353518862932 1900.7030278294399 L1267.1353518862932 1810.1933598375617 L1357.6450198781713 1810.1933598375617 L2534.2707037725863 1810.1933598375617 L2534.2707037725863 1900.7030278294399 L2443.7610357807084 1900.7030278294399 L1267.1353518862932 1900.7030278294399 L1267.1353518862932 1810.1933598375617 L1357.6450198781713 1810.1933598375617 Z" style="fill:rgb(31, 16, 5, 255)" />
  <path d="M 271.5290039756343 2081.722363813196 L181.01933598375618 2081.722363813196 L181.01933598375618 1991.212695821318 L271.5290039756343 1991.212695821318 L362.03867196751236 1991.212695821318 L362.03867196751236 2081.722363813196 L362.03867196751236 2172.2320318050743 L271.5290039756343 2172.2320318050743 L271.5290039756343 2081.722363813196 L362.03867196751236 2081.722363813196 L452.54833995939043 2081.722363813196 L452.54833995939043 2172.2320318050743 L452.54833995939043 2262.741699796952 L362.03867196751236 2262.741699796952 L362.03867196751236 2172.2320318050743 L452.54833995939043 2172.2320318050743 L543.0580079512686 2172.2320318050743 L543.0580079512686 2262.741699796952 L543.0580079512686 2353.2513677888305 L452.54833995939043 2353.2513677888305 L452.54833995939043 2262.741699796952 L543.0580079512686 2262.741699796952 L633.5676759431466 2262.741699796952 L633.5676759431466 2353.2513677888305 L633.5676759431466 2443.7610357807084 L543.0580079512686 2443.7610357807084 L543.0580079512686 2353.2513677888305 L633.5676759431466 2353.2513677888305 L724.0773439350247 2353.2513677888305 L724.0773439350247 2443.7610357807084 L724.0773439350247 2534.2707037725863 L633.5676759431466 2534.2707037725863 L633.5676759431466 2443.7610357807084 L724.0773439350247 2443.7610357807084 L814.5870119269028 2443.7610357807084 L814.5870119269028 2534.2707037725863 L814.5870119269028 2624.7803717644647 L724.0773439350247 2624.7803717644647 L724.0773439350247 2534.2707037725863 L814.5870119269028 2534.2707037725863 L1448.1546878700494 2534.2707037725863 L1448.1546878700494 2624.7803717644647 L1357.6450198781713 2624.7803717644647 L1357.6450198781713 2534.2707037725863 L1357.6450198781713 2443.7610357807084 L1448.1546878700494 2443.7610357807084 L1538.6643558619276 2443.7610357807084 L1538.6643558619276 2534.2707037725863 L1448.1546878700494 2534.2707037725863 L1448.1546878700494 2443.7610357807084 L1448.1546878700494 2081.722363813196 L1538.6643558619276 2081.722363813196 L2715.2900397563426 2081.722363813196 L2715.2900397563426 2172.2320318050743 L2715.2900397563426 2715.2900397563426 L2624.7803717644647 2715.2900397563426 L181.01933598375618 2715.2900397563426 L181.01933598375618 2624.7803717644647 L181.01933598375618 1900.7030278294399 L271.5290039756343 1900.7030278294399 L271.5290039756343 1991.212695821318 Z" style="fill:rgb(0, 0, 0, 0)" />
  <path d="M 633.5676759431466 1991.212695821318 L633.5676759431466 1900.7030278294399 L724.0773439350247 1900.7030278294399 L724.0773439350247 1991.212695821318 Z" style="fill:rgb(31, 16, 5, 255)" />
  <path d="M 724.0773439350247 1991.212695821318 L724.0773439350247 1900.7030278294399 L814.5870119269028 1900.7030278294399 L814.5870119269028 1991.212695821318 Z" style="fill:rgb(64, 27, 0, 255)" />
  <path d="M 814.5870119269028 1991.212695821318 L814.5870119269028 1900.7030278294399 L905.0966799187809 1900.7030278294399 L905.0966799187809 1991.212695821318 Z" style="fill:rgb(230, 127, 92, 255)" />
  <path d="M 724.0773439350247 2081.722363813196 L724.0773439350247 1991.212695821318 L814.5870119269028 1991.212695821318 L814.5870119269028 2081.722363813196 Z" style="fill:rgb(31, 16, 5, 255)" />
  <path d="M 814.5870119269028 2081.722363813196 L814.5870119269028 1991.212695821318 L905.0966799187809 1991.212695821318 L905.0966799187809 2081.722363813196 Z" style="fill:rgb(64, 27, 0, 255)" />
  <path d="M 905.0966799187809 2081.722363813196 L905.0966799187809 1991.212695821318 L995.606347910659 1991.212695821318 L995.606347910659 2081.722363813196 Z" style="fill:rgb(230, 127, 92, 255)" />
  <path d="M 814.5870119269028 2172.2320318050743 L814.5870119269028 2081.722363813196 L905.0966799187809 2081.722363813196 L905.0966799187809 2172.2320318050743 Z" style="fill:rgb(31, 16, 5, 255)" />
  <path d="M 905.0966799187809 2172.2320318050743 L905.0966799187809 2081.722363813196 L995.606347910659 2081.722363813196 L995.606347910659 2172.2320318050743 Z" style="fill:rgb(64, 27, 0, 255)" />
  <path d="M 995.606347910659 2172.2320318050743 L995.606347910659 2081.722363813196 L1086.1160159025371 2081.722363813196 L1086.1160159025371 2172.2320318050743 Z" style="fill:rgb(230, 127, 92, 255)" />
  <path d="M 362.03867196751236 2353.2513677888305 L271.5290039756343 2353.2513677888305 L271.5290039756343 2262.741699796952 L362.03867196751236 2262.741699796952 L452.54833995939043 2262.741699796952 L452.54833995939043 2353.2513677888305 L452.54833995939043 2443.7610357807084 L362.03867196751236 2443.7610357807084 L362.03867196751236 2353.2513677888305 L452.54833995939043 2353.2513677888305 L543.0580079512686 2353.2513677888305 L543.0580079512686 2443.7610357807084 L543.0580079512686 2534.2707037725863 L452.54833995939043 2534.2707037725863 L452.54833995939043 2443.7610357807084 L543.0580079512686 2443.7610357807084 L633.5676759431466 2443.7610357807084 L633.5676759431466 2534.2707037725863 L633.5676759431466 2624.7803717644647 L543.0580079512686 2624.7803717644647 L543.0580079512686 2534.2707037725863 L633.5676759431466 2534.2707037725863 L724.0773439350247 2534.2707037725863 L724.0773439350247 2624.7803717644647 L633.5676759431466 2624.7803717644647 L271.5290039756343 2624.7803717644647 L271.5290039756343 2534.2707037725863 L271.5290039756343 2172.2320318050743 L362.03867196751236 2172.2320318050743 L362.03867196751236 2262.741699796952 Z" style="fill:rgb(0, 0, 0, 0)" />
  <path d="M 905.0966799187809 2262.741699796952 L905.0966799187809 2172.2320318050743 L995.606347910659 2172.2320318050743 L995.606347910659 2262.741699796952 Z" style="fill:rgb(31, 16, 5, 255)" />
  <path d="M 1629.1740238538057 2353.2513677888305 L1538.6643558619276 2353.2513677888305 L1538.6643558619276 2262.741699796952 L1629.1740238538057 2262.741699796952 L1719.6836918456836 2262.741699796952 L1719.6836918456836 2353.2513677888305 L1629.1740238538057 2353.2513677888305 L1629.1740238538057 2262.741699796952 L1629.1740238538057 2172.2320318050743 L1719.6836918456836 2172.2320318050743 L1719.6836918456836 2262.741699796952 L1629.1740238538057 2262.741699796952 L1538.6643558619276 2262.741699796952 L1538.6643558619276 2172.2320318050743 L1629.1740238538057 2172.2320318050743 L1629.1740238538057 2262.741699796952 Z" style="fill:rgb(0, 0, 0, 0)" />
  <path d="M 1810.1933598375617 2353.2513677888305 L1719.6836918456836 2353.2513677888305 L1719.6836918456836 2262.741699796952 L1810.1933598375617 2262.741699796952 L1900.7030278294399 2262.741699796952 L1900.7030278294399 2353.2513677888305 L1810.1933598375617 2353.2513677888305 L1810.1933598375617 2262.741699796952 L1810.1933598375617 2172.2320318050743 L1900.7030278294399 2172.2320318050743 L1900.7030278294399 2262.741699796952 L1810.1933598375617 2262.741699796952 L1719.6836918456836 2262.741699796952 L1719.6836918456836 2172.2320318050743 L1810.1933598375617 2172.2320318050743 L1810.1933598375617 2262.741699796952 Z" style="fill:rgb(0, 0, 0, 0)" />
  <path d="M 1991.212695821318 2353.2513677888305 L1900.7030278294399 2353.2513677888305 L1900.7030278294399 2262.741699796952 L1991.212695821318 2262.741699796952 L2081.722363813196 2262.741699796952 L2081.722363813196 2353.2513677888305 L1991.212695821318 2353.2513677888305 L1991.212695821318 2262.741699796952 L1991.212695821318 2172.2320318050743 L2081.722363813196 2172.2320318050743 L2081.722363813196 2262.741699796952 L1991.212695821318 2262.741699796952 L1900.7030278294399 2262.741699796952 L1900.7030278294399 2172.2320318050743 L1991.212695821318 2172.2320318050743 L1991.212695821318 2262.741699796952 Z" style="fill:rgb(0, 0, 0, 0)" />
  <path d="M 2172.2320318050743 2353.2513677888305 L2081.722363813196 2353.2513677888305 L2081.722363813196 2262.741699796952 L2172.2320318050743 2262.741699796952 L2262.741699796952 2262.741699796952 L2262.741699796952 2353.2513677888305 L2172.2320318050743 2353.2513677888305 L2172.2320318050743 2262.741699796952 L2172.2320318050743 2172.2320318050743 L2262.741699796952 2172.2320318050743 L2262.741699796952 2262.741699796952 L2172.2320318050743 2262.741699796952 L2081.722363813196 2262.741699796952 L2081.722363813196 2172.2320318050743 L2172.2320318050743 2172.2320318050743 L2172.2320318050743 2262.741699796952 Z" style="fill:rgb(0, 0, 0, 0)" />
  <path d="M 2353.2513677888305 2353.2513677888305 L2262.741699796952 2353.2513677888305 L2262.741699796952 2262.741699796952 L2353.2513677888305 2262.741699796952 L2443.7610357807084 2262.741699796952 L2443.7610357807084 2353.2513677888305 L2353.2513677888305 2353.2513677888305 L2353.2513677888305 2262.741699796952 L2353.2513677888305 2172.2320318050743 L2443.7610357807084 2172.2320318050743 L2443.7610357807084 2262.741699796952 L2353.2513677888305 2262.741699796952 L2262.741699796952 2262.741699796952 L2262.741699796952 2172.2320318050743 L2353.2513677888305 2172.2320318050743 L2353.2513677888305 2262.741699796952 Z" style="fill:rgb(0, 0, 0, 0)" />
  <path d="M 2534.2707037725863 2353.2513677888305 L2443.7610357807084 2353.2513677888305 L2443.7610357807084 2262.741699796952 L2534.2707037725863 2262.741699796952 L2624.7803717644647 2262.741699796952 L2624.7803717644647 2353.2513677888305 L2534.2707037725863 2353.2513677888305 L2534.2707037725863 2262.741699796952 L2534.2707037725863 2172.2320318050743 L2624.7803717644647 2172.2320318050743 L2624.7803717644647 2262.741699796952 L2534.2707037725863 2262.741699796952 L2443.7610357807084 2262.741699796952 L2443.7610357807084 2172.2320318050743 L2534.2707037725863 2172.2320318050743 L2534.2707037725863 2262.741699796952 Z" style="fill:rgb(0, 0, 0, 0)" />
  <path d="M 1086.1160159025371 2353.2513677888305 L995.606347910659 2353.2513677888305 L995.606347910659 2262.741699796952 L1086.1160159025371 2262.741699796952 L1176.6256838944153 2262.741699796952 L1176.6256838944153 2353.2513677888305 L1086.1160159025371 2353.2513677888305 L995.606347910659 2353.2513677888305 L995.606347910659 2262.741699796952 L1086.1160159025371 2262.741699796952 Z" style="fill:rgb(31, 16, 5, 255)" />
  <path d="M 1629.1740238538057 2534.2707037725863 L1538.6643558619276 2534.2707037725863 L1538.6643558619276 2443.7610357807084 L1629.1740238538057 2443.7610357807084 L1719.6836918456836 2443.7610357807084 L1719.6836918456836 2534.2707037725863 L1629.1740238538057 2534.2707037725863 L1629.1740238538057 2443.7610357807084 L1629.1740238538057 2353.2513677888305 L1719.6836918456836 2353.2513677888305 L1719.6836918456836 2443.7610357807084 L1629.1740238538057 2443.7610357807084 L1538.6643558619276 2443.7610357807084 L1538.6643558619276 2353.2513677888305 L1629.1740238538057 2353.2513677888305 L1629.1740238538057 2443.7610357807084 Z" style="fill:rgb(0, 0, 0, 0)" />
  <path d="M 1810.1933598375617 2534.2707037725863 L1719.6836918456836 2534.2707037725863 L1719.6836918456836 2443.7610357807084 L1810.1933598375617 2443.7610357807084 L1900.7030278294399 2443.7610357807084 L1900.7030278294399 2534.2707037725863 L1810.1933598375617 2534.2707037725863 L1810.1933598375617 2443.7610357807084 L1810.1933598375617 2353.2513677888305 L1900.7030278294399 2353.2513677888305 L1900.7030278294399 2443.7610357807084 L1810.1933598375617 2443.7610357807084 L1719.6836918456836 2443.7610357807084 L1719.6836918456836 2353.2513677888305 L1810.1933598375617 2353.2513677888305 L1810.1933598375617 2443.7610357807084 Z" style="fill:rgb(0, 0, 0, 0)" />
  <path d="M 1991.212695821318 2534.2707037725863 L1900.7030278294399 2534.2707037725863 L1900.7030278294399 2443.7610357807084 L1991.212695821318 2443.7610357807084 L2081.722363813196 2443.7610357807084 L2081.722363813196 2534.2707037725863 L1991.212695821318 2534.2707037725863 L1991.212695821318 2443.7610357807084 L1991.212695821318 2353.2513677888305 L2081.722363813196 2353.2513677888305 L2081.722363813196 2443.7610357807084 L1991.212695821318 2443.7610357807084 L1900.7030278294399 2443.7610357807084 L1900.7030278294399 2353.2513677888305 L1991.212695821318 2353.2513677888305 L1991.212695821318 2443.7610357807084 Z" style="fill:rgb(0, 0, 0, 0)" />
  <path d="M 2172.2320318050743 2534.2707037725863 L2081.722363813196 2534.2707037725863 L2081.722363813196 2443.7610357807084 L2172.2320318050743 2443.7610357807084 L2262.741699796952 2443.7610357807084 L2262.741699796952 2534.2707037725863 L2172.2320318050743 2534.2707037725863 L2172.2320318050743 2443.7610357807084 L2172.2320318050743 2353.2513677888305 L2262.741699796952 2353.2513677888305 L2262.741699796952 2443.7610357807084 L2172.2320318050743 2443.7610357807084 L2081.722363813196 2443.7610357807084 L2081.722363813196 2353.2513677888305 L2172.2320318050743 2353.2513677888305 L2172.2320318050743 2443.7610357807084 Z" style="fill:rgb(0, 0, 0, 0)" />
  <path d="M 2353.2513677888305 2534.2707037725863 L2262.741699796952 2534.2707037725863 L2262.741699796952 2443.7610357807084 L2353.2513677888305 2443.7610357807084 L2443.7610357807084 2443.7610357807084 L2443.7610357807084 2534.2707037725863 L2353.2513677888305 2534.2707037725863 L2353.2513677888305 2443.7610357807084 L2353.2513677888305 2353.2513677888305 L2443.7610357807084 2353.2513677888305 L2443.7610357807084 2443.7610357807084 L2353.2513677888305 2443.7610357807084 L2262.741699796952 2443.7610357807084 L2262.741699796952 2353.2513677888305 L2353.2513677888305 2353.2513677888305 L2353.2513677888305 2443.7610357807084 Z" style="fill:rgb(0, 0, 0, 0)" />
  <path d="M 2534.2707037725863 2534.2707037725863 L2443.7610357807084 2534.2707037725863 L2443.7610357807084 2443.7610357807084 L2534.2707037725863 2443.7610357807084 L2624.7803717644647 2443.7610357807084 L2624.7803717644647 2534.2707037725863 L2534.2707037725863 2534.2707037725863 L2534.2707037725863 2443.7610357807084 L2534.2707037725863 2353.2513677888305 L2624.7803717644647 2353.2513677888305 L2624.7803717644647 2443.7610357807084 L2534.2707037725863 2443.7610357807084 L2443.7610357807084 2443.7610357807084 L2443.7610357807084 2353.2513677888305 L2534.2707037725863 2353.2513677888305 L2534.2707037725863 2443.7610357807084 Z" style="fill:rgb(0, 0, 0, 0)" />
  <path d="M 362.03867196751236 2534.2707037725863 L362.03867196751236 2443.7610357807084 L452.54833995939043 2443.7610357807084 L452.54833995939043 2534.2707037725863 Z" style="fill:rgb(0, 0, 0, 0)" />
  <path d="M 1538.6643558619276 2624.7803717644647 L1448.1546878700494 2624.7803717644647 L1448.1546878700494 2534.2707037725863 L1538.6643558619276 2534.2707037725863 L2624.7803717644647 2534.2707037725863 L2624.7803717644647 2624.7803717644647 L2534.2707037725863 2624.7803717644647 L1448.1546878700494 2624.7803717644647 L1448.1546878700494 2534.2707037725863 L1538.6643558619276 2534.2707037725863 Z" style="fill:rgb(0, 0, 0, 0)" />
</svg>
