<svg width="1440" height="640" viewBox="0 0 1440 640" fill="none" xmlns="http://www.w3.org/2000/svg">
<g clip-path="url(#clip0_51_191)">
<rect width="1440" height="640" fill="#3C2A2A"/>
<path d="M191.271 3.00037L191.271 10.4353L122.96 10.4353L122.96 3.00036L191.271 3.00037Z" fill="#362424"/>
<path d="M150.285 10.4353L150.285 17.8703L122.96 17.8703L122.96 10.4353L150.285 10.4353Z" fill="#362424"/>
<path d="M218.596 69.9151L218.596 77.3501L177.609 77.3501L177.609 69.9151L218.596 69.9151Z" fill="#362424"/>
<path d="M136.622 17.8703L136.622 69.9151L122.96 69.9151L122.96 17.8703L136.622 17.8703Z" fill="#362424"/>
<path d="M27.3242 69.9151L27.3242 77.3501L-0.000261666 77.3501L-0.000261068 69.9151L27.3242 69.9151Z" fill="#362424"/>
<path d="M40.9866 77.35L40.9866 84.785L-0.000145079 84.785L-0.000144482 77.35L40.9866 77.35Z" fill="#362424"/>
<path d="M95.6355 141.291L95.6355 148.726L27.3243 148.726L27.3243 141.291L95.6355 141.291Z" fill="#362424"/>
<path d="M68.3113 148.726L68.3113 156.161L27.3246 156.161L27.3246 148.726L68.3113 148.726Z" fill="#362424"/>
<path d="M95.6355 156.161L95.6355 163.596L68.311 163.596L68.311 156.161L95.6355 156.161Z" fill="#362424"/>
<path d="M13.6619 96.6811L13.6619 148.726L-0.000378855 148.726L-0.000374675 96.6811L13.6619 96.6811Z" fill="#362424"/>
<path d="M27.3242 116.012L27.3242 168.056L13.662 168.056L13.662 116.012L27.3242 116.012Z" fill="#362424"/>
<path d="M642.125 17.8703L642.125 40.1752L628.463 40.1752L628.463 17.8703L642.125 17.8703Z" fill="#362424"/>
<path d="M568.349 17.8703L568.349 40.1752L554.687 40.1752L554.687 17.8703L568.349 17.8703Z" fill="#362424"/>
<path d="M568.349 47.6103L568.349 55.0453L554.687 55.0453L554.687 47.6103L568.349 47.6103Z" fill="#362424"/>
<path d="M609.335 55.0452L609.335 62.4802L595.673 62.4802L595.673 55.0452L609.335 55.0452Z" fill="#362424"/>
<path d="M554.686 17.8703L554.686 47.6102L541.024 47.6102L541.024 17.8703L554.686 17.8703Z" fill="#362424"/>
<path d="M587.476 3.00037L587.476 10.4353L491.841 10.4353L491.841 3.00036L587.476 3.00037Z" fill="#362424"/>
<path d="M691.309 3.00037L691.309 10.4353L650.322 10.4353L650.322 3.00037L691.309 3.00037Z" fill="#362424"/>
<path d="M655.787 10.4353L655.787 17.8703L532.827 17.8703L532.827 10.4353L655.787 10.4353Z" fill="#362424"/>
<path d="M1143.49 17.8703L1143.49 40.1752L1115.55 40.1752L1115.55 17.8703L1143.49 17.8703Z" fill="#362424"/>
<path d="M992.603 17.8703L992.603 40.1752L964.662 40.1752L964.662 17.8703L992.603 17.8703Z" fill="#362424"/>
<path d="M992.603 47.6103L992.603 55.0453L964.662 55.0453L964.662 47.6103L992.603 47.6103Z" fill="#362424"/>
<path d="M1076.43 55.0452L1076.43 62.4802L1048.49 62.4802L1048.49 55.0452L1076.43 55.0452Z" fill="#362424"/>
<path d="M964.661 17.8703L964.661 47.6102L936.719 47.6102L936.719 17.8703L964.661 17.8703Z" fill="#362424"/>
<path d="M1031.72 3.00037L1031.72 10.4353L836.129 10.4353L836.129 3.00036L1031.72 3.00037Z" fill="#362424"/>
<path d="M1240.53 3.00037L1240.53 10.4353L1156.71 10.4353L1156.71 3.00036L1240.53 3.00037Z" fill="#362424"/>
<path d="M1171.43 10.4353L1171.43 17.8703L919.954 17.8703L919.954 10.4353L1171.43 10.4353Z" fill="#362424"/>
<path d="M278.709 3.00037L278.709 40.1752L265.047 40.1752L265.047 3.00037L278.709 3.00037Z" fill="#362424"/>
<path d="M347.021 3.00037L347.021 32.7402L333.358 32.7402L333.358 3.00037L347.021 3.00037Z" fill="#362424"/>
<path d="M333.358 10.4353L333.358 25.3052L319.696 25.3052L319.696 10.4353L333.358 10.4353Z" fill="#362424"/>
<path d="M319.696 10.4353L319.696 17.8703L278.709 17.8703L278.709 10.4353L319.696 10.4353Z" fill="#362424"/>
<path d="M420.797 3.00037L420.797 10.4353L360.683 10.4353L360.683 3.00036L420.797 3.00037Z" fill="#362424"/>
<path d="M360.682 3.00037L360.682 17.8703L347.02 17.8703L347.02 3.00037L360.682 3.00037Z" fill="#362424"/>
<path d="M1412.68 114.887L1371.69 114.887L1371.69 104.715L1412.68 104.715L1412.68 114.887Z" fill="#362424"/>
<path d="M1412.68 59.9605L1371.69 59.9605L1371.69 49.789L1412.68 49.789L1412.68 59.9605Z" fill="#362424"/>
<path d="M1358.03 59.9605L1344.36 59.9605L1344.36 49.789L1358.03 49.789L1358.03 59.9605Z" fill="#362424"/>
<path d="M1344.36 90.4749L1330.7 90.4749L1330.7 80.3034L1344.36 80.3034L1344.36 90.4749Z" fill="#362424"/>
<path d="M1412.68 49.7889L1358.03 49.7889L1358.03 39.6175L1412.68 39.6175L1412.68 49.7889Z" fill="#362424"/>
<path d="M1440 74.2004L1426.34 74.2004L1426.34 3.00005L1440 3.00005L1440 74.2004Z" fill="#362424"/>
<path d="M1440 150.213L1426.34 150.213L1426.34 119.698L1440 119.698L1440 150.213Z" fill="#362424"/>
<path d="M1426.34 125.058L1412.68 125.058L1412.68 33.5145L1426.34 33.5145L1426.34 125.058Z" fill="#362424"/>
<path d="M1248.73 640L1248.73 632.565L1317.04 632.565L1317.04 640L1248.73 640Z" fill="#362424"/>
<path d="M1289.72 632.565L1289.72 625.13L1317.04 625.13L1317.04 632.565L1289.72 632.565Z" fill="#362424"/>
<path d="M1221.4 573.085L1221.4 565.65L1262.39 565.65L1262.39 573.085L1221.4 573.085Z" fill="#362424"/>
<path d="M1303.38 625.13L1303.38 573.085L1317.04 573.085L1317.04 625.13L1303.38 625.13Z" fill="#362424"/>
<path d="M1412.68 573.085L1412.68 565.65L1440 565.65L1440 573.085L1412.68 573.085Z" fill="#362424"/>
<path d="M1399.01 565.65L1399.01 558.215L1440 558.215L1440 565.65L1399.01 565.65Z" fill="#362424"/>
<path d="M1344.36 501.709L1344.36 494.275L1412.67 494.275L1412.67 501.709L1344.36 501.709Z" fill="#362424"/>
<path d="M1371.69 494.275L1371.69 486.84L1412.67 486.84L1412.67 494.275L1371.69 494.275Z" fill="#362424"/>
<path d="M1344.36 486.839L1344.36 479.404L1371.69 479.404L1371.69 486.839L1344.36 486.839Z" fill="#362424"/>
<path d="M1426.34 546.319L1426.34 494.274L1440 494.274L1440 546.319L1426.34 546.319Z" fill="#362424"/>
<path d="M1412.68 526.988L1412.68 474.944L1426.34 474.944L1426.34 526.988L1412.68 526.988Z" fill="#362424"/>
<path d="M797.874 625.13L797.874 602.825L811.536 602.825L811.536 625.13L797.874 625.13Z" fill="#362424"/>
<path d="M871.65 625.13L871.65 602.825L885.313 602.825L885.313 625.13L871.65 625.13Z" fill="#362424"/>
<path d="M871.65 595.39L871.65 587.955L885.313 587.955L885.313 595.39L871.65 595.39Z" fill="#362424"/>
<path d="M830.664 587.955L830.664 580.52L844.326 580.52L844.326 587.955L830.664 587.955Z" fill="#362424"/>
<path d="M885.313 625.13L885.313 595.39L898.975 595.39L898.975 625.13L885.313 625.13Z" fill="#362424"/>
<path d="M852.523 640L852.523 632.565L948.159 632.565L948.159 640L852.523 640Z" fill="#362424"/>
<path d="M748.69 640L748.69 632.565L789.677 632.565L789.677 640L748.69 640Z" fill="#362424"/>
<path d="M784.212 632.565L784.212 625.13L907.172 625.13L907.172 632.565L784.212 632.565Z" fill="#362424"/>
<path d="M296.511 625.13L296.511 602.825L324.453 602.825L324.453 625.13L296.511 625.13Z" fill="#362424"/>
<path d="M447.396 625.13L447.396 602.825L475.338 602.825L475.338 625.13L447.396 625.13Z" fill="#362424"/>
<path d="M447.396 595.39L447.396 587.955L475.338 587.955L475.338 595.39L447.396 595.39Z" fill="#362424"/>
<path d="M363.571 587.955L363.571 580.52L391.513 580.52L391.513 587.955L363.571 587.955Z" fill="#362424"/>
<path d="M475.339 625.13L475.339 595.39L503.28 595.39L503.28 625.13L475.339 625.13Z" fill="#362424"/>
<path d="M408.278 640L408.278 632.565L603.871 632.565L603.871 640L408.278 640Z" fill="#362424"/>
<path d="M199.468 640L199.468 632.565L283.294 632.565L283.294 640L199.468 640Z" fill="#362424"/>
<path d="M268.57 632.565L268.57 625.13L520.046 625.13L520.046 632.565L268.57 632.565Z" fill="#362424"/>
<path d="M1161.29 640L1161.29 602.825L1174.95 602.825L1174.95 640L1161.29 640Z" fill="#362424"/>
<path d="M1092.98 640L1092.98 610.26L1106.64 610.26L1106.64 640L1092.98 640Z" fill="#362424"/>
<path d="M1106.64 632.565L1106.64 617.695L1120.3 617.695L1120.3 632.565L1106.64 632.565Z" fill="#362424"/>
<path d="M1120.3 632.565L1120.3 625.13L1161.29 625.13L1161.29 632.565L1120.3 632.565Z" fill="#362424"/>
<path d="M1019.2 640L1019.2 632.565L1079.32 632.565L1079.32 640L1019.2 640Z" fill="#362424"/>
<path d="M1079.32 640L1079.32 625.13L1092.98 625.13L1092.98 640L1079.32 640Z" fill="#362424"/>
<path d="M27.3242 528.113L68.3109 528.113L68.3109 538.285L27.3242 538.285L27.3242 528.113Z" fill="#362424"/>
<path d="M27.3242 583.04L68.3109 583.04L68.3109 593.211L27.3242 593.211L27.3242 583.04Z" fill="#362424"/>
<path d="M81.9727 583.04L95.6349 583.04L95.6349 593.211L81.9727 593.211L81.9727 583.04Z" fill="#362424"/>
<path d="M95.635 552.525L109.297 552.525L109.297 562.697L95.635 562.697L95.635 552.525Z" fill="#362424"/>
<path d="M27.3242 593.211L81.9732 593.211L81.9732 603.383L27.3242 603.383L27.3242 593.211Z" fill="#362424"/>
<path d="M-0.000488281 568.8L13.6618 568.8L13.6617 640L-0.000499719 640L-0.000488281 568.8Z" fill="#362424"/>
<path d="M-0.000488281 492.787L13.6618 492.787L13.6617 523.302L-0.000493183 523.302L-0.000488281 492.787Z" fill="#362424"/>
<path d="M13.6614 517.942L27.3236 517.942L27.3236 609.486L13.6614 609.486L13.6614 517.942Z" fill="#362424"/>
</g>
<defs>
<clipPath id="clip0_51_191">
<rect width="1440" height="640" fill="white"/>
</clipPath>
</defs>
</svg>
