<svg width="22" height="22" viewBox="0 0 22 22" fill="none" xmlns="http://www.w3.org/2000/svg">
<path d="M4 1H5V2H4V1Z" fill="#CC613D"/>
<path d="M4 2H5V3H4V2Z" fill="#CC613D"/>
<path d="M5 3H6V4H5V3Z" fill="#CC613D"/>
<path d="M6 4H7V5H6V4Z" fill="#CC613D"/>
<path d="M7 5H8V6H7V5Z" fill="#CC613D"/>
<path d="M8 6H9V7H8V6Z" fill="#CC613D"/>
<path d="M9 7H10V8H9V7Z" fill="#CC613D"/>
<path d="M5 2H6V3H5V2Z" fill="#CC613D"/>
<path d="M6 3H7V4H6V3Z" fill="#CC613D"/>
<path d="M7 4H8V5H7V4Z" fill="#CC613D"/>
<path d="M8 5H9V6H8V5Z" fill="#CC613D"/>
<path d="M9 6H10V7H9V6Z" fill="#CC613D"/>
<path d="M10 7H11V14H10V7Z" fill="#CC613D"/>
<path d="M3 2H4V3H3V2Z" fill="#CC613D"/>
<path d="M3 3H4V4H3V3Z" fill="#CC613D"/>
<path d="M4 4H5V5H4V4Z" fill="#CC613D"/>
<path d="M5 5H6V6H5V5Z" fill="#CC613D"/>
<path d="M6 6H7V7H6V6Z" fill="#CC613D"/>
<path d="M7 7H8V8H7V7Z" fill="#CC613D"/>
<path d="M8 8H9V9H8V8Z" fill="#CC613D"/>
<path d="M4 3H5V4H4V3Z" fill="#CC613D"/>
<path d="M5 4H6V5H5V4Z" fill="#CC613D"/>
<path d="M6 5H7V6H6V5Z" fill="#CC613D"/>
<path d="M7 6H8V7H7V6Z" fill="#CC613D"/>
<path d="M8 7H9V8H8V7Z" fill="#CC613D"/>
<path d="M9 8H10V13H9V8Z" fill="#CC613D"/>
<path d="M2 3H3V4H2V3Z" fill="#CC613D"/>
<path d="M2 4H3V5H2V4Z" fill="#CC613D"/>
<path d="M3 5H4V6H3V5Z" fill="#CC613D"/>
<path d="M4 6H5V7H4V6Z" fill="#CC613D"/>
<path d="M5 7H6V8H5V7Z" fill="#CC613D"/>
<path d="M6 8H7V9H6V8Z" fill="#CC613D"/>
<path d="M7 9H8V10H7V9Z" fill="#CC613D"/>
<path d="M3 4H4V5H3V4Z" fill="#CC613D"/>
<path d="M4 5H5V6H4V5Z" fill="#CC613D"/>
<path d="M5 6H6V7H5V6Z" fill="#CC613D"/>
<path d="M6 7H7V8H6V7Z" fill="#CC613D"/>
<path d="M7 8H8V9H7V8Z" fill="#CC613D"/>
<path d="M8 9H9V12H8V9Z" fill="#CC613D"/>
<path d="M1 4H2V5H1V4Z" fill="#CC613D"/>
<path d="M2 5H3V6H2V5Z" fill="#CC613D"/>
<path d="M3 6H4V7H3V6Z" fill="#CC613D"/>
<path d="M4 7H5V8H4V7Z" fill="#CC613D"/>
<path d="M5 8H6V9H5V8Z" fill="#CC613D"/>
<path d="M6 9H7V10H6V9Z" fill="#CC613D"/>
<path d="M7 10H8V11H7V10Z" fill="#CC613D"/>
<path d="M18 1H17V2H18V1Z" fill="#CC613D"/>
<path d="M18 2H17V3H18V2Z" fill="#CC613D"/>
<path d="M17 3H16V4H17V3Z" fill="#CC613D"/>
<path d="M16 4H15V5H16V4Z" fill="#CC613D"/>
<path d="M15 5H14V6H15V5Z" fill="#CC613D"/>
<path d="M14 6H13V7H14V6Z" fill="#CC613D"/>
<path d="M13 7H12V8H13V7Z" fill="#CC613D"/>
<path d="M17 2H16V3H17V2Z" fill="#CC613D"/>
<path d="M16 3H15V4H16V3Z" fill="#CC613D"/>
<path d="M15 4H14V5H15V4Z" fill="#CC613D"/>
<path d="M14 5H13V6H14V5Z" fill="#CC613D"/>
<path d="M13 6H12V7H13V6Z" fill="#CC613D"/>
<path d="M12 7H11V14H12V7Z" fill="#CC613D"/>
<path d="M19 2H18V3H19V2Z" fill="#CC613D"/>
<path d="M19 3H18V4H19V3Z" fill="#CC613D"/>
<path d="M18 4H17V5H18V4Z" fill="#CC613D"/>
<path d="M17 5H16V6H17V5Z" fill="#CC613D"/>
<path d="M16 6H15V7H16V6Z" fill="#CC613D"/>
<path d="M15 7H14V8H15V7Z" fill="#CC613D"/>
<path d="M14 8H13V9H14V8Z" fill="#CC613D"/>
<path d="M18 3H17V4H18V3Z" fill="#CC613D"/>
<path d="M17 4H16V5H17V4Z" fill="#CC613D"/>
<path d="M16 5H15V6H16V5Z" fill="#CC613D"/>
<path d="M15 6H14V7H15V6Z" fill="#CC613D"/>
<path d="M14 7H13V8H14V7Z" fill="#CC613D"/>
<path d="M13 8H12V13H13V8Z" fill="#CC613D"/>
<path d="M20 4H19V5H20V4Z" fill="#CC613D"/>
<path d="M19 5H18V6H19V5Z" fill="#CC613D"/>
<path d="M18 6H17V7H18V6Z" fill="#CC613D"/>
<path d="M17 7H16V8H17V7Z" fill="#CC613D"/>
<path d="M16 8H15V9H16V8Z" fill="#CC613D"/>
<path d="M15 9H14V10H15V9Z" fill="#CC613D"/>
<path d="M19 4H18V5H19V4Z" fill="#CC613D"/>
<path d="M18 5H17V6H18V5Z" fill="#CC613D"/>
<path d="M17 6H16V7H17V6Z" fill="#CC613D"/>
<path d="M16 7H15V8H16V7Z" fill="#CC613D"/>
<path d="M15 8H14V9H15V8Z" fill="#CC613D"/>
<path d="M14 9H13V12H14V9Z" fill="#CC613D"/>
<path d="M4 20H5V19H4V20Z" fill="#CC613D"/>
<path d="M5 19H6V18H5V19Z" fill="#CC613D"/>
<path d="M6 18H7V17H6V18Z" fill="#CC613D"/>
<path d="M7 17H8V16H7V17Z" fill="#CC613D"/>
<path d="M8 16H9V15H8V16Z" fill="#CC613D"/>
<path d="M9 15H10V14H9V15Z" fill="#CC613D"/>
<path d="M3 19H4V18H3V19Z" fill="#CC613D"/>
<path d="M4 18H5V17H4V18Z" fill="#CC613D"/>
<path d="M5 17H6V16H5V17Z" fill="#CC613D"/>
<path d="M6 16H7V15H6V16Z" fill="#CC613D"/>
<path d="M7 15H8V14H7V15Z" fill="#CC613D"/>
<path d="M8 14H9V13H8V14Z" fill="#CC613D"/>
<path d="M4 19H5V18H4V19Z" fill="#CC613D"/>
<path d="M5 18H6V17H5V18Z" fill="#CC613D"/>
<path d="M6 17H7V16H6V17Z" fill="#CC613D"/>
<path d="M7 16H8V15H7V16Z" fill="#CC613D"/>
<path d="M8 15H9V14H8V15Z" fill="#CC613D"/>
<path d="M9 14H10V13H9V14Z" fill="#CC613D"/>
<path d="M2 19H3V18H2V19Z" fill="#CC613D"/>
<path d="M2 18H3V17H2V18Z" fill="#CC613D"/>
<path d="M3 17H4V16H3V17Z" fill="#CC613D"/>
<path d="M4 16H5V15H4V16Z" fill="#CC613D"/>
<path d="M5 15H6V14H5V15Z" fill="#CC613D"/>
<path d="M6 14H7V13H6V14Z" fill="#CC613D"/>
<path d="M7 13H8V12H7V13Z" fill="#CC613D"/>
<path d="M3 18H4V17H3V18Z" fill="#CC613D"/>
<path d="M4 17H5V16H4V17Z" fill="#CC613D"/>
<path d="M5 16H6V15H5V16Z" fill="#CC613D"/>
<path d="M6 15H7V14H6V15Z" fill="#CC613D"/>
<path d="M7 14H8V13H7V14Z" fill="#CC613D"/>
<path d="M8 13H9V12H8V13Z" fill="#CC613D"/>
<path d="M1 18H2V17H1V18Z" fill="#CC613D"/>
<path d="M2 17H3V16H2V17Z" fill="#CC613D"/>
<path d="M3 16H4V15H3V16Z" fill="#CC613D"/>
<path d="M4 15H5V14H4V15Z" fill="#CC613D"/>
<path d="M5 14H6V13H5V14Z" fill="#CC613D"/>
<path d="M6 13H7V12H6V13Z" fill="#CC613D"/>
<path d="M7 12H8V11H7V12Z" fill="#CC613D"/>
<path d="M18 20H17V19H18V20Z" fill="#CC613D"/>
<path d="M17 19H16V18H17V19Z" fill="#CC613D"/>
<path d="M16 18H15V17H16V18Z" fill="#CC613D"/>
<path d="M15 17H14V16H15V17Z" fill="#CC613D"/>
<path d="M14 16H13V15H14V16Z" fill="#CC613D"/>
<path d="M13 15H12V14H13V15Z" fill="#CC613D"/>
<path d="M19 19H18V18H19V19Z" fill="#CC613D"/>
<path d="M18 18H17V17H18V18Z" fill="#CC613D"/>
<path d="M17 17H16V16H17V17Z" fill="#CC613D"/>
<path d="M16 16H15V15H16V16Z" fill="#CC613D"/>
<path d="M15 15H14V14H15V15Z" fill="#CC613D"/>
<path d="M14 14H13V13H14V14Z" fill="#CC613D"/>
<path d="M18 19H17V18H18V19Z" fill="#CC613D"/>
<path d="M17 18H16V17H17V18Z" fill="#CC613D"/>
<path d="M16 17H15V16H16V17Z" fill="#CC613D"/>
<path d="M15 16H14V15H15V16Z" fill="#CC613D"/>
<path d="M14 15H13V14H14V15Z" fill="#CC613D"/>
<path d="M13 14H12V13H13V14Z" fill="#CC613D"/>
<path d="M20 18H19V17H20V18Z" fill="#CC613D"/>
<path d="M19 17H18V16H19V17Z" fill="#CC613D"/>
<path d="M18 16H17V15H18V16Z" fill="#CC613D"/>
<path d="M17 15H16V14H17V15Z" fill="#CC613D"/>
<path d="M16 14H15V13H16V14Z" fill="#CC613D"/>
<path d="M15 13H14V12H15V13Z" fill="#CC613D"/>
<path d="M19 18H18V17H19V18Z" fill="#CC613D"/>
<path d="M18 17H17V16H18V17Z" fill="#CC613D"/>
<path d="M17 16H16V15H17V16Z" fill="#CC613D"/>
<path d="M16 15H15V14H16V15Z" fill="#CC613D"/>
<path d="M15 14H14V13H15V14Z" fill="#CC613D"/>
<path d="M14 13H13V12H14V13Z" fill="#CC613D"/>
<path d="M20 3H19V4H20V3Z" fill="#E67F5C"/>
<path d="M21 4H20V5H21V4Z" fill="#E67F5C"/>
<path d="M20 5H19V6H20V5Z" fill="#E67F5C"/>
<path d="M19 6H18V7H19V6Z" fill="#E67F5C"/>
<path d="M18 7H17V8H18V7Z" fill="#E67F5C"/>
<path d="M17 8H16V9H17V8Z" fill="#E67F5C"/>
<path d="M16 9H15V10H16V9Z" fill="#E67F5C"/>
<path d="M15 10H14V11H15V10Z" fill="#E67F5C"/>
<path d="M4 21H5V20H4V21Z" fill="#E67F5C"/>
<path d="M5 20H6V19H5V20Z" fill="#E67F5C"/>
<path d="M6 19H7V18H6V19Z" fill="#E67F5C"/>
<path d="M7 18H8V17H7V18Z" fill="#E67F5C"/>
<path d="M8 17H9V16H8V17Z" fill="#E67F5C"/>
<path d="M9 16H10V15H9V16Z" fill="#E67F5C"/>
<path d="M10 15H11V14H10V15Z" fill="#E67F5C"/>
<path d="M3 20H4V19H3V20Z" fill="#E67F5C"/>
<path d="M18 21H17V20H18V21Z" fill="#E67F5C"/>
<path d="M17 20H16V19H17V20Z" fill="#E67F5C"/>
<path d="M16 19H15V18H16V19Z" fill="#E67F5C"/>
<path d="M15 18H14V17H15V18Z" fill="#E67F5C"/>
<path d="M14 17H13V16H14V17Z" fill="#E67F5C"/>
<path d="M13 16H12V15H13V16Z" fill="#E67F5C"/>
<path d="M12 15H11V14H12V15Z" fill="#E67F5C"/>
<path d="M19 20H18V19H19V20Z" fill="#E67F5C"/>
<path d="M20 19H19V18H20V19Z" fill="#E67F5C"/>
<path d="M21 18H20V17H21V18Z" fill="#E67F5C"/>
<path d="M20 17H19V16H20V17Z" fill="#E67F5C"/>
<path d="M19 16H18V15H19V16Z" fill="#E67F5C"/>
<path d="M18 15H17V14H18V15Z" fill="#E67F5C"/>
<path d="M17 14H16V13H17V14Z" fill="#E67F5C"/>
<path d="M16 13H15V12H16V13Z" fill="#E67F5C"/>
<path d="M15 12H14V11H15V12Z" fill="#E67F5C"/>
<mask id="path-3-outside-1_85_4718" maskUnits="userSpaceOnUse" x="0" y="0" width="22" height="22" fill="black">
<rect fill="white" width="22" height="22"/>
<path d="M4 1H5V2H4V1Z"/>
<path d="M4 2H5V3H4V2Z"/>
<path d="M5 3H6V4H5V3Z"/>
<path d="M6 4H7V5H6V4Z"/>
<path d="M7 5H8V6H7V5Z"/>
<path d="M8 6H9V7H8V6Z"/>
<path d="M9 7H10V8H9V7Z"/>
<path d="M5 2H6V3H5V2Z"/>
<path d="M6 3H7V4H6V3Z"/>
<path d="M7 4H8V5H7V4Z"/>
<path d="M8 5H9V6H8V5Z"/>
<path d="M9 6H10V7H9V6Z"/>
<path d="M10 7H11V14H10V7Z"/>
<path d="M3 2H4V3H3V2Z"/>
<path d="M3 3H4V4H3V3Z"/>
<path d="M4 4H5V5H4V4Z"/>
<path d="M5 5H6V6H5V5Z"/>
<path d="M6 6H7V7H6V6Z"/>
<path d="M7 7H8V8H7V7Z"/>
<path d="M8 8H9V9H8V8Z"/>
<path d="M4 3H5V4H4V3Z"/>
<path d="M5 4H6V5H5V4Z"/>
<path d="M6 5H7V6H6V5Z"/>
<path d="M7 6H8V7H7V6Z"/>
<path d="M8 7H9V8H8V7Z"/>
<path d="M9 8H10V13H9V8Z"/>
<path d="M2 3H3V4H2V3Z"/>
<path d="M2 4H3V5H2V4Z"/>
<path d="M3 5H4V6H3V5Z"/>
<path d="M4 6H5V7H4V6Z"/>
<path d="M5 7H6V8H5V7Z"/>
<path d="M6 8H7V9H6V8Z"/>
<path d="M7 9H8V10H7V9Z"/>
<path d="M3 4H4V5H3V4Z"/>
<path d="M4 5H5V6H4V5Z"/>
<path d="M5 6H6V7H5V6Z"/>
<path d="M6 7H7V8H6V7Z"/>
<path d="M7 8H8V9H7V8Z"/>
<path d="M8 9H9V12H8V9Z"/>
<path d="M1 4H2V5H1V4Z"/>
<path d="M2 5H3V6H2V5Z"/>
<path d="M3 6H4V7H3V6Z"/>
<path d="M4 7H5V8H4V7Z"/>
<path d="M5 8H6V9H5V8Z"/>
<path d="M6 9H7V10H6V9Z"/>
<path d="M7 10H8V11H7V10Z"/>
<path d="M18 1H17V2H18V1Z"/>
<path d="M18 2H17V3H18V2Z"/>
<path d="M17 3H16V4H17V3Z"/>
<path d="M16 4H15V5H16V4Z"/>
<path d="M15 5H14V6H15V5Z"/>
<path d="M14 6H13V7H14V6Z"/>
<path d="M13 7H12V8H13V7Z"/>
<path d="M17 2H16V3H17V2Z"/>
<path d="M16 3H15V4H16V3Z"/>
<path d="M15 4H14V5H15V4Z"/>
<path d="M14 5H13V6H14V5Z"/>
<path d="M13 6H12V7H13V6Z"/>
<path d="M12 7H11V14H12V7Z"/>
<path d="M19 2H18V3H19V2Z"/>
<path d="M19 3H18V4H19V3Z"/>
<path d="M18 4H17V5H18V4Z"/>
<path d="M17 5H16V6H17V5Z"/>
<path d="M16 6H15V7H16V6Z"/>
<path d="M15 7H14V8H15V7Z"/>
<path d="M14 8H13V9H14V8Z"/>
<path d="M18 3H17V4H18V3Z"/>
<path d="M17 4H16V5H17V4Z"/>
<path d="M16 5H15V6H16V5Z"/>
<path d="M15 6H14V7H15V6Z"/>
<path d="M14 7H13V8H14V7Z"/>
<path d="M13 8H12V13H13V8Z"/>
<path d="M20 4H19V5H20V4Z"/>
<path d="M19 5H18V6H19V5Z"/>
<path d="M18 6H17V7H18V6Z"/>
<path d="M17 7H16V8H17V7Z"/>
<path d="M16 8H15V9H16V8Z"/>
<path d="M15 9H14V10H15V9Z"/>
<path d="M19 4H18V5H19V4Z"/>
<path d="M18 5H17V6H18V5Z"/>
<path d="M17 6H16V7H17V6Z"/>
<path d="M16 7H15V8H16V7Z"/>
<path d="M15 8H14V9H15V8Z"/>
<path d="M14 9H13V12H14V9Z"/>
<path d="M4 20H5V19H4V20Z"/>
<path d="M5 19H6V18H5V19Z"/>
<path d="M6 18H7V17H6V18Z"/>
<path d="M7 17H8V16H7V17Z"/>
<path d="M8 16H9V15H8V16Z"/>
<path d="M9 15H10V14H9V15Z"/>
<path d="M3 19H4V18H3V19Z"/>
<path d="M4 18H5V17H4V18Z"/>
<path d="M5 17H6V16H5V17Z"/>
<path d="M6 16H7V15H6V16Z"/>
<path d="M7 15H8V14H7V15Z"/>
<path d="M8 14H9V13H8V14Z"/>
<path d="M4 19H5V18H4V19Z"/>
<path d="M5 18H6V17H5V18Z"/>
<path d="M6 17H7V16H6V17Z"/>
<path d="M7 16H8V15H7V16Z"/>
<path d="M8 15H9V14H8V15Z"/>
<path d="M9 14H10V13H9V14Z"/>
<path d="M2 19H3V18H2V19Z"/>
<path d="M2 18H3V17H2V18Z"/>
<path d="M3 17H4V16H3V17Z"/>
<path d="M4 16H5V15H4V16Z"/>
<path d="M5 15H6V14H5V15Z"/>
<path d="M6 14H7V13H6V14Z"/>
<path d="M7 13H8V12H7V13Z"/>
<path d="M3 18H4V17H3V18Z"/>
<path d="M4 17H5V16H4V17Z"/>
<path d="M5 16H6V15H5V16Z"/>
<path d="M6 15H7V14H6V15Z"/>
<path d="M7 14H8V13H7V14Z"/>
<path d="M8 13H9V12H8V13Z"/>
<path d="M1 18H2V17H1V18Z"/>
<path d="M2 17H3V16H2V17Z"/>
<path d="M3 16H4V15H3V16Z"/>
<path d="M4 15H5V14H4V15Z"/>
<path d="M5 14H6V13H5V14Z"/>
<path d="M6 13H7V12H6V13Z"/>
<path d="M7 12H8V11H7V12Z"/>
<path d="M18 20H17V19H18V20Z"/>
<path d="M17 19H16V18H17V19Z"/>
<path d="M16 18H15V17H16V18Z"/>
<path d="M15 17H14V16H15V17Z"/>
<path d="M14 16H13V15H14V16Z"/>
<path d="M13 15H12V14H13V15Z"/>
<path d="M19 19H18V18H19V19Z"/>
<path d="M18 18H17V17H18V18Z"/>
<path d="M17 17H16V16H17V17Z"/>
<path d="M16 16H15V15H16V16Z"/>
<path d="M15 15H14V14H15V15Z"/>
<path d="M14 14H13V13H14V14Z"/>
<path d="M18 19H17V18H18V19Z"/>
<path d="M17 18H16V17H17V18Z"/>
<path d="M16 17H15V16H16V17Z"/>
<path d="M15 16H14V15H15V16Z"/>
<path d="M14 15H13V14H14V15Z"/>
<path d="M13 14H12V13H13V14Z"/>
<path d="M20 18H19V17H20V18Z"/>
<path d="M19 17H18V16H19V17Z"/>
<path d="M18 16H17V15H18V16Z"/>
<path d="M17 15H16V14H17V15Z"/>
<path d="M16 14H15V13H16V14Z"/>
<path d="M15 13H14V12H15V13Z"/>
<path d="M19 18H18V17H19V18Z"/>
<path d="M18 17H17V16H18V17Z"/>
<path d="M17 16H16V15H17V16Z"/>
<path d="M16 15H15V14H16V15Z"/>
<path d="M15 14H14V13H15V14Z"/>
<path d="M14 13H13V12H14V13Z"/>
<path d="M20 3H19V4H20V3Z"/>
<path d="M21 4H20V5H21V4Z"/>
<path d="M20 5H19V6H20V5Z"/>
<path d="M19 6H18V7H19V6Z"/>
<path d="M18 7H17V8H18V7Z"/>
<path d="M17 8H16V9H17V8Z"/>
<path d="M16 9H15V10H16V9Z"/>
<path d="M15 10H14V11H15V10Z"/>
<path d="M4 21H5V20H4V21Z"/>
<path d="M5 20H6V19H5V20Z"/>
<path d="M6 19H7V18H6V19Z"/>
<path d="M7 18H8V17H7V18Z"/>
<path d="M8 17H9V16H8V17Z"/>
<path d="M9 16H10V15H9V16Z"/>
<path d="M10 15H11V14H10V15Z"/>
<path d="M3 20H4V19H3V20Z"/>
<path d="M18 21H17V20H18V21Z"/>
<path d="M17 20H16V19H17V20Z"/>
<path d="M16 19H15V18H16V19Z"/>
<path d="M15 18H14V17H15V18Z"/>
<path d="M14 17H13V16H14V17Z"/>
<path d="M13 16H12V15H13V16Z"/>
<path d="M12 15H11V14H12V15Z"/>
<path d="M19 20H18V19H19V20Z"/>
<path d="M20 19H19V18H20V19Z"/>
<path d="M21 18H20V17H21V18Z"/>
<path d="M20 17H19V16H20V17Z"/>
<path d="M19 16H18V15H19V16Z"/>
<path d="M18 15H17V14H18V15Z"/>
<path d="M17 14H16V13H17V14Z"/>
<path d="M16 13H15V12H16V13Z"/>
<path d="M15 12H14V11H15V12Z"/>
</mask>
<path d="M4 1H5V2H4V1Z" fill="#CC613D"/>
<path d="M4 2H5V3H4V2Z" fill="#CC613D"/>
<path d="M5 3H6V4H5V3Z" fill="#CC613D"/>
<path d="M6 4H7V5H6V4Z" fill="#CC613D"/>
<path d="M7 5H8V6H7V5Z" fill="#CC613D"/>
<path d="M8 6H9V7H8V6Z" fill="#CC613D"/>
<path d="M9 7H10V8H9V7Z" fill="#CC613D"/>
<path d="M5 2H6V3H5V2Z" fill="#CC613D"/>
<path d="M6 3H7V4H6V3Z" fill="#CC613D"/>
<path d="M7 4H8V5H7V4Z" fill="#CC613D"/>
<path d="M8 5H9V6H8V5Z" fill="#CC613D"/>
<path d="M9 6H10V7H9V6Z" fill="#CC613D"/>
<path d="M10 7H11V14H10V7Z" fill="#CC613D"/>
<path d="M3 2H4V3H3V2Z" fill="#CC613D"/>
<path d="M3 3H4V4H3V3Z" fill="#CC613D"/>
<path d="M4 4H5V5H4V4Z" fill="#CC613D"/>
<path d="M5 5H6V6H5V5Z" fill="#CC613D"/>
<path d="M6 6H7V7H6V6Z" fill="#CC613D"/>
<path d="M7 7H8V8H7V7Z" fill="#CC613D"/>
<path d="M8 8H9V9H8V8Z" fill="#CC613D"/>
<path d="M4 3H5V4H4V3Z" fill="#CC613D"/>
<path d="M5 4H6V5H5V4Z" fill="#CC613D"/>
<path d="M6 5H7V6H6V5Z" fill="#CC613D"/>
<path d="M7 6H8V7H7V6Z" fill="#CC613D"/>
<path d="M8 7H9V8H8V7Z" fill="#CC613D"/>
<path d="M9 8H10V13H9V8Z" fill="#CC613D"/>
<path d="M2 3H3V4H2V3Z" fill="#CC613D"/>
<path d="M2 4H3V5H2V4Z" fill="#CC613D"/>
<path d="M3 5H4V6H3V5Z" fill="#CC613D"/>
<path d="M4 6H5V7H4V6Z" fill="#CC613D"/>
<path d="M5 7H6V8H5V7Z" fill="#CC613D"/>
<path d="M6 8H7V9H6V8Z" fill="#CC613D"/>
<path d="M7 9H8V10H7V9Z" fill="#CC613D"/>
<path d="M3 4H4V5H3V4Z" fill="#CC613D"/>
<path d="M4 5H5V6H4V5Z" fill="#CC613D"/>
<path d="M5 6H6V7H5V6Z" fill="#CC613D"/>
<path d="M6 7H7V8H6V7Z" fill="#CC613D"/>
<path d="M7 8H8V9H7V8Z" fill="#CC613D"/>
<path d="M8 9H9V12H8V9Z" fill="#CC613D"/>
<path d="M1 4H2V5H1V4Z" fill="#CC613D"/>
<path d="M2 5H3V6H2V5Z" fill="#CC613D"/>
<path d="M3 6H4V7H3V6Z" fill="#CC613D"/>
<path d="M4 7H5V8H4V7Z" fill="#CC613D"/>
<path d="M5 8H6V9H5V8Z" fill="#CC613D"/>
<path d="M6 9H7V10H6V9Z" fill="#CC613D"/>
<path d="M7 10H8V11H7V10Z" fill="#CC613D"/>
<path d="M18 1H17V2H18V1Z" fill="#CC613D"/>
<path d="M18 2H17V3H18V2Z" fill="#CC613D"/>
<path d="M17 3H16V4H17V3Z" fill="#CC613D"/>
<path d="M16 4H15V5H16V4Z" fill="#CC613D"/>
<path d="M15 5H14V6H15V5Z" fill="#CC613D"/>
<path d="M14 6H13V7H14V6Z" fill="#CC613D"/>
<path d="M13 7H12V8H13V7Z" fill="#CC613D"/>
<path d="M17 2H16V3H17V2Z" fill="#CC613D"/>
<path d="M16 3H15V4H16V3Z" fill="#CC613D"/>
<path d="M15 4H14V5H15V4Z" fill="#CC613D"/>
<path d="M14 5H13V6H14V5Z" fill="#CC613D"/>
<path d="M13 6H12V7H13V6Z" fill="#CC613D"/>
<path d="M12 7H11V14H12V7Z" fill="#CC613D"/>
<path d="M19 2H18V3H19V2Z" fill="#CC613D"/>
<path d="M19 3H18V4H19V3Z" fill="#CC613D"/>
<path d="M18 4H17V5H18V4Z" fill="#CC613D"/>
<path d="M17 5H16V6H17V5Z" fill="#CC613D"/>
<path d="M16 6H15V7H16V6Z" fill="#CC613D"/>
<path d="M15 7H14V8H15V7Z" fill="#CC613D"/>
<path d="M14 8H13V9H14V8Z" fill="#CC613D"/>
<path d="M18 3H17V4H18V3Z" fill="#CC613D"/>
<path d="M17 4H16V5H17V4Z" fill="#CC613D"/>
<path d="M16 5H15V6H16V5Z" fill="#CC613D"/>
<path d="M15 6H14V7H15V6Z" fill="#CC613D"/>
<path d="M14 7H13V8H14V7Z" fill="#CC613D"/>
<path d="M13 8H12V13H13V8Z" fill="#CC613D"/>
<path d="M20 4H19V5H20V4Z" fill="#CC613D"/>
<path d="M19 5H18V6H19V5Z" fill="#CC613D"/>
<path d="M18 6H17V7H18V6Z" fill="#CC613D"/>
<path d="M17 7H16V8H17V7Z" fill="#CC613D"/>
<path d="M16 8H15V9H16V8Z" fill="#CC613D"/>
<path d="M15 9H14V10H15V9Z" fill="#CC613D"/>
<path d="M19 4H18V5H19V4Z" fill="#CC613D"/>
<path d="M18 5H17V6H18V5Z" fill="#CC613D"/>
<path d="M17 6H16V7H17V6Z" fill="#CC613D"/>
<path d="M16 7H15V8H16V7Z" fill="#CC613D"/>
<path d="M15 8H14V9H15V8Z" fill="#CC613D"/>
<path d="M14 9H13V12H14V9Z" fill="#CC613D"/>
<path d="M4 20H5V19H4V20Z" fill="#CC613D"/>
<path d="M5 19H6V18H5V19Z" fill="#CC613D"/>
<path d="M6 18H7V17H6V18Z" fill="#CC613D"/>
<path d="M7 17H8V16H7V17Z" fill="#CC613D"/>
<path d="M8 16H9V15H8V16Z" fill="#CC613D"/>
<path d="M9 15H10V14H9V15Z" fill="#CC613D"/>
<path d="M3 19H4V18H3V19Z" fill="#CC613D"/>
<path d="M4 18H5V17H4V18Z" fill="#CC613D"/>
<path d="M5 17H6V16H5V17Z" fill="#CC613D"/>
<path d="M6 16H7V15H6V16Z" fill="#CC613D"/>
<path d="M7 15H8V14H7V15Z" fill="#CC613D"/>
<path d="M8 14H9V13H8V14Z" fill="#CC613D"/>
<path d="M4 19H5V18H4V19Z" fill="#CC613D"/>
<path d="M5 18H6V17H5V18Z" fill="#CC613D"/>
<path d="M6 17H7V16H6V17Z" fill="#CC613D"/>
<path d="M7 16H8V15H7V16Z" fill="#CC613D"/>
<path d="M8 15H9V14H8V15Z" fill="#CC613D"/>
<path d="M9 14H10V13H9V14Z" fill="#CC613D"/>
<path d="M2 19H3V18H2V19Z" fill="#CC613D"/>
<path d="M2 18H3V17H2V18Z" fill="#CC613D"/>
<path d="M3 17H4V16H3V17Z" fill="#CC613D"/>
<path d="M4 16H5V15H4V16Z" fill="#CC613D"/>
<path d="M5 15H6V14H5V15Z" fill="#CC613D"/>
<path d="M6 14H7V13H6V14Z" fill="#CC613D"/>
<path d="M7 13H8V12H7V13Z" fill="#CC613D"/>
<path d="M3 18H4V17H3V18Z" fill="#CC613D"/>
<path d="M4 17H5V16H4V17Z" fill="#CC613D"/>
<path d="M5 16H6V15H5V16Z" fill="#CC613D"/>
<path d="M6 15H7V14H6V15Z" fill="#CC613D"/>
<path d="M7 14H8V13H7V14Z" fill="#CC613D"/>
<path d="M8 13H9V12H8V13Z" fill="#CC613D"/>
<path d="M1 18H2V17H1V18Z" fill="#CC613D"/>
<path d="M2 17H3V16H2V17Z" fill="#CC613D"/>
<path d="M3 16H4V15H3V16Z" fill="#CC613D"/>
<path d="M4 15H5V14H4V15Z" fill="#CC613D"/>
<path d="M5 14H6V13H5V14Z" fill="#CC613D"/>
<path d="M6 13H7V12H6V13Z" fill="#CC613D"/>
<path d="M7 12H8V11H7V12Z" fill="#CC613D"/>
<path d="M18 20H17V19H18V20Z" fill="#CC613D"/>
<path d="M17 19H16V18H17V19Z" fill="#CC613D"/>
<path d="M16 18H15V17H16V18Z" fill="#CC613D"/>
<path d="M15 17H14V16H15V17Z" fill="#CC613D"/>
<path d="M14 16H13V15H14V16Z" fill="#CC613D"/>
<path d="M13 15H12V14H13V15Z" fill="#CC613D"/>
<path d="M19 19H18V18H19V19Z" fill="#CC613D"/>
<path d="M18 18H17V17H18V18Z" fill="#CC613D"/>
<path d="M17 17H16V16H17V17Z" fill="#CC613D"/>
<path d="M16 16H15V15H16V16Z" fill="#CC613D"/>
<path d="M15 15H14V14H15V15Z" fill="#CC613D"/>
<path d="M14 14H13V13H14V14Z" fill="#CC613D"/>
<path d="M18 19H17V18H18V19Z" fill="#CC613D"/>
<path d="M17 18H16V17H17V18Z" fill="#CC613D"/>
<path d="M16 17H15V16H16V17Z" fill="#CC613D"/>
<path d="M15 16H14V15H15V16Z" fill="#CC613D"/>
<path d="M14 15H13V14H14V15Z" fill="#CC613D"/>
<path d="M13 14H12V13H13V14Z" fill="#CC613D"/>
<path d="M20 18H19V17H20V18Z" fill="#CC613D"/>
<path d="M19 17H18V16H19V17Z" fill="#CC613D"/>
<path d="M18 16H17V15H18V16Z" fill="#CC613D"/>
<path d="M17 15H16V14H17V15Z" fill="#CC613D"/>
<path d="M16 14H15V13H16V14Z" fill="#CC613D"/>
<path d="M15 13H14V12H15V13Z" fill="#CC613D"/>
<path d="M19 18H18V17H19V18Z" fill="#CC613D"/>
<path d="M18 17H17V16H18V17Z" fill="#CC613D"/>
<path d="M17 16H16V15H17V16Z" fill="#CC613D"/>
<path d="M16 15H15V14H16V15Z" fill="#CC613D"/>
<path d="M15 14H14V13H15V14Z" fill="#CC613D"/>
<path d="M14 13H13V12H14V13Z" fill="#CC613D"/>
<path d="M20 3H19V4H20V3Z" fill="#E67F5C"/>
<path d="M21 4H20V5H21V4Z" fill="#E67F5C"/>
<path d="M20 5H19V6H20V5Z" fill="#E67F5C"/>
<path d="M19 6H18V7H19V6Z" fill="#E67F5C"/>
<path d="M18 7H17V8H18V7Z" fill="#E67F5C"/>
<path d="M17 8H16V9H17V8Z" fill="#E67F5C"/>
<path d="M16 9H15V10H16V9Z" fill="#E67F5C"/>
<path d="M15 10H14V11H15V10Z" fill="#E67F5C"/>
<path d="M4 21H5V20H4V21Z" fill="#E67F5C"/>
<path d="M5 20H6V19H5V20Z" fill="#E67F5C"/>
<path d="M6 19H7V18H6V19Z" fill="#E67F5C"/>
<path d="M7 18H8V17H7V18Z" fill="#E67F5C"/>
<path d="M8 17H9V16H8V17Z" fill="#E67F5C"/>
<path d="M9 16H10V15H9V16Z" fill="#E67F5C"/>
<path d="M10 15H11V14H10V15Z" fill="#E67F5C"/>
<path d="M3 20H4V19H3V20Z" fill="#E67F5C"/>
<path d="M18 21H17V20H18V21Z" fill="#E67F5C"/>
<path d="M17 20H16V19H17V20Z" fill="#E67F5C"/>
<path d="M16 19H15V18H16V19Z" fill="#E67F5C"/>
<path d="M15 18H14V17H15V18Z" fill="#E67F5C"/>
<path d="M14 17H13V16H14V17Z" fill="#E67F5C"/>
<path d="M13 16H12V15H13V16Z" fill="#E67F5C"/>
<path d="M12 15H11V14H12V15Z" fill="#E67F5C"/>
<path d="M19 20H18V19H19V20Z" fill="#E67F5C"/>
<path d="M20 19H19V18H20V19Z" fill="#E67F5C"/>
<path d="M21 18H20V17H21V18Z" fill="#E67F5C"/>
<path d="M20 17H19V16H20V17Z" fill="#E67F5C"/>
<path d="M19 16H18V15H19V16Z" fill="#E67F5C"/>
<path d="M18 15H17V14H18V15Z" fill="#E67F5C"/>
<path d="M17 14H16V13H17V14Z" fill="#E67F5C"/>
<path d="M16 13H15V12H16V13Z" fill="#E67F5C"/>
<path d="M15 12H14V11H15V12Z" fill="#E67F5C"/>
<path d="M5 2H5.5V1.5H5V2ZM4 2V1.5H3.5V2H4ZM6 3H6.5V2.5H6V3ZM7 4H7.5V3.5H7V4ZM8 5H8.5V4.5H8V5ZM9 6H9.5V5.5H9V6ZM3 3V2.5H2.5V3H3ZM2 4V3.5H1.5V4H2ZM2 5H1.5V5.5H2V5ZM3 6H2.5V6.5H3V6ZM4 7H3.5V7.5H4V7ZM5 8H4.5V8.5H5V8ZM6 9H5.5V9.5H6V9ZM7 10H6.5V10.5H7V10ZM17 2V1.5H16.5V2H17ZM18 2H18.5V1.5H18V2ZM16 3V2.5H15.5V3H16ZM15 4V3.5H14.5V4H15ZM14 5V4.5H13.5V5H14ZM13 6V5.5H12.5V6H13ZM19 3H19.5V2.5H19V3ZM20 4H20.5V3.5H20V4ZM20 5V5.5H20.5V5H20ZM19 6V6.5H19.5V6H19ZM18 7V7.5H18.5V7H18ZM17 8V8.5H17.5V8H17ZM16 9V9.5H16.5V9H16ZM15 10V10.5H15.5V10H15ZM4 20H3.5V20.5H4V20ZM5 20V20.5H5.5V20H5ZM6 19V19.5H6.5V19H6ZM7 18V18.5H7.5V18H7ZM8 17V17.5H8.5V17H8ZM9 16V16.5H9.5V16H9ZM10 15V15.5H10.5V15H10ZM3 19H2.5V19.5H3V19ZM2 18H1.5V18.5H2V18ZM2 17V16.5H1.5V17H2ZM3 16V15.5H2.5V16H3ZM4 15V14.5H3.5V15H4ZM5 14V13.5H4.5V14H5ZM6 13V12.5H5.5V13H6ZM7 12V11.5H6.5V12H7ZM18 20V20.5H18.5V20H18ZM17 20H16.5V20.5H17V20ZM16 19H15.5V19.5H16V19ZM15 18H14.5V18.5H15V18ZM14 17H13.5V17.5H14V17ZM13 16H12.5V16.5H13V16ZM12 15H11.5V15.5H12V15ZM19 19V19.5H19.5V19H19ZM20 18V18.5H20.5V18H20ZM20 17H20.5V16.5H20V17ZM19 16H19.5V15.5H19V16ZM18 15H18.5V14.5H18V15ZM17 14H17.5V13.5H17V14ZM16 13H16.5V12.5H16V13ZM15 12H15.5V11.5H15V12ZM5 1.5H4V2.5H5V1.5ZM4.5 2V3H5.5V2H4.5ZM5 2.5H4V3.5H5V2.5ZM4.5 3V2H3.5V3H4.5ZM5 3.5H6V2.5H5V3.5ZM5.5 3V4H6.5V3H5.5ZM6 3.5H5V4.5H6V3.5ZM5.5 4V3H4.5V4H5.5ZM6 4.5H7V3.5H6V4.5ZM6.5 4V5H7.5V4H6.5ZM7 4.5H6V5.5H7V4.5ZM6.5 5V4H5.5V5H6.5ZM7 5.5H8V4.5H7V5.5ZM7.5 5V6H8.5V5H7.5ZM8 5.5H7V6.5H8V5.5ZM7.5 6V5H6.5V6H7.5ZM8 6.5H9V5.5H8V6.5ZM8.5 6V7H9.5V6H8.5ZM9 6.5H8V7.5H9V6.5ZM8.5 7V6H7.5V7H8.5ZM9 7.5H10V6.5H9V7.5ZM10 7.5H9V8.5H10V7.5ZM9.5 8V7H8.5V8H9.5ZM10.5 7V14H11.5V7H10.5ZM11 13.5H10V14.5H11V13.5ZM4 2.5H3V3.5H4V2.5ZM3.5 3V4H4.5V3H3.5ZM4 3.5H3V4.5H4V3.5ZM3.5 4V3H2.5V4H3.5ZM4 4.5H5V3.5H4V4.5ZM4.5 4V5H5.5V4H4.5ZM5 4.5H4V5.5H5V4.5ZM4.5 5V4H3.5V5H4.5ZM5 5.5H6V4.5H5V5.5ZM5.5 5V6H6.5V5H5.5ZM6 5.5H5V6.5H6V5.5ZM5.5 6V5H4.5V6H5.5ZM6 6.5H7V5.5H6V6.5ZM6.5 6V7H7.5V6H6.5ZM7 6.5H6V7.5H7V6.5ZM6.5 7V6H5.5V7H6.5ZM7 7.5H8V6.5H7V7.5ZM7.5 7V8H8.5V7H7.5ZM8 7.5H7V8.5H8V7.5ZM7.5 8V7H6.5V8H7.5ZM8 8.5H9V7.5H8V8.5ZM9 8.5H8V9.5H9V8.5ZM8.5 9V8H7.5V9H8.5ZM10 12.5H9V13.5H10V12.5ZM3 3.5H2V4.5H3V3.5ZM2.5 4V5H3.5V4H2.5ZM3 4.5H2V5.5H3V4.5ZM2.5 5V4H1.5V5H2.5ZM3 5.5H4V4.5H3V5.5ZM3.5 5V6H4.5V5H3.5ZM4 5.5H3V6.5H4V5.5ZM3.5 6V5H2.5V6H3.5ZM4 6.5H5V5.5H4V6.5ZM4.5 6V7H5.5V6H4.5ZM5 6.5H4V7.5H5V6.5ZM4.5 7V6H3.5V7H4.5ZM5 7.5H6V6.5H5V7.5ZM5.5 7V8H6.5V7H5.5ZM6 7.5H5V8.5H6V7.5ZM5.5 8V7H4.5V8H5.5ZM6 8.5H7V7.5H6V8.5ZM6.5 8V9H7.5V8H6.5ZM7 8.5H6V9.5H7V8.5ZM6.5 9V8H5.5V9H6.5ZM7 9.5H8V8.5H7V9.5ZM8 9.5H7V10.5H8V9.5ZM7.5 10V9H6.5V10H7.5ZM9 11.5H8V12.5H9V11.5ZM8 10.5H7V11.5H8V10.5ZM17 2.5H18V1.5H17V2.5ZM16.5 2V3H17.5V2H16.5ZM17 3.5H18V2.5H17V3.5ZM18.5 3V2H17.5V3H18.5ZM17 2.5H16V3.5H17V2.5ZM15.5 3V4H16.5V3H15.5ZM16 4.5H17V3.5H16V4.5ZM17.5 4V3H16.5V4H17.5ZM16 3.5H15V4.5H16V3.5ZM14.5 4V5H15.5V4H14.5ZM15 5.5H16V4.5H15V5.5ZM16.5 5V4H15.5V5H16.5ZM15 4.5H14V5.5H15V4.5ZM13.5 5V6H14.5V5H13.5ZM14 6.5H15V5.5H14V6.5ZM15.5 6V5H14.5V6H15.5ZM14 5.5H13V6.5H14V5.5ZM12.5 6V7H13.5V6H12.5ZM13 7.5H14V6.5H13V7.5ZM14.5 7V6H13.5V7H14.5ZM13 6.5H12V7.5H13V6.5ZM12 8.5H13V7.5H12V8.5ZM13.5 8V7H12.5V8H13.5ZM11 14.5H12V13.5H11V14.5ZM18 3.5H19V2.5H18V3.5ZM17.5 3V4H18.5V3H17.5ZM18 4.5H19V3.5H18V4.5ZM19.5 4V3H18.5V4H19.5ZM18 3.5H17V4.5H18V3.5ZM16.5 4V5H17.5V4H16.5ZM17 5.5H18V4.5H17V5.5ZM18.5 5V4H17.5V5H18.5ZM17 4.5H16V5.5H17V4.5ZM15.5 5V6H16.5V5H15.5ZM16 6.5H17V5.5H16V6.5ZM17.5 6V5H16.5V6H17.5ZM16 5.5H15V6.5H16V5.5ZM14.5 6V7H15.5V6H14.5ZM15 7.5H16V6.5H15V7.5ZM16.5 7V6H15.5V7H16.5ZM15 6.5H14V7.5H15V6.5ZM13.5 7V8H14.5V7H13.5ZM14 8.5H15V7.5H14V8.5ZM15.5 8V7H14.5V8H15.5ZM14 7.5H13V8.5H14V7.5ZM13 9.5H14V8.5H13V9.5ZM14.5 9V8H13.5V9H14.5ZM12 13.5H13V12.5H12V13.5ZM20 3.5H19V4.5H20V3.5ZM18.5 4V5H19.5V4H18.5ZM19 5.5H20V4.5H19V5.5ZM20.5 5V4H19.5V5H20.5ZM19 4.5H18V5.5H19V4.5ZM17.5 5V6H18.5V5H17.5ZM18 6.5H19V5.5H18V6.5ZM19.5 6V5H18.5V6H19.5ZM18 5.5H17V6.5H18V5.5ZM16.5 6V7H17.5V6H16.5ZM17 7.5H18V6.5H17V7.5ZM18.5 7V6H17.5V7H18.5ZM17 6.5H16V7.5H17V6.5ZM15.5 7V8H16.5V7H15.5ZM16 8.5H17V7.5H16V8.5ZM17.5 8V7H16.5V8H17.5ZM16 7.5H15V8.5H16V7.5ZM14.5 8V9H15.5V8H14.5ZM15 9.5H16V8.5H15V9.5ZM16.5 9V8H15.5V9H16.5ZM15 8.5H14V9.5H15V8.5ZM14 10.5H15V9.5H14V10.5ZM15.5 10V9H14.5V10H15.5ZM13 12.5H14V11.5H13V12.5ZM4 20.5H5V19.5H4V20.5ZM5.5 20V19H4.5V20H5.5ZM5 18.5H4V19.5H5V18.5ZM3.5 19V20H4.5V19H3.5ZM5 19.5H6V18.5H5V19.5ZM6.5 19V18H5.5V19H6.5ZM6 17.5H5V18.5H6V17.5ZM4.5 18V19H5.5V18H4.5ZM6 18.5H7V17.5H6V18.5ZM7.5 18V17H6.5V18H7.5ZM7 16.5H6V17.5H7V16.5ZM5.5 17V18H6.5V17H5.5ZM7 17.5H8V16.5H7V17.5ZM8.5 17V16H7.5V17H8.5ZM8 15.5H7V16.5H8V15.5ZM6.5 16V17H7.5V16H6.5ZM8 16.5H9V15.5H8V16.5ZM9.5 16V15H8.5V16H9.5ZM9 14.5H8V15.5H9V14.5ZM7.5 15V16H8.5V15H7.5ZM9 15.5H10V14.5H9V15.5ZM10.5 15V14H9.5V15H10.5ZM10 13.5H9V14.5H10V13.5ZM8.5 14V15H9.5V14H8.5ZM3 19.5H4V18.5H3V19.5ZM4.5 19V18H3.5V19H4.5ZM4 17.5H3V18.5H4V17.5ZM2.5 18V19H3.5V18H2.5ZM4 18.5H5V17.5H4V18.5ZM5.5 18V17H4.5V18H5.5ZM5 16.5H4V17.5H5V16.5ZM3.5 17V18H4.5V17H3.5ZM5 17.5H6V16.5H5V17.5ZM6.5 17V16H5.5V17H6.5ZM6 15.5H5V16.5H6V15.5ZM4.5 16V17H5.5V16H4.5ZM6 16.5H7V15.5H6V16.5ZM7.5 16V15H6.5V16H7.5ZM7 14.5H6V15.5H7V14.5ZM5.5 15V16H6.5V15H5.5ZM7 15.5H8V14.5H7V15.5ZM8.5 15V14H7.5V15H8.5ZM8 13.5H7V14.5H8V13.5ZM6.5 14V15H7.5V14H6.5ZM8 14.5H9V13.5H8V14.5ZM9.5 14V13H8.5V14H9.5ZM9 12.5H8V13.5H9V12.5ZM7.5 13V14H8.5V13H7.5ZM3 17.5H2V18.5H3V17.5ZM3.5 18V17H2.5V18H3.5ZM3 16.5H2V17.5H3V16.5ZM1.5 17V18H2.5V17H1.5ZM3 17.5H4V16.5H3V17.5ZM4.5 17V16H3.5V17H4.5ZM4 15.5H3V16.5H4V15.5ZM2.5 16V17H3.5V16H2.5ZM4 16.5H5V15.5H4V16.5ZM5.5 16V15H4.5V16H5.5ZM5 14.5H4V15.5H5V14.5ZM3.5 15V16H4.5V15H3.5ZM5 15.5H6V14.5H5V15.5ZM6.5 15V14H5.5V15H6.5ZM6 13.5H5V14.5H6V13.5ZM4.5 14V15H5.5V14H4.5ZM6 14.5H7V13.5H6V14.5ZM7.5 14V13H6.5V14H7.5ZM7 12.5H6V13.5H7V12.5ZM5.5 13V14H6.5V13H5.5ZM7 13.5H8V12.5H7V13.5ZM8.5 13V12H7.5V13H8.5ZM8 11.5H7V12.5H8V11.5ZM6.5 12V13H7.5V12H6.5ZM18 19.5H17V20.5H18V19.5ZM17.5 20V19H16.5V20H17.5ZM17 19.5H18V18.5H17V19.5ZM17.5 19V20H18.5V19H17.5ZM17 18.5H16V19.5H17V18.5ZM16.5 19V18H15.5V19H16.5ZM16 18.5H17V17.5H16V18.5ZM16.5 18V19H17.5V18H16.5ZM16 17.5H15V18.5H16V17.5ZM15.5 18V17H14.5V18H15.5ZM15 17.5H16V16.5H15V17.5ZM15.5 17V18H16.5V17H15.5ZM15 16.5H14V17.5H15V16.5ZM14.5 17V16H13.5V17H14.5ZM14 16.5H15V15.5H14V16.5ZM14.5 16V17H15.5V16H14.5ZM14 15.5H13V16.5H14V15.5ZM13.5 16V15H12.5V16H13.5ZM13 15.5H14V14.5H13V15.5ZM13.5 15V16H14.5V15H13.5ZM13 14.5H12V15.5H13V14.5ZM12.5 15V14H11.5V15H12.5ZM12 14.5H13V13.5H12V14.5ZM12.5 14V15H13.5V14H12.5ZM19 18.5H18V19.5H19V18.5ZM18.5 19V18H17.5V19H18.5ZM18 18.5H19V17.5H18V18.5ZM18.5 18V19H19.5V18H18.5ZM18 17.5H17V18.5H18V17.5ZM17.5 18V17H16.5V18H17.5ZM17 17.5H18V16.5H17V17.5ZM17.5 17V18H18.5V17H17.5ZM17 16.5H16V17.5H17V16.5ZM16.5 17V16H15.5V17H16.5ZM16 16.5H17V15.5H16V16.5ZM16.5 16V17H17.5V16H16.5ZM16 15.5H15V16.5H16V15.5ZM15.5 16V15H14.5V16H15.5ZM15 15.5H16V14.5H15V15.5ZM15.5 15V16H16.5V15H15.5ZM15 14.5H14V15.5H15V14.5ZM14.5 15V14H13.5V15H14.5ZM14 14.5H15V13.5H14V14.5ZM14.5 14V15H15.5V14H14.5ZM14 13.5H13V14.5H14V13.5ZM13.5 14V13H12.5V14H13.5ZM13 13.5H14V12.5H13V13.5ZM13.5 13V14H14.5V13H13.5ZM20 17.5H19V18.5H20V17.5ZM19.5 18V17H18.5V18H19.5ZM19 17.5H20V16.5H19V17.5ZM19.5 17V18H20.5V17H19.5ZM19 16.5H18V17.5H19V16.5ZM18.5 17V16H17.5V17H18.5ZM18 16.5H19V15.5H18V16.5ZM18.5 16V17H19.5V16H18.5ZM18 15.5H17V16.5H18V15.5ZM17.5 16V15H16.5V16H17.5ZM17 15.5H18V14.5H17V15.5ZM17.5 15V16H18.5V15H17.5ZM17 14.5H16V15.5H17V14.5ZM16.5 15V14H15.5V15H16.5ZM16 14.5H17V13.5H16V14.5ZM16.5 14V15H17.5V14H16.5ZM16 13.5H15V14.5H16V13.5ZM15.5 14V13H14.5V14H15.5ZM15 13.5H16V12.5H15V13.5ZM15.5 13V14H16.5V13H15.5ZM15 12.5H14V13.5H15V12.5ZM14.5 13V12H13.5V13H14.5ZM14 12.5H15V11.5H14V12.5ZM14.5 12V13H15.5V12H14.5ZM14 11.5H15V10.5H14V11.5ZM11.5 15V14H10.5V15H11.5ZM4 1V0H3V1H4ZM5 1H6V0H5V1ZM5 2H4V3H5V2ZM4 2V3H5V2H4ZM6 3H5V4H6V3ZM7 4H6V5H7V4ZM8 5H7V6H8V5ZM9 6H8V7H9V6ZM6 2H7V1H6V2ZM7 3H8V2H7V3ZM8 4H9V3H8V4ZM9 5H10V4H9V5ZM10 6H11V5H10V6ZM3 2V1H2V2H3ZM3 3V4H4V3H3ZM2 3V2H1V3H2ZM2 4V5H3V4H2ZM2 5H3V4H2V5ZM3 6H4V5H3V6ZM4 7H5V6H4V7ZM5 8H6V7H5V8ZM6 9H7V8H6V9ZM7 10H8V9H7V10ZM1 4V3H0V4H1ZM1 5H0V6H1V5ZM2 6H1V7H2V6ZM3 7H2V8H3V7ZM4 8H3V9H4V8ZM5 9H4V10H5V9ZM6 10H5V11H6V10ZM18 1H19V0H18V1ZM17 1V0H16V1H17ZM17 2V3H18V2H17ZM18 2H17V3H18V2ZM16 3V4H17V3H16ZM15 4V5H16V4H15ZM14 5V6H15V5H14ZM13 6V7H14V6H13ZM16 2V1H15V2H16ZM15 3V2H14V3H15ZM14 4V3H13V4H14ZM13 5V4H12V5H13ZM12 6V5H11V6H12ZM19 2H20V1H19V2ZM19 3H18V4H19V3ZM20 4H19V5H20V4ZM20 5V4H19V5H20ZM19 6V5H18V6H19ZM18 7V6H17V7H18ZM17 8V7H16V8H17ZM16 9V8H15V9H16ZM15 10V9H14V10H15ZM4 20H5V19H4V20ZM5 20V19H4V20H5ZM6 19V18H5V19H6ZM7 18V17H6V18H7ZM8 17V16H7V17H8ZM9 16V15H8V16H9ZM10 15V14H9V15H10ZM3 19H4V18H3V19ZM2 19H1V20H2V19ZM2 18H3V17H2V18ZM2 17V18H3V17H2ZM3 16V17H4V16H3ZM4 15V16H5V15H4ZM5 14V15H6V14H5ZM6 13V14H7V13H6ZM7 12V13H8V12H7ZM1 18H0V19H1V18ZM1 17V16H0V17H1ZM2 16V15H1V16H2ZM3 15V14H2V15H3ZM4 14V13H3V14H4ZM5 13V12H4V13H5ZM6 12V11H5V12H6ZM18 20V19H17V20H18ZM17 20H18V19H17V20ZM16 19H17V18H16V19ZM15 18H16V17H15V18ZM14 17H15V16H14V17ZM13 16H14V15H13V16ZM12 15H13V14H12V15ZM19 19V18H18V19H19ZM20 18V17H19V18H20ZM20 17H19V18H20V17ZM19 16H18V17H19V16ZM18 15H17V16H18V15ZM17 14H16V15H17V14ZM16 13H15V14H16V13ZM15 12H14V13H15V12ZM20 3H21V2H20V3ZM21 4H22V3H21V4ZM21 5V6H22V5H21ZM20 6V7H21V6H20ZM19 7V8H20V7H19ZM18 8V9H19V8H18ZM17 9V10H18V9H17ZM16 10V11H17V10H16ZM4 21H3V22H4V21ZM5 21V22H6V21H5ZM6 20V21H7V20H6ZM7 19V20H8V19H7ZM8 18V19H9V18H8ZM9 17V18H10V17H9ZM10 16V17H11V16H10ZM3 20H2V21H3V20ZM18 21V22H19V21H18ZM17 21H16V22H17V21ZM16 20H15V21H16V20ZM15 19H14V20H15V19ZM14 18H13V19H14V18ZM13 17H12V18H13V17ZM12 16H11V17H12V16ZM19 20V21H20V20H19ZM20 19V20H21V19H20ZM21 18V19H22V18H21ZM21 17H22V16H21V17ZM20 16H21V15H20V16ZM19 15H20V14H19V15ZM18 14H19V13H18V14ZM17 13H18V12H17V13ZM16 12H17V11H16V12ZM4 2H5V0H4V2ZM4 1V2H6V1H4ZM5 2V1H3V2H5ZM9 7V8H11V7H9ZM5 3H6V1H5V3ZM5 2V3H7V2H5ZM6 4H7V2H6V4ZM6 3V4H8V3H6ZM7 5H8V3H7V5ZM7 4V5H9V4H7ZM8 6H9V4H8V6ZM8 5V6H10V5H8ZM9 7H10V5H9V7ZM9 6V7H11V6H9ZM10 8H11V6H10V8ZM11 14V7H9V14H11ZM3 3H4V1H3V3ZM4 3V2H2V3H4ZM8 8V9H10V8H8ZM9 8V13H11V8H9ZM10 13V8H8V13H10ZM2 4H3V2H2V4ZM3 4V3H1V4H3ZM7 9V10H9V9H7ZM8 9V12H10V9H8ZM9 12V9H7V12H9ZM1 5H2V3H1V5ZM2 4H1V6H2V4ZM2 5V4H0V5H2ZM3 5H2V7H3V5ZM3 6V5H1V6H3ZM4 6H3V8H4V6ZM4 7V6H2V7H4ZM5 7H4V9H5V7ZM5 8V7H3V8H5ZM6 8H5V10H6V8ZM6 9V8H4V9H6ZM7 9H6V11H7V9ZM7 10V9H5V10H7ZM7 10V11H9V10H7ZM8 11V10H6V11H8ZM18 0H17V2H18V0ZM16 1V2H18V1H16ZM19 2V1H17V2H19ZM11 7V8H13V7H11ZM17 1H16V3H17V1ZM15 2V3H17V2H15ZM16 2H15V4H16V2ZM14 3V4H16V3H14ZM15 3H14V5H15V3ZM13 4V5H15V4H13ZM14 4H13V6H14V4ZM12 5V6H14V5H12ZM13 5H12V7H13V5ZM11 6V7H13V6H11ZM12 6H11V8H12V6ZM13 14V7H11V14H13ZM19 1H18V3H19V1ZM20 3V2H18V3H20ZM12 8V9H14V8H12ZM11 8V13H13V8H11ZM14 13V8H12V13H14ZM13 9V10H15V9H13ZM12 9V12H14V9H12ZM15 12V9H13V12H15ZM11 14V13H9V14H11ZM2 20H3V18H2V20ZM1 18V19H3V18H1ZM10 13V12H8V13H10ZM1 19H2V17H1V19ZM2 16H1V18H2V16ZM0 17V18H2V17H0ZM3 15H2V17H3V15ZM1 16V17H3V16H1ZM4 14H3V16H4V14ZM2 15V16H4V15H2ZM5 13H4V15H5V13ZM3 14V15H5V14H3ZM6 12H5V14H6V12ZM4 13V14H6V13H4ZM7 11H6V13H7V11ZM5 12V13H7V12H5ZM9 12V11H7V12H9ZM6 11V12H8V11H6ZM13 14V13H11V14H13ZM14 13V12H12V13H14ZM20 2H19V4H20V2ZM21 4V3H19V4H21ZM21 3H20V5H21V3ZM20 6H21V4H20V6ZM22 5V4H20V5H22ZM19 7H20V5H19V7ZM21 6V5H19V6H21ZM18 8H19V6H18V8ZM20 7V6H18V7H20ZM17 9H18V7H17V9ZM19 8V7H17V8H19ZM16 10H17V8H16V10ZM18 9V8H16V9H18ZM15 11H16V9H15V11ZM17 10V9H15V10H17ZM13 10V11H15V10H13ZM16 11V10H14V11H16ZM4 22H5V20H4V22ZM6 21V20H4V21H6ZM3 20V21H5V20H3ZM5 21H6V19H5V21ZM7 20V19H5V20H7ZM6 20H7V18H6V20ZM8 19V18H6V19H8ZM7 19H8V17H7V19ZM9 18V17H7V18H9ZM8 18H9V16H8V18ZM10 17V16H8V17H10ZM9 17H10V15H9V17ZM11 16V15H9V16H11ZM10 16H11V14H10V16ZM3 21H4V19H3V21ZM2 19V20H4V19H2ZM18 20H17V22H18V20ZM18 21V20H16V21H18ZM17 20V21H19V20H17ZM17 19H16V21H17V19ZM17 20V19H15V20H17ZM16 18H15V20H16V18ZM16 19V18H14V19H16ZM15 17H14V19H15V17ZM15 18V17H13V18H15ZM14 16H13V18H14V16ZM14 17V16H12V17H14ZM13 15H12V17H13V15ZM13 16V15H11V16H13ZM12 14H11V16H12V14ZM19 19H18V21H19V19ZM18 19V20H20V19H18ZM20 18H19V20H20V18ZM19 18V19H21V18H19ZM21 17H20V19H21V17ZM20 18H21V16H20V18ZM20 17V18H22V17H20ZM19 17H20V15H19V17ZM19 16V17H21V16H19ZM18 16H19V14H18V16ZM18 15V16H20V15H18ZM17 15H18V13H17V15ZM17 14V15H19V14H17ZM16 14H17V12H16V14ZM16 13V14H18V13H16ZM15 13H16V11H15V13ZM15 12V13H17V12H15ZM15 12V11H13V12H15ZM14 11V12H16V11H14Z" fill="#401B00" mask="url(#path-3-outside-1_85_4718)"/>
</svg>
