<?xml version="1.0" encoding="UTF-8" ?>
<svg width="2528.106085778914" height="3318.1392375848245" xmlns="http://www.w3.org/2000/svg">
  <path d="M 158.00663036118212 316.01326072236424 L0 316.01326072236424 L0 158.00663036118212 L158.00663036118212 158.00663036118212 L316.01326072236424 158.00663036118212 L316.01326072236424 316.01326072236424 L158.00663036118212 316.01326072236424 L158.00663036118212 158.00663036118212 L158.00663036118212 0 L316.01326072236424 0 L316.01326072236424 158.00663036118212 L158.00663036118212 158.00663036118212 L0 158.00663036118212 L0 0 L158.00663036118212 0 L158.00663036118212 158.00663036118212 Z" style="fill:rgb(0, 0, 0, 0)" />
  <path d="M 474.0198910835463 316.01326072236424 L316.01326072236424 316.01326072236424 L316.01326072236424 158.00663036118212 L474.0198910835463 158.00663036118212 L632.0265214447285 158.00663036118212 L632.0265214447285 316.01326072236424 L474.0198910835463 316.01326072236424 L474.0198910835463 158.00663036118212 L474.0198910835463 0 L632.0265214447285 0 L632.0265214447285 158.00663036118212 L474.0198910835463 158.00663036118212 L316.01326072236424 158.00663036118212 L316.01326072236424 0 L474.0198910835463 0 L474.0198910835463 158.00663036118212 Z" style="fill:rgb(0, 0, 0, 0)" />
  <path d="M 790.0331518059106 158.00663036118212 L632.0265214447285 158.00663036118212 L632.0265214447285 0 L790.0331518059106 0 L948.0397821670927 0 L948.0397821670927 158.00663036118212 L790.0331518059106 158.00663036118212 L632.0265214447285 158.00663036118212 L632.0265214447285 0 L790.0331518059106 0 Z" style="fill:rgb(0, 0, 0, 0)" />
  <path d="M 1106.046412528275 316.01326072236424 L948.0397821670927 316.01326072236424 L948.0397821670927 158.00663036118212 L1106.046412528275 158.00663036118212 L1264.053042889457 158.00663036118212 L1264.053042889457 316.01326072236424 L1106.046412528275 316.01326072236424 L1106.046412528275 158.00663036118212 L1106.046412528275 0 L1264.053042889457 0 L1264.053042889457 158.00663036118212 L1106.046412528275 158.00663036118212 L948.0397821670927 158.00663036118212 L948.0397821670927 0 L1106.046412528275 0 L1106.046412528275 158.00663036118212 Z" style="fill:rgb(48, 29, 18, 255)" />
  <path d="M 1422.059673250639 316.01326072236424 L1264.053042889457 316.01326072236424 L1264.053042889457 158.00663036118212 L1422.059673250639 158.00663036118212 L1580.0663036118212 158.00663036118212 L1580.0663036118212 316.01326072236424 L1422.059673250639 316.01326072236424 L1422.059673250639 158.00663036118212 L1422.059673250639 0 L1580.0663036118212 0 L1580.0663036118212 158.00663036118212 L1422.059673250639 158.00663036118212 L1264.053042889457 158.00663036118212 L1264.053042889457 0 L1422.059673250639 0 L1422.059673250639 158.00663036118212 Z" style="fill:rgb(48, 29, 18, 255)" />
  <path d="M 1738.0729339730033 158.00663036118212 L1580.0663036118212 158.00663036118212 L1580.0663036118212 0 L1738.0729339730033 0 L2528.106085778914 0 L2528.106085778914 158.00663036118212 L2528.106085778914 2054.0861946953673 L2370.099455417732 2054.0861946953673 L2370.099455417732 1896.0795643341853 L2370.099455417732 1422.059673250639 L2528.106085778914 1422.059673250639 L2528.106085778914 1580.0663036118212 L2370.099455417732 1580.0663036118212 L2212.09282505655 1580.0663036118212 L2212.09282505655 1422.059673250639 L2212.09282505655 316.01326072236424 L2370.099455417732 316.01326072236424 L2370.099455417732 474.0198910835463 L2212.09282505655 474.0198910835463 L2054.0861946953673 474.0198910835463 L2054.0861946953673 316.01326072236424 L2054.0861946953673 158.00663036118212 L2212.09282505655 158.00663036118212 L2212.09282505655 316.01326072236424 L2054.0861946953673 316.01326072236424 L1896.0795643341853 316.01326072236424 L1896.0795643341853 158.00663036118212 L1896.0795643341853 0 L2054.0861946953673 0 L2054.0861946953673 158.00663036118212 L1896.0795643341853 158.00663036118212 L1580.0663036118212 158.00663036118212 L1580.0663036118212 0 L1738.0729339730033 0 Z" style="fill:rgb(0, 0, 0, 0)" />
  <path d="M 632.0265214447285 316.01326072236424 L632.0265214447285 158.00663036118212 L790.0331518059106 158.00663036118212 L790.0331518059106 316.01326072236424 Z" style="fill:rgb(31, 17, 8, 255)" />
  <path d="M 948.0397821670927 474.0198910835463 L790.0331518059106 474.0198910835463 L790.0331518059106 316.01326072236424 L948.0397821670927 316.01326072236424 L1738.0729339730033 316.01326072236424 L1738.0729339730033 474.0198910835463 L1580.0663036118212 474.0198910835463 L1580.0663036118212 316.01326072236424 L1580.0663036118212 158.00663036118212 L1738.0729339730033 158.00663036118212 L1738.0729339730033 316.01326072236424 L1738.0729339730033 474.0198910835463 L1580.0663036118212 474.0198910835463 L1580.0663036118212 316.01326072236424 L1738.0729339730033 316.01326072236424 L2054.0861946953673 316.01326072236424 L2054.0861946953673 474.0198910835463 L2054.0861946953673 632.0265214447285 L1896.0795643341853 632.0265214447285 L1896.0795643341853 474.0198910835463 L2054.0861946953673 474.0198910835463 L2212.09282505655 474.0198910835463 L2212.09282505655 632.0265214447285 L2212.09282505655 1264.053042889457 L2054.0861946953673 1264.053042889457 L2054.0861946953673 1106.046412528275 L2054.0861946953673 632.0265214447285 L2212.09282505655 632.0265214447285 L2212.09282505655 790.0331518059106 L2054.0861946953673 790.0331518059106 L1580.0663036118212 790.0331518059106 L1580.0663036118212 632.0265214447285 L1738.0729339730033 632.0265214447285 L1738.0729339730033 790.0331518059106 L1738.0729339730033 948.0397821670927 L1580.0663036118212 948.0397821670927 L790.0331518059106 948.0397821670927 L790.0331518059106 790.0331518059106 L790.0331518059106 632.0265214447285 L948.0397821670927 632.0265214447285 L948.0397821670927 790.0331518059106 L790.0331518059106 790.0331518059106 L316.01326072236424 790.0331518059106 L316.01326072236424 632.0265214447285 L474.0198910835463 632.0265214447285 L474.0198910835463 790.0331518059106 L474.0198910835463 1264.053042889457 L316.01326072236424 1264.053042889457 L316.01326072236424 1106.046412528275 L316.01326072236424 474.0198910835463 L474.0198910835463 474.0198910835463 L632.0265214447285 474.0198910835463 L632.0265214447285 632.0265214447285 L474.0198910835463 632.0265214447285 L474.0198910835463 474.0198910835463 L474.0198910835463 316.01326072236424 L632.0265214447285 316.01326072236424 L948.0397821670927 316.01326072236424 L948.0397821670927 474.0198910835463 L790.0331518059106 474.0198910835463 L790.0331518059106 316.01326072236424 L790.0331518059106 158.00663036118212 L948.0397821670927 158.00663036118212 L948.0397821670927 316.01326072236424 Z" style="fill:rgb(48, 29, 18, 255)" />
  <path d="M 1738.0729339730033 316.01326072236424 L1738.0729339730033 158.00663036118212 L1896.0795643341853 158.00663036118212 L1896.0795643341853 316.01326072236424 Z" style="fill:rgb(31, 17, 8, 255)" />
  <path d="M 2212.09282505655 316.01326072236424 L2212.09282505655 158.00663036118212 L2370.099455417732 158.00663036118212 L2370.099455417732 316.01326072236424 Z" style="fill:rgb(0, 0, 0, 0)" />
  <path d="M 158.00663036118212 632.0265214447285 L0 632.0265214447285 L0 474.0198910835463 L158.00663036118212 474.0198910835463 L316.01326072236424 474.0198910835463 L316.01326072236424 632.0265214447285 L158.00663036118212 632.0265214447285 L158.00663036118212 474.0198910835463 L158.00663036118212 316.01326072236424 L316.01326072236424 316.01326072236424 L316.01326072236424 474.0198910835463 L158.00663036118212 474.0198910835463 L0 474.0198910835463 L0 316.01326072236424 L158.00663036118212 316.01326072236424 L158.00663036118212 474.0198910835463 Z" style="fill:rgb(0, 0, 0, 0)" />
  <path d="M 316.01326072236424 474.0198910835463 L316.01326072236424 316.01326072236424 L474.0198910835463 316.01326072236424 L474.0198910835463 474.0198910835463 Z" style="fill:rgb(0, 0, 0, 0)" />
  <path d="M 790.0331518059106 632.0265214447285 L632.0265214447285 632.0265214447285 L632.0265214447285 474.0198910835463 L790.0331518059106 474.0198910835463 L1896.0795643341853 474.0198910835463 L1896.0795643341853 632.0265214447285 L1738.0729339730033 632.0265214447285 L1422.059673250639 632.0265214447285 L1422.059673250639 474.0198910835463 L1580.0663036118212 474.0198910835463 L1580.0663036118212 632.0265214447285 L1580.0663036118212 790.0331518059106 L1422.059673250639 790.0331518059106 L948.0397821670927 790.0331518059106 L948.0397821670927 632.0265214447285 L948.0397821670927 474.0198910835463 L1106.046412528275 474.0198910835463 L1106.046412528275 632.0265214447285 L948.0397821670927 632.0265214447285 L632.0265214447285 632.0265214447285 L632.0265214447285 474.0198910835463 L790.0331518059106 474.0198910835463 Z" style="fill:rgb(48, 29, 18, 255)" />
  <path d="M 158.00663036118212 948.0397821670927 L0 948.0397821670927 L0 790.0331518059106 L158.00663036118212 790.0331518059106 L316.01326072236424 790.0331518059106 L316.01326072236424 948.0397821670927 L158.00663036118212 948.0397821670927 L158.00663036118212 790.0331518059106 L158.00663036118212 632.0265214447285 L316.01326072236424 632.0265214447285 L316.01326072236424 790.0331518059106 L158.00663036118212 790.0331518059106 L0 790.0331518059106 L0 632.0265214447285 L158.00663036118212 632.0265214447285 L158.00663036118212 790.0331518059106 Z" style="fill:rgb(0, 0, 0, 0)" />
  <path d="M 632.0265214447285 1106.046412528275 L474.0198910835463 1106.046412528275 L474.0198910835463 948.0397821670927 L632.0265214447285 948.0397821670927 L790.0331518059106 948.0397821670927 L790.0331518059106 1106.046412528275 L632.0265214447285 1106.046412528275 L632.0265214447285 948.0397821670927 L632.0265214447285 790.0331518059106 L790.0331518059106 790.0331518059106 L790.0331518059106 948.0397821670927 L632.0265214447285 948.0397821670927 L474.0198910835463 948.0397821670927 L474.0198910835463 790.0331518059106 L632.0265214447285 790.0331518059106 L632.0265214447285 948.0397821670927 Z" style="fill:rgb(31, 17, 8, 255)" />
  <path d="M 1896.0795643341853 1106.046412528275 L1738.0729339730033 1106.046412528275 L1738.0729339730033 948.0397821670927 L1896.0795643341853 948.0397821670927 L2054.0861946953673 948.0397821670927 L2054.0861946953673 1106.046412528275 L1896.0795643341853 1106.046412528275 L1896.0795643341853 948.0397821670927 L1896.0795643341853 790.0331518059106 L2054.0861946953673 790.0331518059106 L2054.0861946953673 948.0397821670927 L1896.0795643341853 948.0397821670927 L1738.0729339730033 948.0397821670927 L1738.0729339730033 790.0331518059106 L1896.0795643341853 790.0331518059106 L1896.0795643341853 948.0397821670927 Z" style="fill:rgb(31, 17, 8, 255)" />
  <path d="M 158.00663036118212 1264.053042889457 L0 1264.053042889457 L0 1106.046412528275 L158.00663036118212 1106.046412528275 L316.01326072236424 1106.046412528275 L316.01326072236424 1264.053042889457 L158.00663036118212 1264.053042889457 L158.00663036118212 1106.046412528275 L158.00663036118212 948.0397821670927 L316.01326072236424 948.0397821670927 L316.01326072236424 1106.046412528275 L158.00663036118212 1106.046412528275 L0 1106.046412528275 L0 948.0397821670927 L158.00663036118212 948.0397821670927 L158.00663036118212 1106.046412528275 Z" style="fill:rgb(0, 0, 0, 0)" />
  <path d="M 948.0397821670927 1264.053042889457 L790.0331518059106 1264.053042889457 L790.0331518059106 1106.046412528275 L948.0397821670927 1106.046412528275 L1106.046412528275 1106.046412528275 L1106.046412528275 1264.053042889457 L948.0397821670927 1264.053042889457 L948.0397821670927 1106.046412528275 L948.0397821670927 948.0397821670927 L1106.046412528275 948.0397821670927 L1106.046412528275 1106.046412528275 L948.0397821670927 1106.046412528275 L790.0331518059106 1106.046412528275 L790.0331518059106 948.0397821670927 L948.0397821670927 948.0397821670927 L948.0397821670927 1106.046412528275 Z" style="fill:rgb(31, 17, 8, 255)" />
  <path d="M 1264.053042889457 1264.053042889457 L1106.046412528275 1264.053042889457 L1106.046412528275 1106.046412528275 L1264.053042889457 1106.046412528275 L1422.059673250639 1106.046412528275 L1422.059673250639 1264.053042889457 L1264.053042889457 1264.053042889457 L1264.053042889457 1106.046412528275 L1264.053042889457 948.0397821670927 L1422.059673250639 948.0397821670927 L1422.059673250639 1106.046412528275 L1264.053042889457 1106.046412528275 L1106.046412528275 1106.046412528275 L1106.046412528275 948.0397821670927 L1264.053042889457 948.0397821670927 L1264.053042889457 1106.046412528275 Z" style="fill:rgb(31, 17, 8, 255)" />
  <path d="M 1580.0663036118212 1264.053042889457 L1422.059673250639 1264.053042889457 L1422.059673250639 1106.046412528275 L1580.0663036118212 1106.046412528275 L1738.0729339730033 1106.046412528275 L1738.0729339730033 1264.053042889457 L1580.0663036118212 1264.053042889457 L1580.0663036118212 1106.046412528275 L1580.0663036118212 948.0397821670927 L1738.0729339730033 948.0397821670927 L1738.0729339730033 1106.046412528275 L1580.0663036118212 1106.046412528275 L1422.059673250639 1106.046412528275 L1422.059673250639 948.0397821670927 L1580.0663036118212 948.0397821670927 L1580.0663036118212 1106.046412528275 Z" style="fill:rgb(31, 17, 8, 255)" />
  <path d="M 632.0265214447285 1422.059673250639 L474.0198910835463 1422.059673250639 L474.0198910835463 1264.053042889457 L632.0265214447285 1264.053042889457 L790.0331518059106 1264.053042889457 L790.0331518059106 1422.059673250639 L632.0265214447285 1422.059673250639 L632.0265214447285 1264.053042889457 L632.0265214447285 1106.046412528275 L790.0331518059106 1106.046412528275 L790.0331518059106 1264.053042889457 L632.0265214447285 1264.053042889457 L474.0198910835463 1264.053042889457 L474.0198910835463 1106.046412528275 L632.0265214447285 1106.046412528275 L632.0265214447285 1264.053042889457 Z" style="fill:rgb(31, 17, 8, 255)" />
  <path d="M 1896.0795643341853 1422.059673250639 L1738.0729339730033 1422.059673250639 L1738.0729339730033 1264.053042889457 L1896.0795643341853 1264.053042889457 L2054.0861946953673 1264.053042889457 L2054.0861946953673 1422.059673250639 L1896.0795643341853 1422.059673250639 L1896.0795643341853 1264.053042889457 L1896.0795643341853 1106.046412528275 L2054.0861946953673 1106.046412528275 L2054.0861946953673 1264.053042889457 L1896.0795643341853 1264.053042889457 L1738.0729339730033 1264.053042889457 L1738.0729339730033 1106.046412528275 L1896.0795643341853 1106.046412528275 L1896.0795643341853 1264.053042889457 Z" style="fill:rgb(31, 17, 8, 255)" />
  <path d="M 158.00663036118212 1580.0663036118212 L0 1580.0663036118212 L0 1422.059673250639 L158.00663036118212 1422.059673250639 L316.01326072236424 1422.059673250639 L316.01326072236424 1580.0663036118212 L158.00663036118212 1580.0663036118212 L158.00663036118212 1422.059673250639 L158.00663036118212 1264.053042889457 L316.01326072236424 1264.053042889457 L316.01326072236424 1422.059673250639 L158.00663036118212 1422.059673250639 L0 1422.059673250639 L0 1264.053042889457 L158.00663036118212 1264.053042889457 L158.00663036118212 1422.059673250639 Z" style="fill:rgb(0, 0, 0, 0)" />
  <path d="M 474.0198910835463 1580.0663036118212 L316.01326072236424 1580.0663036118212 L316.01326072236424 1422.059673250639 L474.0198910835463 1422.059673250639 L948.0397821670927 1422.059673250639 L948.0397821670927 1580.0663036118212 L790.0331518059106 1580.0663036118212 L790.0331518059106 1422.059673250639 L790.0331518059106 1264.053042889457 L948.0397821670927 1264.053042889457 L1738.0729339730033 1264.053042889457 L1738.0729339730033 1422.059673250639 L1738.0729339730033 1580.0663036118212 L1580.0663036118212 1580.0663036118212 L1580.0663036118212 1422.059673250639 L1738.0729339730033 1422.059673250639 L2212.09282505655 1422.059673250639 L2212.09282505655 1580.0663036118212 L2054.0861946953673 1580.0663036118212 L2054.0861946953673 1422.059673250639 L2054.0861946953673 1264.053042889457 L2212.09282505655 1264.053042889457 L2212.09282505655 1422.059673250639 L2212.09282505655 1738.0729339730033 L2054.0861946953673 1738.0729339730033 L2054.0861946953673 1580.0663036118212 L2212.09282505655 1580.0663036118212 L2370.099455417732 1580.0663036118212 L2370.099455417732 1738.0729339730033 L2370.099455417732 2212.09282505655 L2212.09282505655 2212.09282505655 L2212.09282505655 2054.0861946953673 L2370.099455417732 2054.0861946953673 L2528.106085778914 2054.0861946953673 L2528.106085778914 2212.09282505655 L2528.106085778914 2370.099455417732 L2370.099455417732 2370.099455417732 L2212.09282505655 2370.099455417732 L2212.09282505655 2212.09282505655 L2370.099455417732 2212.09282505655 L2370.099455417732 2370.099455417732 L2370.099455417732 2528.106085778914 L2212.09282505655 2528.106085778914 L2054.0861946953673 2528.106085778914 L2054.0861946953673 2370.099455417732 L2212.09282505655 2370.099455417732 L2212.09282505655 2528.106085778914 L2212.09282505655 2686.112716140096 L2054.0861946953673 2686.112716140096 L316.01326072236424 2686.112716140096 L316.01326072236424 2528.106085778914 L316.01326072236424 2370.099455417732 L474.0198910835463 2370.099455417732 L474.0198910835463 2528.106085778914 L316.01326072236424 2528.106085778914 L158.00663036118212 2528.106085778914 L158.00663036118212 2370.099455417732 L158.00663036118212 2212.09282505655 L316.01326072236424 2212.09282505655 L316.01326072236424 2370.099455417732 L158.00663036118212 2370.099455417732 L0 2370.099455417732 L0 2212.09282505655 L0 2054.0861946953673 L158.00663036118212 2054.0861946953673 L316.01326072236424 2054.0861946953673 L316.01326072236424 2212.09282505655 L158.00663036118212 2212.09282505655 L158.00663036118212 2054.0861946953673 L158.00663036118212 1580.0663036118212 L316.01326072236424 1580.0663036118212 L474.0198910835463 1580.0663036118212 L474.0198910835463 1738.0729339730033 L316.01326072236424 1738.0729339730033 L316.01326072236424 1580.0663036118212 L316.01326072236424 1264.053042889457 L474.0198910835463 1264.053042889457 L474.0198910835463 1422.059673250639 Z" style="fill:rgb(31, 17, 8, 255)" />
  <path d="M 1106.046412528275 1738.0729339730033 L948.0397821670927 1738.0729339730033 L948.0397821670927 1580.0663036118212 L1106.046412528275 1580.0663036118212 L1264.053042889457 1580.0663036118212 L1264.053042889457 1738.0729339730033 L1106.046412528275 1738.0729339730033 L1106.046412528275 1580.0663036118212 L1106.046412528275 1422.059673250639 L1264.053042889457 1422.059673250639 L1264.053042889457 1580.0663036118212 L1106.046412528275 1580.0663036118212 L948.0397821670927 1580.0663036118212 L948.0397821670927 1422.059673250639 L1106.046412528275 1422.059673250639 L1106.046412528275 1580.0663036118212 Z" style="fill:rgb(31, 17, 8, 255)" />
  <path d="M 1422.059673250639 1738.0729339730033 L1264.053042889457 1738.0729339730033 L1264.053042889457 1580.0663036118212 L1422.059673250639 1580.0663036118212 L1580.0663036118212 1580.0663036118212 L1580.0663036118212 1738.0729339730033 L1422.059673250639 1738.0729339730033 L1422.059673250639 1580.0663036118212 L1422.059673250639 1422.059673250639 L1580.0663036118212 1422.059673250639 L1580.0663036118212 1580.0663036118212 L1422.059673250639 1580.0663036118212 L1264.053042889457 1580.0663036118212 L1264.053042889457 1422.059673250639 L1422.059673250639 1422.059673250639 L1422.059673250639 1580.0663036118212 Z" style="fill:rgb(31, 17, 8, 255)" />
  <path d="M 158.00663036118212 2054.0861946953673 L0 2054.0861946953673 L0 1896.0795643341853 L0 1580.0663036118212 L158.00663036118212 1580.0663036118212 L158.00663036118212 1738.0729339730033 Z" style="fill:rgb(0, 0, 0, 0)" />
  <path d="M 632.0265214447285 1896.0795643341853 L474.0198910835463 1896.0795643341853 L474.0198910835463 1738.0729339730033 L632.0265214447285 1738.0729339730033 L790.0331518059106 1738.0729339730033 L790.0331518059106 1896.0795643341853 L632.0265214447285 1896.0795643341853 L632.0265214447285 1738.0729339730033 L632.0265214447285 1580.0663036118212 L790.0331518059106 1580.0663036118212 L790.0331518059106 1738.0729339730033 L632.0265214447285 1738.0729339730033 L474.0198910835463 1738.0729339730033 L474.0198910835463 1580.0663036118212 L632.0265214447285 1580.0663036118212 L632.0265214447285 1738.0729339730033 Z" style="fill:rgb(31, 17, 8, 255)" />
  <path d="M 948.0397821670927 1896.0795643341853 L790.0331518059106 1896.0795643341853 L790.0331518059106 1738.0729339730033 L948.0397821670927 1738.0729339730033 L1738.0729339730033 1738.0729339730033 L1738.0729339730033 1896.0795643341853 L1580.0663036118212 1896.0795643341853 L1580.0663036118212 1738.0729339730033 L1580.0663036118212 1580.0663036118212 L1738.0729339730033 1580.0663036118212 L2054.0861946953673 1580.0663036118212 L2054.0861946953673 1738.0729339730033 L2054.0861946953673 1896.0795643341853 L1896.0795643341853 1896.0795643341853 L1896.0795643341853 1738.0729339730033 L2054.0861946953673 1738.0729339730033 L2212.09282505655 1738.0729339730033 L2212.09282505655 1896.0795643341853 L2054.0861946953673 1896.0795643341853 L1580.0663036118212 1896.0795643341853 L1580.0663036118212 1738.0729339730033 L1738.0729339730033 1738.0729339730033 L1738.0729339730033 1896.0795643341853 L1738.0729339730033 2054.0861946953673 L1580.0663036118212 2054.0861946953673 L790.0331518059106 2054.0861946953673 L790.0331518059106 1896.0795643341853 L790.0331518059106 1580.0663036118212 L948.0397821670927 1580.0663036118212 L948.0397821670927 1738.0729339730033 Z" style="fill:rgb(31, 17, 8, 255)" />
  <path d="M 316.01326072236424 1896.0795643341853 L316.01326072236424 1738.0729339730033 L474.0198910835463 1738.0729339730033 L474.0198910835463 1896.0795643341853 Z" style="fill:rgb(31, 17, 8, 255)" />
  <path d="M 474.0198910835463 2054.0861946953673 L316.01326072236424 2054.0861946953673 L316.01326072236424 1896.0795643341853 L474.0198910835463 1896.0795643341853 L790.0331518059106 1896.0795643341853 L790.0331518059106 2054.0861946953673 L790.0331518059106 2212.09282505655 L632.0265214447285 2212.09282505655 L632.0265214447285 2054.0861946953673 L790.0331518059106 2054.0861946953673 L1896.0795643341853 2054.0861946953673 L1896.0795643341853 2212.09282505655 L1738.0729339730033 2212.09282505655 L1738.0729339730033 2054.0861946953673 L1738.0729339730033 1896.0795643341853 L1896.0795643341853 1896.0795643341853 L2212.09282505655 1896.0795643341853 L2212.09282505655 2054.0861946953673 L2054.0861946953673 2054.0861946953673 L1896.0795643341853 2054.0861946953673 L1896.0795643341853 1896.0795643341853 L2054.0861946953673 1896.0795643341853 L2054.0861946953673 2054.0861946953673 L2054.0861946953673 2212.09282505655 L1896.0795643341853 2212.09282505655 L1580.0663036118212 2212.09282505655 L1580.0663036118212 2054.0861946953673 L1738.0729339730033 2054.0861946953673 L1738.0729339730033 2212.09282505655 L1738.0729339730033 2370.099455417732 L1580.0663036118212 2370.099455417732 L790.0331518059106 2370.099455417732 L790.0331518059106 2212.09282505655 L790.0331518059106 2054.0861946953673 L948.0397821670927 2054.0861946953673 L948.0397821670927 2212.09282505655 L790.0331518059106 2212.09282505655 L474.0198910835463 2212.09282505655 L474.0198910835463 2054.0861946953673 L474.0198910835463 1896.0795643341853 L632.0265214447285 1896.0795643341853 L632.0265214447285 2054.0861946953673 L474.0198910835463 2054.0861946953673 L316.01326072236424 2054.0861946953673 L316.01326072236424 1896.0795643341853 L474.0198910835463 1896.0795643341853 Z" style="fill:rgb(48, 29, 18, 255)" />
  <path d="M 474.0198910835463 2370.099455417732 L316.01326072236424 2370.099455417732 L316.01326072236424 2212.09282505655 L474.0198910835463 2212.09282505655 L790.0331518059106 2212.09282505655 L790.0331518059106 2370.099455417732 L790.0331518059106 2528.106085778914 L632.0265214447285 2528.106085778914 L632.0265214447285 2370.099455417732 L790.0331518059106 2370.099455417732 L1896.0795643341853 2370.099455417732 L1896.0795643341853 2528.106085778914 L1738.0729339730033 2528.106085778914 L1738.0729339730033 2370.099455417732 L1738.0729339730033 2212.09282505655 L1896.0795643341853 2212.09282505655 L2212.09282505655 2212.09282505655 L2212.09282505655 2370.099455417732 L2054.0861946953673 2370.099455417732 L2054.0861946953673 2212.09282505655 L2054.0861946953673 2054.0861946953673 L2212.09282505655 2054.0861946953673 L2212.09282505655 2212.09282505655 L2212.09282505655 2370.099455417732 L2054.0861946953673 2370.099455417732 L1896.0795643341853 2370.099455417732 L1896.0795643341853 2212.09282505655 L2054.0861946953673 2212.09282505655 L2054.0861946953673 2370.099455417732 L2054.0861946953673 2528.106085778914 L1896.0795643341853 2528.106085778914 L474.0198910835463 2528.106085778914 L474.0198910835463 2370.099455417732 L474.0198910835463 2212.09282505655 L632.0265214447285 2212.09282505655 L632.0265214447285 2370.099455417732 L474.0198910835463 2370.099455417732 L316.01326072236424 2370.099455417732 L316.01326072236424 2212.09282505655 L316.01326072236424 2054.0861946953673 L474.0198910835463 2054.0861946953673 L474.0198910835463 2212.09282505655 Z" style="fill:rgb(31, 17, 8, 255)" />
  <path d="M 158.00663036118212 2686.112716140096 L0 2686.112716140096 L0 2528.106085778914 L158.00663036118212 2528.106085778914 L316.01326072236424 2528.106085778914 L316.01326072236424 2686.112716140096 L316.01326072236424 2844.119346501278 L158.00663036118212 2844.119346501278 L158.00663036118212 2686.112716140096 L316.01326072236424 2686.112716140096 L474.0198910835463 2686.112716140096 L474.0198910835463 2844.119346501278 L474.0198910835463 3002.1259768624604 L316.01326072236424 3002.1259768624604 L158.00663036118212 3002.1259768624604 L158.00663036118212 2844.119346501278 L316.01326072236424 2844.119346501278 L316.01326072236424 3002.1259768624604 L316.01326072236424 3318.1392375848245 L158.00663036118212 3318.1392375848245 L0 3318.1392375848245 L0 3160.1326072236425 L0 2370.099455417732 L158.00663036118212 2370.099455417732 L158.00663036118212 2528.106085778914 Z" style="fill:rgb(0, 0, 0, 0)" />
  <path d="M 2528.106085778914 3318.1392375848245 L2370.099455417732 3318.1392375848245 L2212.09282505655 3318.1392375848245 L2212.09282505655 3160.1326072236425 L2212.09282505655 2844.119346501278 L2370.099455417732 2844.119346501278 L2370.099455417732 3002.1259768624604 L2212.09282505655 3002.1259768624604 L2054.0861946953673 3002.1259768624604 L2054.0861946953673 2844.119346501278 L2054.0861946953673 2686.112716140096 L2212.09282505655 2686.112716140096 L2370.099455417732 2686.112716140096 L2370.099455417732 2844.119346501278 L2212.09282505655 2844.119346501278 L2212.09282505655 2686.112716140096 L2212.09282505655 2528.106085778914 L2370.099455417732 2528.106085778914 L2528.106085778914 2528.106085778914 L2528.106085778914 2686.112716140096 L2370.099455417732 2686.112716140096 L2370.099455417732 2528.106085778914 L2370.099455417732 2370.099455417732 L2528.106085778914 2370.099455417732 L2528.106085778914 2528.106085778914 Z" style="fill:rgb(0, 0, 0, 0)" />
  <path d="M 632.0265214447285 3002.1259768624604 L474.0198910835463 3002.1259768624604 L474.0198910835463 2844.119346501278 L632.0265214447285 2844.119346501278 L790.0331518059106 2844.119346501278 L790.0331518059106 3002.1259768624604 L632.0265214447285 3002.1259768624604 L632.0265214447285 2844.119346501278 L632.0265214447285 2686.112716140096 L790.0331518059106 2686.112716140096 L790.0331518059106 2844.119346501278 L632.0265214447285 2844.119346501278 L474.0198910835463 2844.119346501278 L474.0198910835463 2686.112716140096 L632.0265214447285 2686.112716140096 L632.0265214447285 2844.119346501278 Z" style="fill:rgb(11, 33, 9, 255)" />
  <path d="M 948.0397821670927 3002.1259768624604 L790.0331518059106 3002.1259768624604 L790.0331518059106 2844.119346501278 L948.0397821670927 2844.119346501278 L1106.046412528275 2844.119346501278 L1106.046412528275 3002.1259768624604 L948.0397821670927 3002.1259768624604 L948.0397821670927 2844.119346501278 L948.0397821670927 2686.112716140096 L1106.046412528275 2686.112716140096 L1106.046412528275 2844.119346501278 L948.0397821670927 2844.119346501278 L790.0331518059106 2844.119346501278 L790.0331518059106 2686.112716140096 L948.0397821670927 2686.112716140096 L948.0397821670927 2844.119346501278 Z" style="fill:rgb(11, 33, 9, 255)" />
  <path d="M 1264.053042889457 3002.1259768624604 L1106.046412528275 3002.1259768624604 L1106.046412528275 2844.119346501278 L1264.053042889457 2844.119346501278 L1422.059673250639 2844.119346501278 L1422.059673250639 3002.1259768624604 L1264.053042889457 3002.1259768624604 L1264.053042889457 2844.119346501278 L1264.053042889457 2686.112716140096 L1422.059673250639 2686.112716140096 L1422.059673250639 2844.119346501278 L1264.053042889457 2844.119346501278 L1106.046412528275 2844.119346501278 L1106.046412528275 2686.112716140096 L1264.053042889457 2686.112716140096 L1264.053042889457 2844.119346501278 Z" style="fill:rgb(11, 33, 9, 255)" />
  <path d="M 1580.0663036118212 3002.1259768624604 L1422.059673250639 3002.1259768624604 L1422.059673250639 2844.119346501278 L1580.0663036118212 2844.119346501278 L1738.0729339730033 2844.119346501278 L1738.0729339730033 3002.1259768624604 L1580.0663036118212 3002.1259768624604 L1580.0663036118212 2844.119346501278 L1580.0663036118212 2686.112716140096 L1738.0729339730033 2686.112716140096 L1738.0729339730033 2844.119346501278 L1580.0663036118212 2844.119346501278 L1422.059673250639 2844.119346501278 L1422.059673250639 2686.112716140096 L1580.0663036118212 2686.112716140096 L1580.0663036118212 2844.119346501278 Z" style="fill:rgb(11, 33, 9, 255)" />
  <path d="M 1896.0795643341853 3002.1259768624604 L1738.0729339730033 3002.1259768624604 L1738.0729339730033 2844.119346501278 L1896.0795643341853 2844.119346501278 L2054.0861946953673 2844.119346501278 L2054.0861946953673 3002.1259768624604 L1896.0795643341853 3002.1259768624604 L1896.0795643341853 2844.119346501278 L1896.0795643341853 2686.112716140096 L2054.0861946953673 2686.112716140096 L2054.0861946953673 2844.119346501278 L1896.0795643341853 2844.119346501278 L1738.0729339730033 2844.119346501278 L1738.0729339730033 2686.112716140096 L1896.0795643341853 2686.112716140096 L1896.0795643341853 2844.119346501278 Z" style="fill:rgb(11, 33, 9, 255)" />
  <path d="M 474.0198910835463 3318.1392375848245 L316.01326072236424 3318.1392375848245 L316.01326072236424 3160.1326072236425 L474.0198910835463 3160.1326072236425 L790.0331518059106 3160.1326072236425 L790.0331518059106 3318.1392375848245 L632.0265214447285 3318.1392375848245 L316.01326072236424 3318.1392375848245 L316.01326072236424 3160.1326072236425 L316.01326072236424 3002.1259768624604 L474.0198910835463 3002.1259768624604 L474.0198910835463 3160.1326072236425 Z" style="fill:rgb(49, 54, 56, 255)" />
  <path d="M 632.0265214447285 3160.1326072236425 L474.0198910835463 3160.1326072236425 L474.0198910835463 3002.1259768624604 L632.0265214447285 3002.1259768624604 L2054.0861946953673 3002.1259768624604 L2054.0861946953673 3160.1326072236425 L1896.0795643341853 3160.1326072236425 L474.0198910835463 3160.1326072236425 L474.0198910835463 3002.1259768624604 L632.0265214447285 3002.1259768624604 Z" style="fill:rgb(11, 33, 9, 255)" />
  <path d="M 2212.09282505655 3318.1392375848245 L2054.0861946953673 3318.1392375848245 L1738.0729339730033 3318.1392375848245 L1738.0729339730033 3160.1326072236425 L1896.0795643341853 3160.1326072236425 L2212.09282505655 3160.1326072236425 L2212.09282505655 3318.1392375848245 L2054.0861946953673 3318.1392375848245 L2054.0861946953673 3160.1326072236425 L2054.0861946953673 3002.1259768624604 L2212.09282505655 3002.1259768624604 L2212.09282505655 3160.1326072236425 Z" style="fill:rgb(49, 54, 56, 255)" />
  <path d="M 790.0331518059106 3318.1392375848245 L790.0331518059106 3160.1326072236425 L948.0397821670927 3160.1326072236425 L948.0397821670927 3318.1392375848245 Z" style="fill:rgb(70, 0, 0, 255)" />
  <path d="M 1106.046412528275 3318.1392375848245 L948.0397821670927 3318.1392375848245 L948.0397821670927 3160.1326072236425 L1106.046412528275 3160.1326072236425 L1580.0663036118212 3160.1326072236425 L1580.0663036118212 3318.1392375848245 L1422.059673250639 3318.1392375848245 L948.0397821670927 3318.1392375848245 L948.0397821670927 3160.1326072236425 L1106.046412528275 3160.1326072236425 Z" style="fill:rgb(49, 54, 56, 255)" />
  <path d="M 1580.0663036118212 3318.1392375848245 L1580.0663036118212 3160.1326072236425 L1738.0729339730033 3160.1326072236425 L1738.0729339730033 3318.1392375848245 Z" style="fill:rgb(70, 0, 0, 255)" />
</svg>
