<?xml version="1.0" encoding="UTF-8" ?>
<svg width="5228.8285778266145" height="1604.2996772877111" xmlns="http://www.w3.org/2000/svg">
  <path d="M 0 59.418506566211526 L0 0 L59.418506566211526 0 L59.418506566211526 59.418506566211526 Z" style="fill:rgb(0, 0, 0, 0)" />
  <path d="M 118.83701313242305 59.418506566211526 L59.418506566211526 59.418506566211526 L59.418506566211526 0 L118.83701313242305 0 L5169.410071260403 0 L5169.410071260403 59.418506566211526 L5109.991564694191 59.418506566211526 L59.418506566211526 59.418506566211526 L59.418506566211526 0 L118.83701313242305 0 Z" style="fill:rgb(64, 27, 0, 255)" />
  <path d="M 5169.410071260403 59.418506566211526 L5169.410071260403 0 L5228.8285778266145 0 L5228.8285778266145 59.418506566211526 Z" style="fill:rgb(0, 0, 0, 0)" />
  <path d="M 59.418506566211526 1544.8811707214998 L0 1544.8811707214998 L0 1485.4626641552882 L0 59.418506566211526 L59.418506566211526 59.418506566211526 L59.418506566211526 118.83701313242305 Z" style="fill:rgb(64, 27, 0, 255)" />
  <path d="M 118.83701313242305 178.25551969863457 L59.418506566211526 178.25551969863457 L59.418506566211526 118.83701313242305 L118.83701313242305 118.83701313242305 L178.25551969863457 118.83701313242305 L178.25551969863457 178.25551969863457 L118.83701313242305 178.25551969863457 L118.83701313242305 118.83701313242305 L118.83701313242305 59.418506566211526 L178.25551969863457 59.418506566211526 L178.25551969863457 118.83701313242305 L118.83701313242305 118.83701313242305 L59.418506566211526 118.83701313242305 L59.418506566211526 59.418506566211526 L118.83701313242305 59.418506566211526 L118.83701313242305 118.83701313242305 Z" style="fill:rgb(243, 158, 97, 255)" />
  <path d="M 178.25551969863457 118.83701313242305 L178.25551969863457 59.418506566211526 L237.6740262648461 59.418506566211526 L237.6740262648461 118.83701313242305 Z" style="fill:rgb(243, 158, 97, 255)" />
  <path d="M 297.0925328310576 178.25551969863457 L237.6740262648461 178.25551969863457 L237.6740262648461 118.83701313242305 L297.0925328310576 118.83701313242305 L415.9295459634807 118.83701313242305 L415.9295459634807 178.25551969863457 L415.9295459634807 237.6740262648461 L356.51103939726914 237.6740262648461 L356.51103939726914 178.25551969863457 L415.9295459634807 178.25551969863457 L594.1850656621152 178.25551969863457 L594.1850656621152 237.6740262648461 L534.7665590959037 237.6740262648461 L534.7665590959037 178.25551969863457 L534.7665590959037 118.83701313242305 L594.1850656621152 118.83701313242305 L653.6035722283268 118.83701313242305 L653.6035722283268 178.25551969863457 L594.1850656621152 178.25551969863457 L594.1850656621152 118.83701313242305 L594.1850656621152 59.418506566211526 L653.6035722283268 59.418506566211526 L713.0220787945383 59.418506566211526 L713.0220787945383 118.83701313242305 L713.0220787945383 178.25551969863457 L653.6035722283268 178.25551969863457 L653.6035722283268 118.83701313242305 L713.0220787945383 118.83701313242305 L831.8590919269614 118.83701313242305 L831.8590919269614 178.25551969863457 L772.4405853607499 178.25551969863457 L772.4405853607499 118.83701313242305 L772.4405853607499 59.418506566211526 L831.8590919269614 59.418506566211526 L891.277598493173 59.418506566211526 L891.277598493173 118.83701313242305 L891.277598493173 178.25551969863457 L831.8590919269614 178.25551969863457 L831.8590919269614 118.83701313242305 L891.277598493173 118.83701313242305 L1069.5331181918075 118.83701313242305 L1069.5331181918075 178.25551969863457 L1010.1146116255959 178.25551969863457 L1010.1146116255959 118.83701313242305 L1010.1146116255959 59.418506566211526 L1069.5331181918075 59.418506566211526 L1069.5331181918075 118.83701313242305 L1069.5331181918075 178.25551969863457 L1010.1146116255959 178.25551969863457 L1010.1146116255959 118.83701313242305 L1069.5331181918075 118.83701313242305 L1128.951624758019 118.83701313242305 L1128.951624758019 178.25551969863457 L1128.951624758019 237.6740262648461 L1069.5331181918075 237.6740262648461 L1069.5331181918075 178.25551969863457 L1128.951624758019 178.25551969863457 L1307.2071444566536 178.25551969863457 L1307.2071444566536 237.6740262648461 L1247.788637890442 237.6740262648461 L1247.788637890442 178.25551969863457 L1247.788637890442 59.418506566211526 L1307.2071444566536 59.418506566211526 L1307.2071444566536 118.83701313242305 L1307.2071444566536 178.25551969863457 L1247.788637890442 178.25551969863457 L1247.788637890442 118.83701313242305 L1307.2071444566536 118.83701313242305 L1485.4626641552882 118.83701313242305 L1485.4626641552882 178.25551969863457 L1426.0441575890766 178.25551969863457 L1426.0441575890766 118.83701313242305 L1426.0441575890766 59.418506566211526 L1485.4626641552882 59.418506566211526 L1544.8811707214998 59.418506566211526 L1544.8811707214998 118.83701313242305 L1544.8811707214998 178.25551969863457 L1485.4626641552882 178.25551969863457 L1485.4626641552882 118.83701313242305 L1544.8811707214998 118.83701313242305 L1663.7181838539227 118.83701313242305 L1663.7181838539227 178.25551969863457 L1663.7181838539227 237.6740262648461 L1604.2996772877111 237.6740262648461 L1604.2996772877111 178.25551969863457 L1663.7181838539227 178.25551969863457 L1841.9737035525573 178.25551969863457 L1841.9737035525573 237.6740262648461 L1782.555196986346 237.6740262648461 L1782.555196986346 178.25551969863457 L1782.555196986346 59.418506566211526 L1841.9737035525573 59.418506566211526 L1901.3922101187688 59.418506566211526 L1901.3922101187688 118.83701313242305 L1901.3922101187688 178.25551969863457 L1841.9737035525573 178.25551969863457 L1841.9737035525573 118.83701313242305 L1901.3922101187688 118.83701313242305 L2079.6477298174036 118.83701313242305 L2079.6477298174036 178.25551969863457 L2020.2292232511918 178.25551969863457 L2020.2292232511918 118.83701313242305 L2020.2292232511918 59.418506566211526 L2079.6477298174036 59.418506566211526 L2079.6477298174036 118.83701313242305 L2079.6477298174036 178.25551969863457 L2020.2292232511918 178.25551969863457 L2020.2292232511918 118.83701313242305 L2079.6477298174036 118.83701313242305 L2436.1587692146727 118.83701313242305 L2436.1587692146727 178.25551969863457 L2436.1587692146727 237.6740262648461 L2376.740262648461 237.6740262648461 L2376.740262648461 178.25551969863457 L2436.1587692146727 178.25551969863457 L2614.4142889133072 178.25551969863457 L2614.4142889133072 237.6740262648461 L2554.9957823470954 237.6740262648461 L2554.9957823470954 178.25551969863457 L2554.9957823470954 118.83701313242305 L2614.4142889133072 118.83701313242305 L2673.8327954795186 118.83701313242305 L2673.8327954795186 178.25551969863457 L2614.4142889133072 178.25551969863457 L2614.4142889133072 118.83701313242305 L2614.4142889133072 59.418506566211526 L2673.8327954795186 59.418506566211526 L2673.8327954795186 118.83701313242305 L2673.8327954795186 178.25551969863457 L2614.4142889133072 178.25551969863457 L2614.4142889133072 118.83701313242305 L2673.8327954795186 118.83701313242305 L2792.669808611942 118.83701313242305 L2792.669808611942 178.25551969863457 L2733.2513020457304 178.25551969863457 L2733.2513020457304 118.83701313242305 L2733.2513020457304 59.418506566211526 L2792.669808611942 59.418506566211526 L2911.506821744365 59.418506566211526 L2911.506821744365 118.83701313242305 L2911.506821744365 178.25551969863457 L2852.088315178153 178.25551969863457 L2852.088315178153 118.83701313242305 L2911.506821744365 118.83701313242305 L3089.7623414429995 118.83701313242305 L3089.7623414429995 178.25551969863457 L3030.3438348767877 178.25551969863457 L3030.3438348767877 118.83701313242305 L3030.3438348767877 59.418506566211526 L3089.7623414429995 59.418506566211526 L3149.180848009211 59.418506566211526 L3149.180848009211 118.83701313242305 L3149.180848009211 178.25551969863457 L3089.7623414429995 178.25551969863457 L3089.7623414429995 118.83701313242305 L3149.180848009211 118.83701313242305 L3327.4363677078454 118.83701313242305 L3327.4363677078454 178.25551969863457 L3327.4363677078454 237.6740262648461 L3268.017861141634 237.6740262648461 L3268.017861141634 178.25551969863457 L3327.4363677078454 178.25551969863457 L3505.69188740648 178.25551969863457 L3505.69188740648 237.6740262648461 L3446.2733808402686 237.6740262648461 L3446.2733808402686 178.25551969863457 L3446.2733808402686 118.83701313242305 L3505.69188740648 118.83701313242305 L3624.528900538903 118.83701313242305 L3624.528900538903 178.25551969863457 L3565.110393972692 178.25551969863457 L3565.110393972692 118.83701313242305 L3565.110393972692 59.418506566211526 L3624.528900538903 59.418506566211526 L3743.3659136713263 59.418506566211526 L3743.3659136713263 118.83701313242305 L3743.3659136713263 178.25551969863457 L3683.9474071051145 178.25551969863457 L3683.9474071051145 118.83701313242305 L3743.3659136713263 118.83701313242305 L3802.7844202375377 118.83701313242305 L3802.7844202375377 178.25551969863457 L3802.7844202375377 237.6740262648461 L3743.3659136713263 237.6740262648461 L3743.3659136713263 178.25551969863457 L3802.7844202375377 178.25551969863457 L3981.0399399361722 178.25551969863457 L3981.0399399361722 237.6740262648461 L3921.621433369961 237.6740262648461 L3921.621433369961 178.25551969863457 L3921.621433369961 118.83701313242305 L3981.0399399361722 118.83701313242305 L4040.4584465023836 118.83701313242305 L4040.4584465023836 178.25551969863457 L3981.0399399361722 178.25551969863457 L3981.0399399361722 118.83701313242305 L3981.0399399361722 59.418506566211526 L4040.4584465023836 59.418506566211526 L4159.295459634807 59.418506566211526 L4159.295459634807 118.83701313242305 L4159.295459634807 178.25551969863457 L4099.876953068595 178.25551969863457 L4099.876953068595 118.83701313242305 L4159.295459634807 118.83701313242305 L4218.713966201019 118.83701313242305 L4218.713966201019 178.25551969863457 L4218.713966201019 237.6740262648461 L4159.295459634807 237.6740262648461 L4159.295459634807 178.25551969863457 L4218.713966201019 178.25551969863457 L4396.969485899653 178.25551969863457 L4396.969485899653 237.6740262648461 L4337.550979333441 237.6740262648461 L4337.550979333441 178.25551969863457 L4337.550979333441 118.83701313242305 L4396.969485899653 118.83701313242305 L4456.387992465864 118.83701313242305 L4456.387992465864 178.25551969863457 L4396.969485899653 178.25551969863457 L4396.969485899653 118.83701313242305 L4396.969485899653 59.418506566211526 L4456.387992465864 59.418506566211526 L4515.806499032076 59.418506566211526 L4515.806499032076 118.83701313242305 L4515.806499032076 178.25551969863457 L4456.387992465864 178.25551969863457 L4456.387992465864 118.83701313242305 L4515.806499032076 118.83701313242305 L4634.643512164499 118.83701313242305 L4634.643512164499 178.25551969863457 L4634.643512164499 237.6740262648461 L4575.225005598288 237.6740262648461 L4575.225005598288 178.25551969863457 L4634.643512164499 178.25551969863457 L4812.899031863134 178.25551969863457 L4812.899031863134 237.6740262648461 L4753.480525296922 237.6740262648461 L4753.480525296922 178.25551969863457 L4753.480525296922 59.418506566211526 L4812.899031863134 59.418506566211526 L4812.899031863134 118.83701313242305 L4812.899031863134 178.25551969863457 L4753.480525296922 178.25551969863457 L4753.480525296922 118.83701313242305 L4812.899031863134 118.83701313242305 L4991.154551561768 118.83701313242305 L4991.154551561768 178.25551969863457 L4991.154551561768 237.6740262648461 L4931.736044995557 237.6740262648461 L4931.736044995557 178.25551969863457 L4991.154551561768 178.25551969863457 L5109.991564694191 178.25551969863457 L5109.991564694191 237.6740262648461 L5109.991564694191 297.0925328310576 L5050.5730581279795 297.0925328310576 L5050.5730581279795 237.6740262648461 L5109.991564694191 237.6740262648461 L5169.410071260403 237.6740262648461 L5169.410071260403 297.0925328310576 L5109.991564694191 297.0925328310576 L5050.5730581279795 297.0925328310576 L5050.5730581279795 237.6740262648461 L5109.991564694191 237.6740262648461 L5109.991564694191 297.0925328310576 L5109.991564694191 356.51103939726914 L5050.5730581279795 356.51103939726914 L4991.154551561768 356.51103939726914 L4991.154551561768 297.0925328310576 L5050.5730581279795 297.0925328310576 L5050.5730581279795 356.51103939726914 L5050.5730581279795 534.7665590959037 L4991.154551561768 534.7665590959037 L4991.154551561768 475.3480525296922 L5050.5730581279795 475.3480525296922 L5109.991564694191 475.3480525296922 L5109.991564694191 534.7665590959037 L5109.991564694191 594.1850656621152 L5050.5730581279795 594.1850656621152 L5050.5730581279795 534.7665590959037 L5109.991564694191 534.7665590959037 L5169.410071260403 534.7665590959037 L5169.410071260403 594.1850656621152 L5109.991564694191 594.1850656621152 L5050.5730581279795 594.1850656621152 L5050.5730581279795 534.7665590959037 L5109.991564694191 534.7665590959037 L5109.991564694191 594.1850656621152 L5109.991564694191 950.6961050593844 L5050.5730581279795 950.6961050593844 L4991.154551561768 950.6961050593844 L4991.154551561768 891.277598493173 L5050.5730581279795 891.277598493173 L5050.5730581279795 950.6961050593844 L5050.5730581279795 1128.951624758019 L4991.154551561768 1128.951624758019 L4991.154551561768 1069.5331181918075 L5050.5730581279795 1069.5331181918075 L5169.410071260403 1069.5331181918075 L5169.410071260403 1128.951624758019 L5109.991564694191 1128.951624758019 L5050.5730581279795 1128.951624758019 L5050.5730581279795 1069.5331181918075 L5109.991564694191 1069.5331181918075 L5109.991564694191 1128.951624758019 L5109.991564694191 1247.788637890442 L5050.5730581279795 1247.788637890442 L4991.154551561768 1247.788637890442 L4991.154551561768 1188.3701313242304 L5050.5730581279795 1188.3701313242304 L5050.5730581279795 1247.788637890442 L5050.5730581279795 1307.2071444566536 L4991.154551561768 1307.2071444566536 L4991.154551561768 1247.788637890442 L4991.154551561768 1188.3701313242304 L5050.5730581279795 1188.3701313242304 L5050.5730581279795 1247.788637890442 L4991.154551561768 1247.788637890442 L4515.806499032076 1247.788637890442 L4515.806499032076 1188.3701313242304 L4575.225005598288 1188.3701313242304 L4575.225005598288 1247.788637890442 L4575.225005598288 1307.2071444566536 L4515.806499032076 1307.2071444566536 L4515.806499032076 1247.788637890442 L4515.806499032076 1188.3701313242304 L4575.225005598288 1188.3701313242304 L4575.225005598288 1247.788637890442 L4515.806499032076 1247.788637890442 L4218.713966201019 1247.788637890442 L4218.713966201019 1188.3701313242304 L4278.13247276723 1188.3701313242304 L4278.13247276723 1247.788637890442 L4278.13247276723 1307.2071444566536 L4218.713966201019 1307.2071444566536 L4159.295459634807 1307.2071444566536 L4159.295459634807 1247.788637890442 L4159.295459634807 1188.3701313242304 L4218.713966201019 1188.3701313242304 L4218.713966201019 1247.788637890442 L4159.295459634807 1247.788637890442 L3683.9474071051145 1247.788637890442 L3683.9474071051145 1188.3701313242304 L3743.3659136713263 1188.3701313242304 L3743.3659136713263 1247.788637890442 L3743.3659136713263 1307.2071444566536 L3683.9474071051145 1307.2071444566536 L3624.528900538903 1307.2071444566536 L3624.528900538903 1247.788637890442 L3624.528900538903 1188.3701313242304 L3683.9474071051145 1188.3701313242304 L3683.9474071051145 1247.788637890442 L3624.528900538903 1247.788637890442 L3149.180848009211 1247.788637890442 L3149.180848009211 1188.3701313242304 L3208.5993545754222 1188.3701313242304 L3208.5993545754222 1247.788637890442 L3208.5993545754222 1307.2071444566536 L3149.180848009211 1307.2071444566536 L3089.7623414429995 1307.2071444566536 L3089.7623414429995 1247.788637890442 L3089.7623414429995 1188.3701313242304 L3149.180848009211 1188.3701313242304 L3149.180848009211 1247.788637890442 L3089.7623414429995 1247.788637890442 L2436.1587692146727 1247.788637890442 L2436.1587692146727 1188.3701313242304 L2495.577275780884 1188.3701313242304 L2495.577275780884 1247.788637890442 L2495.577275780884 1307.2071444566536 L2436.1587692146727 1307.2071444566536 L2198.4847429498263 1307.2071444566536 L2198.4847429498263 1247.788637890442 L2198.4847429498263 1188.3701313242304 L2257.903249516038 1188.3701313242304 L2257.903249516038 1247.788637890442 L2198.4847429498263 1247.788637890442 L1782.555196986346 1247.788637890442 L1782.555196986346 1188.3701313242304 L1841.9737035525573 1188.3701313242304 L1841.9737035525573 1247.788637890442 L1841.9737035525573 1307.2071444566536 L1782.555196986346 1307.2071444566536 L1723.1366904201343 1307.2071444566536 L1723.1366904201343 1247.788637890442 L1723.1366904201343 1188.3701313242304 L1782.555196986346 1188.3701313242304 L1782.555196986346 1247.788637890442 L1723.1366904201343 1247.788637890442 L1307.2071444566536 1247.788637890442 L1307.2071444566536 1188.3701313242304 L1366.6256510228652 1188.3701313242304 L1366.6256510228652 1247.788637890442 L1366.6256510228652 1307.2071444566536 L1307.2071444566536 1307.2071444566536 L1247.788637890442 1307.2071444566536 L1247.788637890442 1247.788637890442 L1247.788637890442 1188.3701313242304 L1307.2071444566536 1188.3701313242304 L1307.2071444566536 1247.788637890442 L1247.788637890442 1247.788637890442 L1069.5331181918075 1247.788637890442 L1069.5331181918075 1188.3701313242304 L1128.951624758019 1188.3701313242304 L1128.951624758019 1247.788637890442 L1128.951624758019 1307.2071444566536 L1069.5331181918075 1307.2071444566536 L1010.1146116255959 1307.2071444566536 L1010.1146116255959 1247.788637890442 L1010.1146116255959 1188.3701313242304 L1069.5331181918075 1188.3701313242304 L1069.5331181918075 1247.788637890442 L1010.1146116255959 1247.788637890442 L594.1850656621152 1247.788637890442 L594.1850656621152 1188.3701313242304 L653.6035722283268 1188.3701313242304 L653.6035722283268 1247.788637890442 L653.6035722283268 1307.2071444566536 L594.1850656621152 1307.2071444566536 L475.3480525296922 1307.2071444566536 L475.3480525296922 1247.788637890442 L475.3480525296922 1188.3701313242304 L534.7665590959037 1188.3701313242304 L534.7665590959037 1247.788637890442 L475.3480525296922 1247.788637890442 L237.6740262648461 1247.788637890442 L237.6740262648461 1188.3701313242304 L297.0925328310576 1188.3701313242304 L297.0925328310576 1247.788637890442 L297.0925328310576 1307.2071444566536 L237.6740262648461 1307.2071444566536 L178.25551969863457 1307.2071444566536 L178.25551969863457 1247.788637890442 L178.25551969863457 1188.3701313242304 L237.6740262648461 1188.3701313242304 L237.6740262648461 1247.788637890442 L178.25551969863457 1247.788637890442 L118.83701313242305 1247.788637890442 L118.83701313242305 1188.3701313242304 L118.83701313242305 534.7665590959037 L178.25551969863457 534.7665590959037 L237.6740262648461 534.7665590959037 L237.6740262648461 594.1850656621152 L178.25551969863457 594.1850656621152 L178.25551969863457 534.7665590959037 L178.25551969863457 356.51103939726914 L237.6740262648461 356.51103939726914 L237.6740262648461 415.9295459634807 L178.25551969863457 415.9295459634807 L118.83701313242305 415.9295459634807 L118.83701313242305 356.51103939726914 L178.25551969863457 356.51103939726914 L237.6740262648461 356.51103939726914 L237.6740262648461 415.9295459634807 L178.25551969863457 415.9295459634807 L178.25551969863457 356.51103939726914 L178.25551969863457 178.25551969863457 L237.6740262648461 178.25551969863457 L237.6740262648461 237.6740262648461 L178.25551969863457 237.6740262648461 L118.83701313242305 237.6740262648461 L118.83701313242305 178.25551969863457 L178.25551969863457 178.25551969863457 L237.6740262648461 178.25551969863457 L237.6740262648461 237.6740262648461 L178.25551969863457 237.6740262648461 L178.25551969863457 178.25551969863457 L178.25551969863457 118.83701313242305 L237.6740262648461 118.83701313242305 L297.0925328310576 118.83701313242305 L297.0925328310576 178.25551969863457 L237.6740262648461 178.25551969863457 L237.6740262648461 118.83701313242305 L237.6740262648461 59.418506566211526 L297.0925328310576 59.418506566211526 L297.0925328310576 118.83701313242305 Z" style="fill:rgb(255, 201, 128, 255)" />
  <path d="M 356.51103939726914 118.83701313242305 L297.0925328310576 118.83701313242305 L297.0925328310576 59.418506566211526 L356.51103939726914 59.418506566211526 L594.1850656621152 59.418506566211526 L594.1850656621152 118.83701313242305 L534.7665590959037 118.83701313242305 L475.3480525296922 118.83701313242305 L475.3480525296922 59.418506566211526 L534.7665590959037 59.418506566211526 L534.7665590959037 118.83701313242305 L534.7665590959037 178.25551969863457 L475.3480525296922 178.25551969863457 L415.9295459634807 178.25551969863457 L415.9295459634807 118.83701313242305 L415.9295459634807 59.418506566211526 L475.3480525296922 59.418506566211526 L475.3480525296922 118.83701313242305 L415.9295459634807 118.83701313242305 L297.0925328310576 118.83701313242305 L297.0925328310576 59.418506566211526 L356.51103939726914 59.418506566211526 Z" style="fill:rgb(243, 158, 97, 255)" />
  <path d="M 713.0220787945383 118.83701313242305 L713.0220787945383 59.418506566211526 L772.4405853607499 59.418506566211526 L772.4405853607499 118.83701313242305 Z" style="fill:rgb(243, 158, 97, 255)" />
  <path d="M 950.6961050593844 118.83701313242305 L891.277598493173 118.83701313242305 L891.277598493173 59.418506566211526 L950.6961050593844 59.418506566211526 L1010.1146116255959 59.418506566211526 L1010.1146116255959 118.83701313242305 L950.6961050593844 118.83701313242305 L891.277598493173 118.83701313242305 L891.277598493173 59.418506566211526 L950.6961050593844 59.418506566211526 Z" style="fill:rgb(243, 158, 97, 255)" />
  <path d="M 1128.951624758019 118.83701313242305 L1069.5331181918075 118.83701313242305 L1069.5331181918075 59.418506566211526 L1128.951624758019 59.418506566211526 L1247.788637890442 59.418506566211526 L1247.788637890442 118.83701313242305 L1247.788637890442 178.25551969863457 L1188.3701313242304 178.25551969863457 L1128.951624758019 178.25551969863457 L1128.951624758019 118.83701313242305 L1128.951624758019 59.418506566211526 L1188.3701313242304 59.418506566211526 L1188.3701313242304 118.83701313242305 L1128.951624758019 118.83701313242305 L1069.5331181918075 118.83701313242305 L1069.5331181918075 59.418506566211526 L1128.951624758019 59.418506566211526 Z" style="fill:rgb(243, 158, 97, 255)" />
  <path d="M 1366.6256510228652 118.83701313242305 L1307.2071444566536 118.83701313242305 L1307.2071444566536 59.418506566211526 L1366.6256510228652 59.418506566211526 L1426.0441575890766 59.418506566211526 L1426.0441575890766 118.83701313242305 L1366.6256510228652 118.83701313242305 L1307.2071444566536 118.83701313242305 L1307.2071444566536 59.418506566211526 L1366.6256510228652 59.418506566211526 Z" style="fill:rgb(243, 158, 97, 255)" />
  <path d="M 1604.2996772877111 118.83701313242305 L1544.8811707214998 118.83701313242305 L1544.8811707214998 59.418506566211526 L1604.2996772877111 59.418506566211526 L1782.555196986346 59.418506566211526 L1782.555196986346 118.83701313242305 L1782.555196986346 178.25551969863457 L1723.1366904201343 178.25551969863457 L1663.7181838539227 178.25551969863457 L1663.7181838539227 118.83701313242305 L1663.7181838539227 59.418506566211526 L1723.1366904201343 59.418506566211526 L1723.1366904201343 118.83701313242305 L1663.7181838539227 118.83701313242305 L1544.8811707214998 118.83701313242305 L1544.8811707214998 59.418506566211526 L1604.2996772877111 59.418506566211526 Z" style="fill:rgb(243, 158, 97, 255)" />
  <path d="M 1960.8107166849804 118.83701313242305 L1901.3922101187688 118.83701313242305 L1901.3922101187688 59.418506566211526 L1960.8107166849804 59.418506566211526 L2020.2292232511918 59.418506566211526 L2020.2292232511918 118.83701313242305 L1960.8107166849804 118.83701313242305 L1901.3922101187688 118.83701313242305 L1901.3922101187688 59.418506566211526 L1960.8107166849804 59.418506566211526 Z" style="fill:rgb(243, 158, 97, 255)" />
  <path d="M 2139.066236383615 118.83701313242305 L2079.6477298174036 118.83701313242305 L2079.6477298174036 59.418506566211526 L2139.066236383615 59.418506566211526 L2614.4142889133072 59.418506566211526 L2614.4142889133072 118.83701313242305 L2554.9957823470954 118.83701313242305 L2495.577275780884 118.83701313242305 L2495.577275780884 59.418506566211526 L2554.9957823470954 59.418506566211526 L2554.9957823470954 118.83701313242305 L2554.9957823470954 178.25551969863457 L2495.577275780884 178.25551969863457 L2436.1587692146727 178.25551969863457 L2436.1587692146727 118.83701313242305 L2436.1587692146727 59.418506566211526 L2495.577275780884 59.418506566211526 L2495.577275780884 118.83701313242305 L2436.1587692146727 118.83701313242305 L2079.6477298174036 118.83701313242305 L2079.6477298174036 59.418506566211526 L2139.066236383615 59.418506566211526 Z" style="fill:rgb(243, 158, 97, 255)" />
  <path d="M 2673.8327954795186 118.83701313242305 L2673.8327954795186 59.418506566211526 L2733.2513020457304 59.418506566211526 L2733.2513020457304 118.83701313242305 Z" style="fill:rgb(243, 158, 97, 255)" />
  <path d="M 2970.9253283105763 118.83701313242305 L2911.506821744365 118.83701313242305 L2911.506821744365 59.418506566211526 L2970.9253283105763 59.418506566211526 L3030.3438348767877 59.418506566211526 L3030.3438348767877 118.83701313242305 L2970.9253283105763 118.83701313242305 L2911.506821744365 118.83701313242305 L2911.506821744365 59.418506566211526 L2970.9253283105763 59.418506566211526 Z" style="fill:rgb(243, 158, 97, 255)" />
  <path d="M 3208.5993545754222 118.83701313242305 L3149.180848009211 118.83701313242305 L3149.180848009211 59.418506566211526 L3208.5993545754222 59.418506566211526 L3565.110393972692 59.418506566211526 L3565.110393972692 118.83701313242305 L3505.69188740648 118.83701313242305 L3386.854874274057 118.83701313242305 L3386.854874274057 59.418506566211526 L3446.2733808402686 59.418506566211526 L3446.2733808402686 118.83701313242305 L3446.2733808402686 178.25551969863457 L3386.854874274057 178.25551969863457 L3327.4363677078454 178.25551969863457 L3327.4363677078454 118.83701313242305 L3327.4363677078454 59.418506566211526 L3386.854874274057 59.418506566211526 L3386.854874274057 118.83701313242305 L3327.4363677078454 118.83701313242305 L3149.180848009211 118.83701313242305 L3149.180848009211 59.418506566211526 L3208.5993545754222 59.418506566211526 Z" style="fill:rgb(243, 158, 97, 255)" />
  <path d="M 3802.7844202375377 118.83701313242305 L3743.3659136713263 118.83701313242305 L3743.3659136713263 59.418506566211526 L3802.7844202375377 59.418506566211526 L3981.0399399361722 59.418506566211526 L3981.0399399361722 118.83701313242305 L3921.621433369961 118.83701313242305 L3862.202926803749 118.83701313242305 L3862.202926803749 59.418506566211526 L3921.621433369961 59.418506566211526 L3921.621433369961 118.83701313242305 L3921.621433369961 178.25551969863457 L3862.202926803749 178.25551969863457 L3802.7844202375377 178.25551969863457 L3802.7844202375377 118.83701313242305 L3802.7844202375377 59.418506566211526 L3862.202926803749 59.418506566211526 L3862.202926803749 118.83701313242305 L3802.7844202375377 118.83701313242305 L3743.3659136713263 118.83701313242305 L3743.3659136713263 59.418506566211526 L3802.7844202375377 59.418506566211526 Z" style="fill:rgb(243, 158, 97, 255)" />
  <path d="M 4218.713966201019 118.83701313242305 L4159.295459634807 118.83701313242305 L4159.295459634807 59.418506566211526 L4218.713966201019 59.418506566211526 L4396.969485899653 59.418506566211526 L4396.969485899653 118.83701313242305 L4337.550979333441 118.83701313242305 L4278.13247276723 118.83701313242305 L4278.13247276723 59.418506566211526 L4337.550979333441 59.418506566211526 L4337.550979333441 118.83701313242305 L4337.550979333441 178.25551969863457 L4278.13247276723 178.25551969863457 L4218.713966201019 178.25551969863457 L4218.713966201019 118.83701313242305 L4218.713966201019 59.418506566211526 L4278.13247276723 59.418506566211526 L4278.13247276723 118.83701313242305 L4218.713966201019 118.83701313242305 L4159.295459634807 118.83701313242305 L4159.295459634807 59.418506566211526 L4218.713966201019 59.418506566211526 Z" style="fill:rgb(243, 158, 97, 255)" />
  <path d="M 4575.225005598288 118.83701313242305 L4515.806499032076 118.83701313242305 L4515.806499032076 59.418506566211526 L4575.225005598288 59.418506566211526 L4753.480525296922 59.418506566211526 L4753.480525296922 118.83701313242305 L4753.480525296922 178.25551969863457 L4694.06201873071 178.25551969863457 L4634.643512164499 178.25551969863457 L4634.643512164499 118.83701313242305 L4634.643512164499 59.418506566211526 L4694.06201873071 59.418506566211526 L4694.06201873071 118.83701313242305 L4634.643512164499 118.83701313242305 L4515.806499032076 118.83701313242305 L4515.806499032076 59.418506566211526 L4575.225005598288 59.418506566211526 Z" style="fill:rgb(243, 158, 97, 255)" />
  <path d="M 4872.317538429345 118.83701313242305 L4812.899031863134 118.83701313242305 L4812.899031863134 59.418506566211526 L4872.317538429345 59.418506566211526 L5169.410071260403 59.418506566211526 L5169.410071260403 118.83701313242305 L5169.410071260403 237.6740262648461 L5109.991564694191 237.6740262648461 L5109.991564694191 178.25551969863457 L5109.991564694191 118.83701313242305 L5169.410071260403 118.83701313242305 L5169.410071260403 178.25551969863457 L5109.991564694191 178.25551969863457 L4991.154551561768 178.25551969863457 L4991.154551561768 118.83701313242305 L4991.154551561768 59.418506566211526 L5050.5730581279795 59.418506566211526 L5050.5730581279795 118.83701313242305 L4991.154551561768 118.83701313242305 L4812.899031863134 118.83701313242305 L4812.899031863134 59.418506566211526 L4872.317538429345 59.418506566211526 Z" style="fill:rgb(243, 158, 97, 255)" />
  <path d="M 5228.8285778266145 1544.8811707214998 L5169.410071260403 1544.8811707214998 L5169.410071260403 1485.4626641552882 L5169.410071260403 59.418506566211526 L5228.8285778266145 59.418506566211526 L5228.8285778266145 118.83701313242305 Z" style="fill:rgb(64, 27, 0, 255)" />
  <path d="M 2852.088315178153 237.6740262648461 L2792.669808611942 237.6740262648461 L2792.669808611942 178.25551969863457 L2852.088315178153 178.25551969863457 L3268.017861141634 178.25551969863457 L3268.017861141634 237.6740262648461 L3268.017861141634 297.0925328310576 L3208.5993545754222 297.0925328310576 L3208.5993545754222 237.6740262648461 L3268.017861141634 237.6740262648461 L3565.110393972692 237.6740262648461 L3565.110393972692 297.0925328310576 L3505.69188740648 297.0925328310576 L3505.69188740648 237.6740262648461 L3505.69188740648 178.25551969863457 L3565.110393972692 178.25551969863457 L3683.9474071051145 178.25551969863457 L3683.9474071051145 237.6740262648461 L3624.528900538903 237.6740262648461 L3624.528900538903 178.25551969863457 L3624.528900538903 118.83701313242305 L3683.9474071051145 118.83701313242305 L3683.9474071051145 178.25551969863457 L3683.9474071051145 237.6740262648461 L3624.528900538903 237.6740262648461 L3624.528900538903 178.25551969863457 L3683.9474071051145 178.25551969863457 L3743.3659136713263 178.25551969863457 L3743.3659136713263 237.6740262648461 L3743.3659136713263 297.0925328310576 L3683.9474071051145 297.0925328310576 L3683.9474071051145 237.6740262648461 L3743.3659136713263 237.6740262648461 L4040.4584465023836 237.6740262648461 L4040.4584465023836 297.0925328310576 L3981.0399399361722 297.0925328310576 L3981.0399399361722 237.6740262648461 L3981.0399399361722 178.25551969863457 L4040.4584465023836 178.25551969863457 L4099.876953068595 178.25551969863457 L4099.876953068595 237.6740262648461 L4040.4584465023836 237.6740262648461 L4040.4584465023836 178.25551969863457 L4040.4584465023836 118.83701313242305 L4099.876953068595 118.83701313242305 L4099.876953068595 178.25551969863457 L4099.876953068595 237.6740262648461 L4040.4584465023836 237.6740262648461 L4040.4584465023836 178.25551969863457 L4099.876953068595 178.25551969863457 L4159.295459634807 178.25551969863457 L4159.295459634807 237.6740262648461 L4159.295459634807 297.0925328310576 L4099.876953068595 297.0925328310576 L4099.876953068595 237.6740262648461 L4159.295459634807 237.6740262648461 L4456.387992465864 237.6740262648461 L4456.387992465864 297.0925328310576 L4396.969485899653 297.0925328310576 L4396.969485899653 237.6740262648461 L4396.969485899653 178.25551969863457 L4456.387992465864 178.25551969863457 L4575.225005598288 178.25551969863457 L4575.225005598288 237.6740262648461 L4575.225005598288 297.0925328310576 L4515.806499032076 297.0925328310576 L4515.806499032076 237.6740262648461 L4575.225005598288 237.6740262648461 L4872.317538429345 237.6740262648461 L4872.317538429345 297.0925328310576 L4812.899031863134 297.0925328310576 L4812.899031863134 237.6740262648461 L4812.899031863134 178.25551969863457 L4872.317538429345 178.25551969863457 L4931.736044995557 178.25551969863457 L4931.736044995557 237.6740262648461 L4931.736044995557 297.0925328310576 L4872.317538429345 297.0925328310576 L4872.317538429345 237.6740262648461 L4931.736044995557 237.6740262648461 L5050.5730581279795 237.6740262648461 L5050.5730581279795 297.0925328310576 L4991.154551561768 297.0925328310576 L4931.736044995557 297.0925328310576 L4931.736044995557 237.6740262648461 L4991.154551561768 237.6740262648461 L4991.154551561768 297.0925328310576 L4991.154551561768 594.1850656621152 L4931.736044995557 594.1850656621152 L4931.736044995557 534.7665590959037 L4991.154551561768 534.7665590959037 L5050.5730581279795 534.7665590959037 L5050.5730581279795 594.1850656621152 L5050.5730581279795 891.277598493173 L4991.154551561768 891.277598493173 L4931.736044995557 891.277598493173 L4931.736044995557 831.8590919269614 L4991.154551561768 831.8590919269614 L4991.154551561768 891.277598493173 L4991.154551561768 1188.3701313242304 L4931.736044995557 1188.3701313242304 L4931.736044995557 1128.951624758019 L4991.154551561768 1128.951624758019 L5050.5730581279795 1128.951624758019 L5050.5730581279795 1188.3701313242304 L4991.154551561768 1188.3701313242304 L2376.740262648461 1188.3701313242304 L2376.740262648461 1128.951624758019 L2436.1587692146727 1128.951624758019 L2436.1587692146727 1188.3701313242304 L2436.1587692146727 1247.788637890442 L2376.740262648461 1247.788637890442 L2257.903249516038 1247.788637890442 L2257.903249516038 1188.3701313242304 L2257.903249516038 1128.951624758019 L2317.3217560822495 1128.951624758019 L2317.3217560822495 1188.3701313242304 L2257.903249516038 1188.3701313242304 L534.7665590959037 1188.3701313242304 L534.7665590959037 1128.951624758019 L594.1850656621152 1128.951624758019 L594.1850656621152 1188.3701313242304 L594.1850656621152 1247.788637890442 L534.7665590959037 1247.788637890442 L534.7665590959037 1188.3701313242304 L534.7665590959037 1128.951624758019 L594.1850656621152 1128.951624758019 L594.1850656621152 1188.3701313242304 L534.7665590959037 1188.3701313242304 L178.25551969863457 1188.3701313242304 L178.25551969863457 1128.951624758019 L178.25551969863457 594.1850656621152 L237.6740262648461 594.1850656621152 L297.0925328310576 594.1850656621152 L297.0925328310576 653.6035722283268 L237.6740262648461 653.6035722283268 L237.6740262648461 594.1850656621152 L237.6740262648461 178.25551969863457 L297.0925328310576 178.25551969863457 L356.51103939726914 178.25551969863457 L356.51103939726914 237.6740262648461 L356.51103939726914 297.0925328310576 L297.0925328310576 297.0925328310576 L297.0925328310576 237.6740262648461 L356.51103939726914 237.6740262648461 L653.6035722283268 237.6740262648461 L653.6035722283268 297.0925328310576 L594.1850656621152 297.0925328310576 L594.1850656621152 237.6740262648461 L594.1850656621152 178.25551969863457 L653.6035722283268 178.25551969863457 L1069.5331181918075 178.25551969863457 L1069.5331181918075 237.6740262648461 L1069.5331181918075 297.0925328310576 L1010.1146116255959 297.0925328310576 L1010.1146116255959 237.6740262648461 L1069.5331181918075 237.6740262648461 L1366.6256510228652 237.6740262648461 L1366.6256510228652 297.0925328310576 L1307.2071444566536 297.0925328310576 L1307.2071444566536 237.6740262648461 L1307.2071444566536 178.25551969863457 L1366.6256510228652 178.25551969863457 L1604.2996772877111 178.25551969863457 L1604.2996772877111 237.6740262648461 L1604.2996772877111 297.0925328310576 L1544.8811707214998 297.0925328310576 L1544.8811707214998 237.6740262648461 L1604.2996772877111 237.6740262648461 L1901.3922101187688 237.6740262648461 L1901.3922101187688 297.0925328310576 L1841.9737035525573 297.0925328310576 L1841.9737035525573 237.6740262648461 L1841.9737035525573 178.25551969863457 L1901.3922101187688 178.25551969863457 L2376.740262648461 178.25551969863457 L2376.740262648461 237.6740262648461 L2376.740262648461 297.0925328310576 L2317.3217560822495 297.0925328310576 L2317.3217560822495 237.6740262648461 L2376.740262648461 237.6740262648461 L2673.8327954795186 237.6740262648461 L2673.8327954795186 297.0925328310576 L2614.4142889133072 297.0925328310576 L2614.4142889133072 237.6740262648461 L2614.4142889133072 178.25551969863457 L2673.8327954795186 178.25551969863457 L2852.088315178153 178.25551969863457 L2852.088315178153 237.6740262648461 L2792.669808611942 237.6740262648461 L2792.669808611942 178.25551969863457 L2792.669808611942 118.83701313242305 L2852.088315178153 118.83701313242305 L2852.088315178153 178.25551969863457 Z" style="fill:rgb(255, 201, 128, 255)" />
  <path d="M 118.83701313242305 297.0925328310576 L59.418506566211526 297.0925328310576 L59.418506566211526 237.6740262648461 L118.83701313242305 237.6740262648461 L178.25551969863457 237.6740262648461 L178.25551969863457 297.0925328310576 L178.25551969863457 356.51103939726914 L118.83701313242305 356.51103939726914 L59.418506566211526 356.51103939726914 L59.418506566211526 297.0925328310576 L118.83701313242305 297.0925328310576 L118.83701313242305 356.51103939726914 L118.83701313242305 475.3480525296922 L59.418506566211526 475.3480525296922 L59.418506566211526 415.9295459634807 L118.83701313242305 415.9295459634807 L178.25551969863457 415.9295459634807 L178.25551969863457 475.3480525296922 L178.25551969863457 534.7665590959037 L118.83701313242305 534.7665590959037 L59.418506566211526 534.7665590959037 L59.418506566211526 475.3480525296922 L118.83701313242305 475.3480525296922 L118.83701313242305 534.7665590959037 L118.83701313242305 1188.3701313242304 L59.418506566211526 1188.3701313242304 L59.418506566211526 1128.951624758019 L59.418506566211526 178.25551969863457 L118.83701313242305 178.25551969863457 L118.83701313242305 237.6740262648461 Z" style="fill:rgb(243, 158, 97, 255)" />
  <path d="M 713.0220787945383 356.51103939726914 L653.6035722283268 356.51103939726914 L653.6035722283268 297.0925328310576 L713.0220787945383 297.0925328310576 L772.4405853607499 297.0925328310576 L772.4405853607499 356.51103939726914 L713.0220787945383 356.51103939726914 L713.0220787945383 297.0925328310576 L713.0220787945383 237.6740262648461 L772.4405853607499 237.6740262648461 L772.4405853607499 297.0925328310576 L713.0220787945383 297.0925328310576 L653.6035722283268 297.0925328310576 L653.6035722283268 237.6740262648461 L713.0220787945383 237.6740262648461 L713.0220787945383 297.0925328310576 Z" style="fill:rgb(255, 201, 128, 255)" />
  <path d="M 831.8590919269614 356.51103939726914 L772.4405853607499 356.51103939726914 L772.4405853607499 297.0925328310576 L831.8590919269614 297.0925328310576 L891.277598493173 297.0925328310576 L891.277598493173 356.51103939726914 L831.8590919269614 356.51103939726914 L831.8590919269614 297.0925328310576 L831.8590919269614 237.6740262648461 L891.277598493173 237.6740262648461 L891.277598493173 297.0925328310576 L831.8590919269614 297.0925328310576 L772.4405853607499 297.0925328310576 L772.4405853607499 237.6740262648461 L831.8590919269614 237.6740262648461 L831.8590919269614 297.0925328310576 Z" style="fill:rgb(255, 201, 128, 255)" />
  <path d="M 950.6961050593844 356.51103939726914 L891.277598493173 356.51103939726914 L891.277598493173 297.0925328310576 L950.6961050593844 297.0925328310576 L1010.1146116255959 297.0925328310576 L1010.1146116255959 356.51103939726914 L950.6961050593844 356.51103939726914 L950.6961050593844 297.0925328310576 L950.6961050593844 237.6740262648461 L1010.1146116255959 237.6740262648461 L1010.1146116255959 297.0925328310576 L950.6961050593844 297.0925328310576 L891.277598493173 297.0925328310576 L891.277598493173 237.6740262648461 L950.6961050593844 237.6740262648461 L950.6961050593844 297.0925328310576 Z" style="fill:rgb(255, 201, 128, 255)" />
  <path d="M 1426.0441575890766 356.51103939726914 L1366.6256510228652 356.51103939726914 L1366.6256510228652 297.0925328310576 L1426.0441575890766 297.0925328310576 L1485.4626641552882 297.0925328310576 L1485.4626641552882 356.51103939726914 L1426.0441575890766 356.51103939726914 L1426.0441575890766 297.0925328310576 L1426.0441575890766 237.6740262648461 L1485.4626641552882 237.6740262648461 L1485.4626641552882 297.0925328310576 L1426.0441575890766 297.0925328310576 L1366.6256510228652 297.0925328310576 L1366.6256510228652 237.6740262648461 L1426.0441575890766 237.6740262648461 L1426.0441575890766 297.0925328310576 Z" style="fill:rgb(255, 201, 128, 255)" />
  <path d="M 1544.8811707214998 356.51103939726914 L1485.4626641552882 356.51103939726914 L1485.4626641552882 297.0925328310576 L1544.8811707214998 297.0925328310576 L1960.8107166849804 297.0925328310576 L1960.8107166849804 356.51103939726914 L1901.3922101187688 356.51103939726914 L1901.3922101187688 297.0925328310576 L1901.3922101187688 237.6740262648461 L1960.8107166849804 237.6740262648461 L2317.3217560822495 237.6740262648461 L2317.3217560822495 297.0925328310576 L2317.3217560822495 356.51103939726914 L2257.903249516038 356.51103939726914 L2257.903249516038 297.0925328310576 L2317.3217560822495 297.0925328310576 L2733.2513020457304 297.0925328310576 L2733.2513020457304 356.51103939726914 L2673.8327954795186 356.51103939726914 L2673.8327954795186 297.0925328310576 L2673.8327954795186 237.6740262648461 L2733.2513020457304 237.6740262648461 L3208.5993545754222 237.6740262648461 L3208.5993545754222 297.0925328310576 L3208.5993545754222 356.51103939726914 L3149.180848009211 356.51103939726914 L3149.180848009211 297.0925328310576 L3208.5993545754222 297.0925328310576 L3624.528900538903 297.0925328310576 L3624.528900538903 356.51103939726914 L3565.110393972692 356.51103939726914 L3565.110393972692 297.0925328310576 L3565.110393972692 237.6740262648461 L3624.528900538903 237.6740262648461 L3683.9474071051145 237.6740262648461 L3683.9474071051145 297.0925328310576 L3683.9474071051145 356.51103939726914 L3624.528900538903 356.51103939726914 L3624.528900538903 297.0925328310576 L3683.9474071051145 297.0925328310576 L4099.876953068595 297.0925328310576 L4099.876953068595 356.51103939726914 L4040.4584465023836 356.51103939726914 L4040.4584465023836 297.0925328310576 L4040.4584465023836 237.6740262648461 L4099.876953068595 237.6740262648461 L4099.876953068595 297.0925328310576 L4099.876953068595 356.51103939726914 L4040.4584465023836 356.51103939726914 L4040.4584465023836 297.0925328310576 L4099.876953068595 297.0925328310576 L4515.806499032076 297.0925328310576 L4515.806499032076 356.51103939726914 L4456.387992465864 356.51103939726914 L4456.387992465864 297.0925328310576 L4456.387992465864 237.6740262648461 L4515.806499032076 237.6740262648461 L4515.806499032076 297.0925328310576 L4515.806499032076 356.51103939726914 L4456.387992465864 356.51103939726914 L4456.387992465864 297.0925328310576 L4515.806499032076 297.0925328310576 L4931.736044995557 297.0925328310576 L4931.736044995557 356.51103939726914 L4931.736044995557 653.6035722283268 L4872.317538429345 653.6035722283268 L4872.317538429345 594.1850656621152 L4931.736044995557 594.1850656621152 L4991.154551561768 594.1850656621152 L4991.154551561768 653.6035722283268 L4991.154551561768 831.8590919269614 L4931.736044995557 831.8590919269614 L4872.317538429345 831.8590919269614 L4872.317538429345 772.4405853607499 L4931.736044995557 772.4405853607499 L4931.736044995557 831.8590919269614 L4931.736044995557 1128.951624758019 L4872.317538429345 1128.951624758019 L2317.3217560822495 1128.951624758019 L2317.3217560822495 1069.5331181918075 L2376.740262648461 1069.5331181918075 L2376.740262648461 1128.951624758019 L2376.740262648461 1188.3701313242304 L2317.3217560822495 1188.3701313242304 L2317.3217560822495 1128.951624758019 L2317.3217560822495 1069.5331181918075 L2376.740262648461 1069.5331181918075 L2376.740262648461 1128.951624758019 L2317.3217560822495 1128.951624758019 L237.6740262648461 1128.951624758019 L237.6740262648461 1069.5331181918075 L237.6740262648461 653.6035722283268 L297.0925328310576 653.6035722283268 L356.51103939726914 653.6035722283268 L356.51103939726914 713.0220787945383 L297.0925328310576 713.0220787945383 L297.0925328310576 653.6035722283268 L297.0925328310576 297.0925328310576 L356.51103939726914 297.0925328310576 L653.6035722283268 297.0925328310576 L653.6035722283268 356.51103939726914 L653.6035722283268 415.9295459634807 L594.1850656621152 415.9295459634807 L594.1850656621152 356.51103939726914 L653.6035722283268 356.51103939726914 L1069.5331181918075 356.51103939726914 L1069.5331181918075 415.9295459634807 L1010.1146116255959 415.9295459634807 L1010.1146116255959 356.51103939726914 L1010.1146116255959 297.0925328310576 L1069.5331181918075 297.0925328310576 L1366.6256510228652 297.0925328310576 L1366.6256510228652 356.51103939726914 L1366.6256510228652 415.9295459634807 L1307.2071444566536 415.9295459634807 L1307.2071444566536 356.51103939726914 L1366.6256510228652 356.51103939726914 L1544.8811707214998 356.51103939726914 L1544.8811707214998 415.9295459634807 L1485.4626641552882 415.9295459634807 L1485.4626641552882 356.51103939726914 L1485.4626641552882 237.6740262648461 L1544.8811707214998 237.6740262648461 L1544.8811707214998 297.0925328310576 Z" style="fill:rgb(255, 201, 128, 255)" />
  <path d="M 2020.2292232511918 415.9295459634807 L1960.8107166849804 415.9295459634807 L1960.8107166849804 356.51103939726914 L2020.2292232511918 356.51103939726914 L2079.6477298174036 356.51103939726914 L2079.6477298174036 415.9295459634807 L2020.2292232511918 415.9295459634807 L2020.2292232511918 356.51103939726914 L2020.2292232511918 297.0925328310576 L2079.6477298174036 297.0925328310576 L2079.6477298174036 356.51103939726914 L2020.2292232511918 356.51103939726914 L1960.8107166849804 356.51103939726914 L1960.8107166849804 297.0925328310576 L2020.2292232511918 297.0925328310576 L2020.2292232511918 356.51103939726914 Z" style="fill:rgb(255, 201, 128, 255)" />
  <path d="M 2139.066236383615 415.9295459634807 L2079.6477298174036 415.9295459634807 L2079.6477298174036 356.51103939726914 L2139.066236383615 356.51103939726914 L2198.4847429498263 356.51103939726914 L2198.4847429498263 415.9295459634807 L2139.066236383615 415.9295459634807 L2139.066236383615 356.51103939726914 L2139.066236383615 297.0925328310576 L2198.4847429498263 297.0925328310576 L2198.4847429498263 356.51103939726914 L2139.066236383615 356.51103939726914 L2079.6477298174036 356.51103939726914 L2079.6477298174036 297.0925328310576 L2139.066236383615 297.0925328310576 L2139.066236383615 356.51103939726914 Z" style="fill:rgb(255, 201, 128, 255)" />
  <path d="M 2257.903249516038 415.9295459634807 L2198.4847429498263 415.9295459634807 L2198.4847429498263 356.51103939726914 L2257.903249516038 356.51103939726914 L2792.669808611942 356.51103939726914 L2792.669808611942 415.9295459634807 L2733.2513020457304 415.9295459634807 L2733.2513020457304 356.51103939726914 L2733.2513020457304 297.0925328310576 L2792.669808611942 297.0925328310576 L3149.180848009211 297.0925328310576 L3149.180848009211 356.51103939726914 L3149.180848009211 415.9295459634807 L3089.7623414429995 415.9295459634807 L3089.7623414429995 356.51103939726914 L3149.180848009211 356.51103939726914 L4872.317538429345 356.51103939726914 L4872.317538429345 415.9295459634807 L4872.317538429345 713.0220787945383 L4812.899031863134 713.0220787945383 L4812.899031863134 653.6035722283268 L4872.317538429345 653.6035722283268 L4931.736044995557 653.6035722283268 L4931.736044995557 713.0220787945383 L4931.736044995557 772.4405853607499 L4872.317538429345 772.4405853607499 L4812.899031863134 772.4405853607499 L4812.899031863134 713.0220787945383 L4872.317538429345 713.0220787945383 L4872.317538429345 772.4405853607499 L4872.317538429345 1069.5331181918075 L4812.899031863134 1069.5331181918075 L297.0925328310576 1069.5331181918075 L297.0925328310576 1010.1146116255959 L297.0925328310576 713.0220787945383 L356.51103939726914 713.0220787945383 L415.9295459634807 713.0220787945383 L415.9295459634807 772.4405853607499 L356.51103939726914 772.4405853607499 L356.51103939726914 713.0220787945383 L356.51103939726914 356.51103939726914 L415.9295459634807 356.51103939726914 L594.1850656621152 356.51103939726914 L594.1850656621152 415.9295459634807 L594.1850656621152 475.3480525296922 L534.7665590959037 475.3480525296922 L534.7665590959037 415.9295459634807 L594.1850656621152 415.9295459634807 L1128.951624758019 415.9295459634807 L1128.951624758019 475.3480525296922 L1069.5331181918075 475.3480525296922 L1069.5331181918075 415.9295459634807 L1069.5331181918075 356.51103939726914 L1128.951624758019 356.51103939726914 L1307.2071444566536 356.51103939726914 L1307.2071444566536 415.9295459634807 L1307.2071444566536 475.3480525296922 L1247.788637890442 475.3480525296922 L1247.788637890442 415.9295459634807 L1307.2071444566536 415.9295459634807 L1604.2996772877111 415.9295459634807 L1604.2996772877111 475.3480525296922 L1544.8811707214998 475.3480525296922 L1544.8811707214998 415.9295459634807 L1544.8811707214998 356.51103939726914 L1604.2996772877111 356.51103939726914 L1960.8107166849804 356.51103939726914 L1960.8107166849804 415.9295459634807 L1960.8107166849804 475.3480525296922 L1901.3922101187688 475.3480525296922 L1901.3922101187688 415.9295459634807 L1960.8107166849804 415.9295459634807 L2257.903249516038 415.9295459634807 L2257.903249516038 475.3480525296922 L2198.4847429498263 475.3480525296922 L2198.4847429498263 415.9295459634807 L2198.4847429498263 297.0925328310576 L2257.903249516038 297.0925328310576 L2257.903249516038 356.51103939726914 Z" style="fill:rgb(255, 201, 128, 255)" />
  <path d="M 5169.410071260403 534.7665590959037 L5109.991564694191 534.7665590959037 L5109.991564694191 475.3480525296922 L5109.991564694191 415.9295459634807 L5169.410071260403 415.9295459634807 L5169.410071260403 475.3480525296922 L5109.991564694191 475.3480525296922 L5050.5730581279795 475.3480525296922 L5050.5730581279795 415.9295459634807 L5050.5730581279795 356.51103939726914 L5109.991564694191 356.51103939726914 L5169.410071260403 356.51103939726914 L5169.410071260403 415.9295459634807 L5109.991564694191 415.9295459634807 L5109.991564694191 356.51103939726914 L5109.991564694191 297.0925328310576 L5169.410071260403 297.0925328310576 L5169.410071260403 356.51103939726914 Z" style="fill:rgb(243, 158, 97, 255)" />
  <path d="M 2852.088315178153 475.3480525296922 L2792.669808611942 475.3480525296922 L2792.669808611942 415.9295459634807 L2852.088315178153 415.9295459634807 L2911.506821744365 415.9295459634807 L2911.506821744365 475.3480525296922 L2852.088315178153 475.3480525296922 L2852.088315178153 415.9295459634807 L2852.088315178153 356.51103939726914 L2911.506821744365 356.51103939726914 L2911.506821744365 415.9295459634807 L2852.088315178153 415.9295459634807 L2792.669808611942 415.9295459634807 L2792.669808611942 356.51103939726914 L2852.088315178153 356.51103939726914 L2852.088315178153 415.9295459634807 Z" style="fill:rgb(255, 201, 128, 255)" />
  <path d="M 2970.9253283105763 475.3480525296922 L2911.506821744365 475.3480525296922 L2911.506821744365 415.9295459634807 L2970.9253283105763 415.9295459634807 L3030.3438348767877 415.9295459634807 L3030.3438348767877 475.3480525296922 L2970.9253283105763 475.3480525296922 L2970.9253283105763 415.9295459634807 L2970.9253283105763 356.51103939726914 L3030.3438348767877 356.51103939726914 L3030.3438348767877 415.9295459634807 L2970.9253283105763 415.9295459634807 L2911.506821744365 415.9295459634807 L2911.506821744365 356.51103939726914 L2970.9253283105763 356.51103939726914 L2970.9253283105763 415.9295459634807 Z" style="fill:rgb(255, 201, 128, 255)" />
  <path d="M 3089.7623414429995 475.3480525296922 L3030.3438348767877 475.3480525296922 L3030.3438348767877 415.9295459634807 L3089.7623414429995 415.9295459634807 L4812.899031863134 415.9295459634807 L4812.899031863134 475.3480525296922 L4812.899031863134 1010.1146116255959 L4753.480525296922 1010.1146116255959 L356.51103939726914 1010.1146116255959 L356.51103939726914 950.6961050593844 L356.51103939726914 772.4405853607499 L415.9295459634807 772.4405853607499 L475.3480525296922 772.4405853607499 L475.3480525296922 831.8590919269614 L415.9295459634807 831.8590919269614 L415.9295459634807 772.4405853607499 L415.9295459634807 415.9295459634807 L475.3480525296922 415.9295459634807 L534.7665590959037 415.9295459634807 L534.7665590959037 475.3480525296922 L534.7665590959037 534.7665590959037 L475.3480525296922 534.7665590959037 L475.3480525296922 475.3480525296922 L534.7665590959037 475.3480525296922 L1188.3701313242304 475.3480525296922 L1188.3701313242304 534.7665590959037 L1128.951624758019 534.7665590959037 L1128.951624758019 475.3480525296922 L1128.951624758019 415.9295459634807 L1188.3701313242304 415.9295459634807 L1247.788637890442 415.9295459634807 L1247.788637890442 475.3480525296922 L1247.788637890442 534.7665590959037 L1188.3701313242304 534.7665590959037 L1188.3701313242304 475.3480525296922 L1247.788637890442 475.3480525296922 L1663.7181838539227 475.3480525296922 L1663.7181838539227 534.7665590959037 L1604.2996772877111 534.7665590959037 L1604.2996772877111 475.3480525296922 L1604.2996772877111 415.9295459634807 L1663.7181838539227 415.9295459634807 L1901.3922101187688 415.9295459634807 L1901.3922101187688 475.3480525296922 L1901.3922101187688 534.7665590959037 L1841.9737035525573 534.7665590959037 L1841.9737035525573 475.3480525296922 L1901.3922101187688 475.3480525296922 L2317.3217560822495 475.3480525296922 L2317.3217560822495 534.7665590959037 L2257.903249516038 534.7665590959037 L2257.903249516038 475.3480525296922 L2257.903249516038 415.9295459634807 L2317.3217560822495 415.9295459634807 L2792.669808611942 415.9295459634807 L2792.669808611942 475.3480525296922 L2792.669808611942 534.7665590959037 L2733.2513020457304 534.7665590959037 L2733.2513020457304 475.3480525296922 L2792.669808611942 475.3480525296922 L3089.7623414429995 475.3480525296922 L3089.7623414429995 534.7665590959037 L3030.3438348767877 534.7665590959037 L3030.3438348767877 475.3480525296922 L3030.3438348767877 356.51103939726914 L3089.7623414429995 356.51103939726914 L3089.7623414429995 415.9295459634807 Z" style="fill:rgb(255, 201, 128, 255)" />
  <path d="M 1723.1366904201343 594.1850656621152 L1663.7181838539227 594.1850656621152 L1663.7181838539227 534.7665590959037 L1723.1366904201343 534.7665590959037 L1782.555196986346 534.7665590959037 L1782.555196986346 594.1850656621152 L1723.1366904201343 594.1850656621152 L1723.1366904201343 534.7665590959037 L1723.1366904201343 475.3480525296922 L1782.555196986346 475.3480525296922 L1782.555196986346 534.7665590959037 L1723.1366904201343 534.7665590959037 L1663.7181838539227 534.7665590959037 L1663.7181838539227 475.3480525296922 L1723.1366904201343 475.3480525296922 L1723.1366904201343 534.7665590959037 Z" style="fill:rgb(255, 201, 128, 255)" />
  <path d="M 1841.9737035525573 594.1850656621152 L1782.555196986346 594.1850656621152 L1782.555196986346 534.7665590959037 L1841.9737035525573 534.7665590959037 L2376.740262648461 534.7665590959037 L2376.740262648461 594.1850656621152 L2317.3217560822495 594.1850656621152 L2317.3217560822495 534.7665590959037 L2317.3217560822495 475.3480525296922 L2376.740262648461 475.3480525296922 L2733.2513020457304 475.3480525296922 L2733.2513020457304 534.7665590959037 L2733.2513020457304 594.1850656621152 L2673.8327954795186 594.1850656621152 L2673.8327954795186 534.7665590959037 L2733.2513020457304 534.7665590959037 L3149.180848009211 534.7665590959037 L3149.180848009211 594.1850656621152 L3089.7623414429995 594.1850656621152 L3089.7623414429995 534.7665590959037 L3089.7623414429995 475.3480525296922 L3149.180848009211 475.3480525296922 L4753.480525296922 475.3480525296922 L4753.480525296922 534.7665590959037 L4753.480525296922 950.6961050593844 L4694.06201873071 950.6961050593844 L415.9295459634807 950.6961050593844 L415.9295459634807 891.277598493173 L415.9295459634807 831.8590919269614 L475.3480525296922 831.8590919269614 L534.7665590959037 831.8590919269614 L534.7665590959037 891.277598493173 L475.3480525296922 891.277598493173 L475.3480525296922 831.8590919269614 L475.3480525296922 534.7665590959037 L534.7665590959037 534.7665590959037 L1663.7181838539227 534.7665590959037 L1663.7181838539227 594.1850656621152 L1663.7181838539227 653.6035722283268 L1604.2996772877111 653.6035722283268 L1604.2996772877111 594.1850656621152 L1663.7181838539227 594.1850656621152 L1841.9737035525573 594.1850656621152 L1841.9737035525573 653.6035722283268 L1782.555196986346 653.6035722283268 L1782.555196986346 594.1850656621152 L1782.555196986346 475.3480525296922 L1841.9737035525573 475.3480525296922 L1841.9737035525573 534.7665590959037 Z" style="fill:rgb(255, 201, 128, 255)" />
  <path d="M 2436.1587692146727 653.6035722283268 L2376.740262648461 653.6035722283268 L2376.740262648461 594.1850656621152 L2436.1587692146727 594.1850656621152 L2495.577275780884 594.1850656621152 L2495.577275780884 653.6035722283268 L2436.1587692146727 653.6035722283268 L2436.1587692146727 594.1850656621152 L2436.1587692146727 534.7665590959037 L2495.577275780884 534.7665590959037 L2495.577275780884 594.1850656621152 L2436.1587692146727 594.1850656621152 L2376.740262648461 594.1850656621152 L2376.740262648461 534.7665590959037 L2436.1587692146727 534.7665590959037 L2436.1587692146727 594.1850656621152 Z" style="fill:rgb(255, 201, 128, 255)" />
  <path d="M 2554.9957823470954 653.6035722283268 L2495.577275780884 653.6035722283268 L2495.577275780884 594.1850656621152 L2554.9957823470954 594.1850656621152 L2614.4142889133072 594.1850656621152 L2614.4142889133072 653.6035722283268 L2554.9957823470954 653.6035722283268 L2554.9957823470954 594.1850656621152 L2554.9957823470954 534.7665590959037 L2614.4142889133072 534.7665590959037 L2614.4142889133072 594.1850656621152 L2554.9957823470954 594.1850656621152 L2495.577275780884 594.1850656621152 L2495.577275780884 534.7665590959037 L2554.9957823470954 534.7665590959037 L2554.9957823470954 594.1850656621152 Z" style="fill:rgb(255, 201, 128, 255)" />
  <path d="M 2673.8327954795186 653.6035722283268 L2614.4142889133072 653.6035722283268 L2614.4142889133072 594.1850656621152 L2673.8327954795186 594.1850656621152 L3208.5993545754222 594.1850656621152 L3208.5993545754222 653.6035722283268 L3149.180848009211 653.6035722283268 L3149.180848009211 594.1850656621152 L3149.180848009211 534.7665590959037 L3208.5993545754222 534.7665590959037 L4694.06201873071 534.7665590959037 L4694.06201873071 594.1850656621152 L4694.06201873071 891.277598493173 L4634.643512164499 891.277598493173 L534.7665590959037 891.277598493173 L534.7665590959037 831.8590919269614 L534.7665590959037 594.1850656621152 L594.1850656621152 594.1850656621152 L1604.2996772877111 594.1850656621152 L1604.2996772877111 653.6035722283268 L1604.2996772877111 713.0220787945383 L1544.8811707214998 713.0220787945383 L1544.8811707214998 653.6035722283268 L1604.2996772877111 653.6035722283268 L1901.3922101187688 653.6035722283268 L1901.3922101187688 713.0220787945383 L1841.9737035525573 713.0220787945383 L1841.9737035525573 653.6035722283268 L1841.9737035525573 594.1850656621152 L1901.3922101187688 594.1850656621152 L2376.740262648461 594.1850656621152 L2376.740262648461 653.6035722283268 L2376.740262648461 713.0220787945383 L2317.3217560822495 713.0220787945383 L2317.3217560822495 653.6035722283268 L2376.740262648461 653.6035722283268 L2673.8327954795186 653.6035722283268 L2673.8327954795186 713.0220787945383 L2614.4142889133072 713.0220787945383 L2614.4142889133072 653.6035722283268 L2614.4142889133072 534.7665590959037 L2673.8327954795186 534.7665590959037 L2673.8327954795186 594.1850656621152 Z" style="fill:rgb(255, 201, 128, 255)" />
  <path d="M 3268.017861141634 713.0220787945383 L3208.5993545754222 713.0220787945383 L3208.5993545754222 653.6035722283268 L3268.017861141634 653.6035722283268 L3327.4363677078454 653.6035722283268 L3327.4363677078454 713.0220787945383 L3268.017861141634 713.0220787945383 L3268.017861141634 653.6035722283268 L3268.017861141634 594.1850656621152 L3327.4363677078454 594.1850656621152 L3327.4363677078454 653.6035722283268 L3268.017861141634 653.6035722283268 L3208.5993545754222 653.6035722283268 L3208.5993545754222 594.1850656621152 L3268.017861141634 594.1850656621152 L3268.017861141634 653.6035722283268 Z" style="fill:rgb(255, 201, 128, 255)" />
  <path d="M 3386.854874274057 713.0220787945383 L3327.4363677078454 713.0220787945383 L3327.4363677078454 653.6035722283268 L3386.854874274057 653.6035722283268 L3446.2733808402686 653.6035722283268 L3446.2733808402686 713.0220787945383 L3386.854874274057 713.0220787945383 L3386.854874274057 653.6035722283268 L3386.854874274057 594.1850656621152 L3446.2733808402686 594.1850656621152 L3446.2733808402686 653.6035722283268 L3386.854874274057 653.6035722283268 L3327.4363677078454 653.6035722283268 L3327.4363677078454 594.1850656621152 L3386.854874274057 594.1850656621152 L3386.854874274057 653.6035722283268 Z" style="fill:rgb(255, 201, 128, 255)" />
  <path d="M 3505.69188740648 713.0220787945383 L3446.2733808402686 713.0220787945383 L3446.2733808402686 653.6035722283268 L3505.69188740648 653.6035722283268 L3565.110393972692 653.6035722283268 L3565.110393972692 713.0220787945383 L3505.69188740648 713.0220787945383 L3505.69188740648 653.6035722283268 L3505.69188740648 594.1850656621152 L3565.110393972692 594.1850656621152 L3565.110393972692 653.6035722283268 L3505.69188740648 653.6035722283268 L3446.2733808402686 653.6035722283268 L3446.2733808402686 594.1850656621152 L3505.69188740648 594.1850656621152 L3505.69188740648 653.6035722283268 Z" style="fill:rgb(255, 201, 128, 255)" />
  <path d="M 3624.528900538903 713.0220787945383 L3565.110393972692 713.0220787945383 L3565.110393972692 653.6035722283268 L3624.528900538903 653.6035722283268 L3683.9474071051145 653.6035722283268 L3683.9474071051145 713.0220787945383 L3624.528900538903 713.0220787945383 L3624.528900538903 653.6035722283268 L3624.528900538903 594.1850656621152 L3683.9474071051145 594.1850656621152 L3683.9474071051145 653.6035722283268 L3624.528900538903 653.6035722283268 L3565.110393972692 653.6035722283268 L3565.110393972692 594.1850656621152 L3624.528900538903 594.1850656621152 L3624.528900538903 653.6035722283268 Z" style="fill:rgb(255, 201, 128, 255)" />
  <path d="M 3743.3659136713263 713.0220787945383 L3683.9474071051145 713.0220787945383 L3683.9474071051145 653.6035722283268 L3743.3659136713263 653.6035722283268 L3802.7844202375377 653.6035722283268 L3802.7844202375377 713.0220787945383 L3743.3659136713263 713.0220787945383 L3743.3659136713263 653.6035722283268 L3743.3659136713263 594.1850656621152 L3802.7844202375377 594.1850656621152 L3802.7844202375377 653.6035722283268 L3743.3659136713263 653.6035722283268 L3683.9474071051145 653.6035722283268 L3683.9474071051145 594.1850656621152 L3743.3659136713263 594.1850656621152 L3743.3659136713263 653.6035722283268 Z" style="fill:rgb(255, 201, 128, 255)" />
  <path d="M 3862.202926803749 713.0220787945383 L3802.7844202375377 713.0220787945383 L3802.7844202375377 653.6035722283268 L3862.202926803749 653.6035722283268 L3921.621433369961 653.6035722283268 L3921.621433369961 713.0220787945383 L3862.202926803749 713.0220787945383 L3862.202926803749 653.6035722283268 L3862.202926803749 594.1850656621152 L3921.621433369961 594.1850656621152 L3921.621433369961 653.6035722283268 L3862.202926803749 653.6035722283268 L3802.7844202375377 653.6035722283268 L3802.7844202375377 594.1850656621152 L3862.202926803749 594.1850656621152 L3862.202926803749 653.6035722283268 Z" style="fill:rgb(255, 201, 128, 255)" />
  <path d="M 3981.0399399361722 713.0220787945383 L3921.621433369961 713.0220787945383 L3921.621433369961 653.6035722283268 L3981.0399399361722 653.6035722283268 L4040.4584465023836 653.6035722283268 L4040.4584465023836 713.0220787945383 L3981.0399399361722 713.0220787945383 L3981.0399399361722 653.6035722283268 L3981.0399399361722 594.1850656621152 L4040.4584465023836 594.1850656621152 L4040.4584465023836 653.6035722283268 L3981.0399399361722 653.6035722283268 L3921.621433369961 653.6035722283268 L3921.621433369961 594.1850656621152 L3981.0399399361722 594.1850656621152 L3981.0399399361722 653.6035722283268 Z" style="fill:rgb(255, 201, 128, 255)" />
  <path d="M 4099.876953068595 713.0220787945383 L4040.4584465023836 713.0220787945383 L4040.4584465023836 653.6035722283268 L4099.876953068595 653.6035722283268 L4159.295459634807 653.6035722283268 L4159.295459634807 713.0220787945383 L4099.876953068595 713.0220787945383 L4099.876953068595 653.6035722283268 L4099.876953068595 594.1850656621152 L4159.295459634807 594.1850656621152 L4159.295459634807 653.6035722283268 L4099.876953068595 653.6035722283268 L4040.4584465023836 653.6035722283268 L4040.4584465023836 594.1850656621152 L4099.876953068595 594.1850656621152 L4099.876953068595 653.6035722283268 Z" style="fill:rgb(255, 201, 128, 255)" />
  <path d="M 4218.713966201019 713.0220787945383 L4159.295459634807 713.0220787945383 L4159.295459634807 653.6035722283268 L4218.713966201019 653.6035722283268 L4278.13247276723 653.6035722283268 L4278.13247276723 713.0220787945383 L4218.713966201019 713.0220787945383 L4218.713966201019 653.6035722283268 L4218.713966201019 594.1850656621152 L4278.13247276723 594.1850656621152 L4278.13247276723 653.6035722283268 L4218.713966201019 653.6035722283268 L4159.295459634807 653.6035722283268 L4159.295459634807 594.1850656621152 L4218.713966201019 594.1850656621152 L4218.713966201019 653.6035722283268 Z" style="fill:rgb(255, 201, 128, 255)" />
  <path d="M 4337.550979333441 713.0220787945383 L4278.13247276723 713.0220787945383 L4278.13247276723 653.6035722283268 L4337.550979333441 653.6035722283268 L4396.969485899653 653.6035722283268 L4396.969485899653 713.0220787945383 L4337.550979333441 713.0220787945383 L4337.550979333441 653.6035722283268 L4337.550979333441 594.1850656621152 L4396.969485899653 594.1850656621152 L4396.969485899653 653.6035722283268 L4337.550979333441 653.6035722283268 L4278.13247276723 653.6035722283268 L4278.13247276723 594.1850656621152 L4337.550979333441 594.1850656621152 L4337.550979333441 653.6035722283268 Z" style="fill:rgb(255, 201, 128, 255)" />
  <path d="M 4456.387992465864 713.0220787945383 L4396.969485899653 713.0220787945383 L4396.969485899653 653.6035722283268 L4456.387992465864 653.6035722283268 L4515.806499032076 653.6035722283268 L4515.806499032076 713.0220787945383 L4456.387992465864 713.0220787945383 L4456.387992465864 653.6035722283268 L4456.387992465864 594.1850656621152 L4515.806499032076 594.1850656621152 L4515.806499032076 653.6035722283268 L4456.387992465864 653.6035722283268 L4396.969485899653 653.6035722283268 L4396.969485899653 594.1850656621152 L4456.387992465864 594.1850656621152 L4456.387992465864 653.6035722283268 Z" style="fill:rgb(255, 201, 128, 255)" />
  <path d="M 4575.225005598288 713.0220787945383 L4515.806499032076 713.0220787945383 L4515.806499032076 653.6035722283268 L4575.225005598288 653.6035722283268 L4634.643512164499 653.6035722283268 L4634.643512164499 713.0220787945383 L4575.225005598288 713.0220787945383 L4575.225005598288 653.6035722283268 L4575.225005598288 594.1850656621152 L4634.643512164499 594.1850656621152 L4634.643512164499 653.6035722283268 L4575.225005598288 653.6035722283268 L4515.806499032076 653.6035722283268 L4515.806499032076 594.1850656621152 L4575.225005598288 594.1850656621152 L4575.225005598288 653.6035722283268 Z" style="fill:rgb(255, 201, 128, 255)" />
  <path d="M 5169.410071260403 1069.5331181918075 L5109.991564694191 1069.5331181918075 L5050.5730581279795 1069.5331181918075 L5050.5730581279795 1010.1146116255959 L5050.5730581279795 950.6961050593844 L5109.991564694191 950.6961050593844 L5169.410071260403 950.6961050593844 L5169.410071260403 1010.1146116255959 L5109.991564694191 1010.1146116255959 L5109.991564694191 950.6961050593844 L5109.991564694191 594.1850656621152 L5169.410071260403 594.1850656621152 L5169.410071260403 653.6035722283268 Z" style="fill:rgb(243, 158, 97, 255)" />
  <path d="M 653.6035722283268 772.4405853607499 L594.1850656621152 772.4405853607499 L594.1850656621152 713.0220787945383 L653.6035722283268 713.0220787945383 L713.0220787945383 713.0220787945383 L713.0220787945383 772.4405853607499 L653.6035722283268 772.4405853607499 L653.6035722283268 713.0220787945383 L653.6035722283268 653.6035722283268 L713.0220787945383 653.6035722283268 L713.0220787945383 713.0220787945383 L653.6035722283268 713.0220787945383 L594.1850656621152 713.0220787945383 L594.1850656621152 653.6035722283268 L653.6035722283268 653.6035722283268 L653.6035722283268 713.0220787945383 Z" style="fill:rgb(255, 201, 128, 255)" />
  <path d="M 772.4405853607499 772.4405853607499 L713.0220787945383 772.4405853607499 L713.0220787945383 713.0220787945383 L772.4405853607499 713.0220787945383 L831.8590919269614 713.0220787945383 L831.8590919269614 772.4405853607499 L772.4405853607499 772.4405853607499 L772.4405853607499 713.0220787945383 L772.4405853607499 653.6035722283268 L831.8590919269614 653.6035722283268 L831.8590919269614 713.0220787945383 L772.4405853607499 713.0220787945383 L713.0220787945383 713.0220787945383 L713.0220787945383 653.6035722283268 L772.4405853607499 653.6035722283268 L772.4405853607499 713.0220787945383 Z" style="fill:rgb(255, 201, 128, 255)" />
  <path d="M 891.277598493173 772.4405853607499 L831.8590919269614 772.4405853607499 L831.8590919269614 713.0220787945383 L891.277598493173 713.0220787945383 L950.6961050593844 713.0220787945383 L950.6961050593844 772.4405853607499 L891.277598493173 772.4405853607499 L891.277598493173 713.0220787945383 L891.277598493173 653.6035722283268 L950.6961050593844 653.6035722283268 L950.6961050593844 713.0220787945383 L891.277598493173 713.0220787945383 L831.8590919269614 713.0220787945383 L831.8590919269614 653.6035722283268 L891.277598493173 653.6035722283268 L891.277598493173 713.0220787945383 Z" style="fill:rgb(255, 201, 128, 255)" />
  <path d="M 1010.1146116255959 772.4405853607499 L950.6961050593844 772.4405853607499 L950.6961050593844 713.0220787945383 L1010.1146116255959 713.0220787945383 L1069.5331181918075 713.0220787945383 L1069.5331181918075 772.4405853607499 L1010.1146116255959 772.4405853607499 L1010.1146116255959 713.0220787945383 L1010.1146116255959 653.6035722283268 L1069.5331181918075 653.6035722283268 L1069.5331181918075 713.0220787945383 L1010.1146116255959 713.0220787945383 L950.6961050593844 713.0220787945383 L950.6961050593844 653.6035722283268 L1010.1146116255959 653.6035722283268 L1010.1146116255959 713.0220787945383 Z" style="fill:rgb(255, 201, 128, 255)" />
  <path d="M 1128.951624758019 772.4405853607499 L1069.5331181918075 772.4405853607499 L1069.5331181918075 713.0220787945383 L1128.951624758019 713.0220787945383 L1188.3701313242304 713.0220787945383 L1188.3701313242304 772.4405853607499 L1128.951624758019 772.4405853607499 L1128.951624758019 713.0220787945383 L1128.951624758019 653.6035722283268 L1188.3701313242304 653.6035722283268 L1188.3701313242304 713.0220787945383 L1128.951624758019 713.0220787945383 L1069.5331181918075 713.0220787945383 L1069.5331181918075 653.6035722283268 L1128.951624758019 653.6035722283268 L1128.951624758019 713.0220787945383 Z" style="fill:rgb(255, 201, 128, 255)" />
  <path d="M 1247.788637890442 772.4405853607499 L1188.3701313242304 772.4405853607499 L1188.3701313242304 713.0220787945383 L1247.788637890442 713.0220787945383 L1307.2071444566536 713.0220787945383 L1307.2071444566536 772.4405853607499 L1247.788637890442 772.4405853607499 L1247.788637890442 713.0220787945383 L1247.788637890442 653.6035722283268 L1307.2071444566536 653.6035722283268 L1307.2071444566536 713.0220787945383 L1247.788637890442 713.0220787945383 L1188.3701313242304 713.0220787945383 L1188.3701313242304 653.6035722283268 L1247.788637890442 653.6035722283268 L1247.788637890442 713.0220787945383 Z" style="fill:rgb(255, 201, 128, 255)" />
  <path d="M 1366.6256510228652 772.4405853607499 L1307.2071444566536 772.4405853607499 L1307.2071444566536 713.0220787945383 L1366.6256510228652 713.0220787945383 L1426.0441575890766 713.0220787945383 L1426.0441575890766 772.4405853607499 L1366.6256510228652 772.4405853607499 L1366.6256510228652 713.0220787945383 L1366.6256510228652 653.6035722283268 L1426.0441575890766 653.6035722283268 L1426.0441575890766 713.0220787945383 L1366.6256510228652 713.0220787945383 L1307.2071444566536 713.0220787945383 L1307.2071444566536 653.6035722283268 L1366.6256510228652 653.6035722283268 L1366.6256510228652 713.0220787945383 Z" style="fill:rgb(255, 201, 128, 255)" />
  <path d="M 1485.4626641552882 772.4405853607499 L1426.0441575890766 772.4405853607499 L1426.0441575890766 713.0220787945383 L1485.4626641552882 713.0220787945383 L1544.8811707214998 713.0220787945383 L1544.8811707214998 772.4405853607499 L1485.4626641552882 772.4405853607499 L1485.4626641552882 713.0220787945383 L1485.4626641552882 653.6035722283268 L1544.8811707214998 653.6035722283268 L1544.8811707214998 713.0220787945383 L1485.4626641552882 713.0220787945383 L1426.0441575890766 713.0220787945383 L1426.0441575890766 653.6035722283268 L1485.4626641552882 653.6035722283268 L1485.4626641552882 713.0220787945383 Z" style="fill:rgb(255, 201, 128, 255)" />
  <path d="M 1960.8107166849804 772.4405853607499 L1901.3922101187688 772.4405853607499 L1901.3922101187688 713.0220787945383 L1960.8107166849804 713.0220787945383 L2020.2292232511918 713.0220787945383 L2020.2292232511918 772.4405853607499 L1960.8107166849804 772.4405853607499 L1960.8107166849804 713.0220787945383 L1960.8107166849804 653.6035722283268 L2020.2292232511918 653.6035722283268 L2020.2292232511918 713.0220787945383 L1960.8107166849804 713.0220787945383 L1901.3922101187688 713.0220787945383 L1901.3922101187688 653.6035722283268 L1960.8107166849804 653.6035722283268 L1960.8107166849804 713.0220787945383 Z" style="fill:rgb(255, 201, 128, 255)" />
  <path d="M 2079.6477298174036 772.4405853607499 L2020.2292232511918 772.4405853607499 L2020.2292232511918 713.0220787945383 L2079.6477298174036 713.0220787945383 L2139.066236383615 713.0220787945383 L2139.066236383615 772.4405853607499 L2079.6477298174036 772.4405853607499 L2079.6477298174036 713.0220787945383 L2079.6477298174036 653.6035722283268 L2139.066236383615 653.6035722283268 L2139.066236383615 713.0220787945383 L2079.6477298174036 713.0220787945383 L2020.2292232511918 713.0220787945383 L2020.2292232511918 653.6035722283268 L2079.6477298174036 653.6035722283268 L2079.6477298174036 713.0220787945383 Z" style="fill:rgb(255, 201, 128, 255)" />
  <path d="M 2198.4847429498263 772.4405853607499 L2139.066236383615 772.4405853607499 L2139.066236383615 713.0220787945383 L2198.4847429498263 713.0220787945383 L2257.903249516038 713.0220787945383 L2257.903249516038 772.4405853607499 L2198.4847429498263 772.4405853607499 L2198.4847429498263 713.0220787945383 L2198.4847429498263 653.6035722283268 L2257.903249516038 653.6035722283268 L2257.903249516038 713.0220787945383 L2198.4847429498263 713.0220787945383 L2139.066236383615 713.0220787945383 L2139.066236383615 653.6035722283268 L2198.4847429498263 653.6035722283268 L2198.4847429498263 713.0220787945383 Z" style="fill:rgb(255, 201, 128, 255)" />
  <path d="M 2317.3217560822495 772.4405853607499 L2257.903249516038 772.4405853607499 L2257.903249516038 713.0220787945383 L2317.3217560822495 713.0220787945383 L2733.2513020457304 713.0220787945383 L2733.2513020457304 772.4405853607499 L2673.8327954795186 772.4405853607499 L2673.8327954795186 713.0220787945383 L2673.8327954795186 653.6035722283268 L2733.2513020457304 653.6035722283268 L3208.5993545754222 653.6035722283268 L3208.5993545754222 713.0220787945383 L3208.5993545754222 772.4405853607499 L3149.180848009211 772.4405853607499 L3149.180848009211 713.0220787945383 L3208.5993545754222 713.0220787945383 L4634.643512164499 713.0220787945383 L4634.643512164499 772.4405853607499 L4634.643512164499 831.8590919269614 L4575.225005598288 831.8590919269614 L594.1850656621152 831.8590919269614 L594.1850656621152 772.4405853607499 L653.6035722283268 772.4405853607499 L1604.2996772877111 772.4405853607499 L1604.2996772877111 831.8590919269614 L1544.8811707214998 831.8590919269614 L1544.8811707214998 772.4405853607499 L1544.8811707214998 713.0220787945383 L1604.2996772877111 713.0220787945383 L1901.3922101187688 713.0220787945383 L1901.3922101187688 772.4405853607499 L1901.3922101187688 831.8590919269614 L1841.9737035525573 831.8590919269614 L1841.9737035525573 772.4405853607499 L1901.3922101187688 772.4405853607499 L2317.3217560822495 772.4405853607499 L2317.3217560822495 831.8590919269614 L2257.903249516038 831.8590919269614 L2257.903249516038 772.4405853607499 L2257.903249516038 653.6035722283268 L2317.3217560822495 653.6035722283268 L2317.3217560822495 713.0220787945383 Z" style="fill:rgb(255, 201, 128, 255)" />
  <path d="M 2792.669808611942 772.4405853607499 L2733.2513020457304 772.4405853607499 L2733.2513020457304 713.0220787945383 L2792.669808611942 713.0220787945383 L3149.180848009211 713.0220787945383 L3149.180848009211 772.4405853607499 L3089.7623414429995 772.4405853607499 L2733.2513020457304 772.4405853607499 L2733.2513020457304 713.0220787945383 L2792.669808611942 713.0220787945383 Z" style="fill:rgb(255, 201, 128, 255)" />
  <path d="M 5109.991564694191 1188.3701313242304 L5109.991564694191 1128.951624758019 L5169.410071260403 1128.951624758019 L5169.410071260403 1188.3701313242304 Z" style="fill:rgb(243, 158, 97, 255)" />
  <path d="M 118.83701313242305 1307.2071444566536 L59.418506566211526 1307.2071444566536 L59.418506566211526 1247.788637890442 L118.83701313242305 1247.788637890442 L178.25551969863457 1247.788637890442 L178.25551969863457 1307.2071444566536 L178.25551969863457 1366.6256510228652 L118.83701313242305 1366.6256510228652 L118.83701313242305 1307.2071444566536 L178.25551969863457 1307.2071444566536 L356.51103939726914 1307.2071444566536 L356.51103939726914 1366.6256510228652 L297.0925328310576 1366.6256510228652 L297.0925328310576 1307.2071444566536 L297.0925328310576 1247.788637890442 L356.51103939726914 1247.788637890442 L475.3480525296922 1247.788637890442 L475.3480525296922 1307.2071444566536 L475.3480525296922 1366.6256510228652 L415.9295459634807 1366.6256510228652 L415.9295459634807 1307.2071444566536 L475.3480525296922 1307.2071444566536 L713.0220787945383 1307.2071444566536 L713.0220787945383 1366.6256510228652 L653.6035722283268 1366.6256510228652 L653.6035722283268 1307.2071444566536 L653.6035722283268 1247.788637890442 L713.0220787945383 1247.788637890442 L1010.1146116255959 1247.788637890442 L1010.1146116255959 1307.2071444566536 L1010.1146116255959 1366.6256510228652 L950.6961050593844 1366.6256510228652 L950.6961050593844 1307.2071444566536 L1010.1146116255959 1307.2071444566536 L1188.3701313242304 1307.2071444566536 L1188.3701313242304 1366.6256510228652 L1128.951624758019 1366.6256510228652 L1128.951624758019 1307.2071444566536 L1128.951624758019 1247.788637890442 L1188.3701313242304 1247.788637890442 L1247.788637890442 1247.788637890442 L1247.788637890442 1307.2071444566536 L1247.788637890442 1366.6256510228652 L1188.3701313242304 1366.6256510228652 L1188.3701313242304 1307.2071444566536 L1247.788637890442 1307.2071444566536 L1426.0441575890766 1307.2071444566536 L1426.0441575890766 1366.6256510228652 L1366.6256510228652 1366.6256510228652 L1366.6256510228652 1307.2071444566536 L1366.6256510228652 1247.788637890442 L1426.0441575890766 1247.788637890442 L1723.1366904201343 1247.788637890442 L1723.1366904201343 1307.2071444566536 L1723.1366904201343 1366.6256510228652 L1663.7181838539227 1366.6256510228652 L1663.7181838539227 1307.2071444566536 L1723.1366904201343 1307.2071444566536 L1901.3922101187688 1307.2071444566536 L1901.3922101187688 1366.6256510228652 L1841.9737035525573 1366.6256510228652 L1841.9737035525573 1307.2071444566536 L1841.9737035525573 1247.788637890442 L1901.3922101187688 1247.788637890442 L2198.4847429498263 1247.788637890442 L2198.4847429498263 1307.2071444566536 L2198.4847429498263 1366.6256510228652 L2139.066236383615 1366.6256510228652 L2139.066236383615 1307.2071444566536 L2198.4847429498263 1307.2071444566536 L2554.9957823470954 1307.2071444566536 L2554.9957823470954 1366.6256510228652 L2495.577275780884 1366.6256510228652 L2495.577275780884 1307.2071444566536 L2495.577275780884 1247.788637890442 L2554.9957823470954 1247.788637890442 L3089.7623414429995 1247.788637890442 L3089.7623414429995 1307.2071444566536 L3089.7623414429995 1366.6256510228652 L3030.3438348767877 1366.6256510228652 L3030.3438348767877 1307.2071444566536 L3089.7623414429995 1307.2071444566536 L3268.017861141634 1307.2071444566536 L3268.017861141634 1366.6256510228652 L3208.5993545754222 1366.6256510228652 L3208.5993545754222 1307.2071444566536 L3208.5993545754222 1247.788637890442 L3268.017861141634 1247.788637890442 L3624.528900538903 1247.788637890442 L3624.528900538903 1307.2071444566536 L3624.528900538903 1366.6256510228652 L3565.110393972692 1366.6256510228652 L3565.110393972692 1307.2071444566536 L3624.528900538903 1307.2071444566536 L3802.7844202375377 1307.2071444566536 L3802.7844202375377 1366.6256510228652 L3743.3659136713263 1366.6256510228652 L3743.3659136713263 1307.2071444566536 L3743.3659136713263 1247.788637890442 L3802.7844202375377 1247.788637890442 L4159.295459634807 1247.788637890442 L4159.295459634807 1307.2071444566536 L4159.295459634807 1366.6256510228652 L4099.876953068595 1366.6256510228652 L4099.876953068595 1307.2071444566536 L4159.295459634807 1307.2071444566536 L4337.550979333441 1307.2071444566536 L4337.550979333441 1366.6256510228652 L4278.13247276723 1366.6256510228652 L4278.13247276723 1307.2071444566536 L4278.13247276723 1247.788637890442 L4337.550979333441 1247.788637890442 L4515.806499032076 1247.788637890442 L4515.806499032076 1307.2071444566536 L4515.806499032076 1366.6256510228652 L4456.387992465864 1366.6256510228652 L4456.387992465864 1307.2071444566536 L4515.806499032076 1307.2071444566536 L4634.643512164499 1307.2071444566536 L4634.643512164499 1366.6256510228652 L4575.225005598288 1366.6256510228652 L4575.225005598288 1307.2071444566536 L4575.225005598288 1247.788637890442 L4634.643512164499 1247.788637890442 L4991.154551561768 1247.788637890442 L4991.154551561768 1307.2071444566536 L4991.154551561768 1366.6256510228652 L4931.736044995557 1366.6256510228652 L4931.736044995557 1307.2071444566536 L4991.154551561768 1307.2071444566536 L5109.991564694191 1307.2071444566536 L5109.991564694191 1366.6256510228652 L5050.5730581279795 1366.6256510228652 L5050.5730581279795 1307.2071444566536 L5050.5730581279795 1247.788637890442 L5109.991564694191 1247.788637890442 L5169.410071260403 1247.788637890442 L5169.410071260403 1307.2071444566536 L5109.991564694191 1307.2071444566536 L5109.991564694191 1247.788637890442 L5109.991564694191 1188.3701313242304 L5169.410071260403 1188.3701313242304 L5169.410071260403 1247.788637890442 L5169.410071260403 1307.2071444566536 L5109.991564694191 1307.2071444566536 L5050.5730581279795 1307.2071444566536 L5050.5730581279795 1247.788637890442 L5109.991564694191 1247.788637890442 L5109.991564694191 1307.2071444566536 L5109.991564694191 1366.6256510228652 L5050.5730581279795 1366.6256510228652 L118.83701313242305 1366.6256510228652 L118.83701313242305 1307.2071444566536 L118.83701313242305 1247.788637890442 L178.25551969863457 1247.788637890442 L178.25551969863457 1307.2071444566536 L118.83701313242305 1307.2071444566536 L59.418506566211526 1307.2071444566536 L59.418506566211526 1247.788637890442 L59.418506566211526 1188.3701313242304 L118.83701313242305 1188.3701313242304 L118.83701313242305 1247.788637890442 Z" style="fill:rgb(255, 237, 190, 255)" />
  <path d="M 118.83701313242305 1426.0441575890766 L59.418506566211526 1426.0441575890766 L59.418506566211526 1366.6256510228652 L118.83701313242305 1366.6256510228652 L5169.410071260403 1366.6256510228652 L5169.410071260403 1426.0441575890766 L5109.991564694191 1426.0441575890766 L5109.991564694191 1366.6256510228652 L5109.991564694191 1307.2071444566536 L5169.410071260403 1307.2071444566536 L5169.410071260403 1366.6256510228652 L5169.410071260403 1544.8811707214998 L5109.991564694191 1544.8811707214998 L59.418506566211526 1544.8811707214998 L59.418506566211526 1485.4626641552882 L59.418506566211526 1307.2071444566536 L118.83701313242305 1307.2071444566536 L118.83701313242305 1366.6256510228652 Z" style="fill:rgb(242, 142, 72, 255)" />
  <path d="M 178.25551969863457 1485.4626641552882 L118.83701313242305 1485.4626641552882 L118.83701313242305 1426.0441575890766 L178.25551969863457 1426.0441575890766 L5109.991564694191 1426.0441575890766 L5109.991564694191 1485.4626641552882 L5050.5730581279795 1485.4626641552882 L118.83701313242305 1485.4626641552882 L118.83701313242305 1426.0441575890766 L178.25551969863457 1426.0441575890766 Z" style="fill:rgb(242, 142, 72, 255)" />
  <path d="M 0 1604.2996772877111 L0 1544.8811707214998 L59.418506566211526 1544.8811707214998 L59.418506566211526 1604.2996772877111 Z" style="fill:rgb(0, 0, 0, 0)" />
  <path d="M 118.83701313242305 1604.2996772877111 L59.418506566211526 1604.2996772877111 L59.418506566211526 1544.8811707214998 L118.83701313242305 1544.8811707214998 L5169.410071260403 1544.8811707214998 L5169.410071260403 1604.2996772877111 L5109.991564694191 1604.2996772877111 L59.418506566211526 1604.2996772877111 L59.418506566211526 1544.8811707214998 L118.83701313242305 1544.8811707214998 Z" style="fill:rgb(64, 27, 0, 255)" />
  <path d="M 5169.410071260403 1604.2996772877111 L5169.410071260403 1544.8811707214998 L5228.8285778266145 1544.8811707214998 L5228.8285778266145 1604.2996772877111 Z" style="fill:rgb(0, 0, 0, 0)" />
</svg>
