<svg width="28" height="28" viewBox="0 0 28 28" fill="none" xmlns="http://www.w3.org/2000/svg">
<path d="M4.66667 4.66667H7V7H4.66667V4.66667Z" fill="#3B2A2A"/>
<path d="M4.66667 2.33333H7V4.66667H4.66667V2.33333Z" fill="#3B2A2A"/>
<path d="M7 2.33333H9.33333V4.66667H7V2.33333Z" fill="#3B2A2A"/>
<path d="M9.33333 2.33333H11.6667V4.66667H9.33333V2.33333Z" fill="#3B2A2A"/>
<path d="M9.33333 0H11.6667V2.33333H9.33333V0Z" fill="#3B2A2A"/>
<path d="M11.6667 0H14V2.33333H11.6667V0Z" fill="#3B2A2A"/>
<path d="M14 14H21V16.3333H14V14Z" fill="#3B2A2A"/>
<path d="M11.6667 7H14V16.3333H11.6667V7Z" fill="#3B2A2A"/>
<path d="M14 0H16.3333V2.33333H14V0Z" fill="#3B2A2A"/>
<path d="M16.3333 0H18.6667V2.33333H16.3333V0Z" fill="#3B2A2A"/>
<path d="M16.3333 2.33333H18.6667V4.66667H16.3333V2.33333Z" fill="#3B2A2A"/>
<path d="M18.6667 2.33333H21V4.66667H18.6667V2.33333Z" fill="#3B2A2A"/>
<path d="M21 2.33333H23.3333V4.66667H21V2.33333Z" fill="#3B2A2A"/>
<path d="M21 4.66667H23.3333V7H21V4.66667Z" fill="#3B2A2A"/>
<path d="M23.3333 4.66667H25.6667V7H23.3333V4.66667Z" fill="#3B2A2A"/>
<path d="M23.3333 7H25.6667V9.33333H23.3333V7Z" fill="#3B2A2A"/>
<path d="M23.3333 9.33333H25.6667V11.6667H23.3333V9.33333Z" fill="#3B2A2A"/>
<path d="M25.6667 9.33333H28V11.6667H25.6667V9.33333Z" fill="#3B2A2A"/>
<path d="M25.6667 11.6667H28V14H25.6667V11.6667Z" fill="#3B2A2A"/>
<path d="M4.66667 4.66667H2.33333V7H4.66667V4.66667Z" fill="#3B2A2A"/>
<path d="M4.66667 7H2.33333V9.33333H4.66667V7Z" fill="#3B2A2A"/>
<path d="M4.66667 9.33333H2.33333V11.6667H4.66667V9.33333Z" fill="#3B2A2A"/>
<path d="M2.33333 9.33333H0V11.6667H2.33333V9.33333Z" fill="#3B2A2A"/>
<path d="M2.33333 11.6667H0V14H2.33333V11.6667Z" fill="#3B2A2A"/>
<path d="M4.66667 23.3333H7V21H4.66667V23.3333Z" fill="#3B2A2A"/>
<path d="M4.66667 25.6667H7V23.3333H4.66667V25.6667Z" fill="#3B2A2A"/>
<path d="M7 25.6667H9.33333V23.3333H7V25.6667Z" fill="#3B2A2A"/>
<path d="M9.33333 25.6667H11.6667V23.3333H9.33333V25.6667Z" fill="#3B2A2A"/>
<path d="M9.33333 28H11.6667V25.6667H9.33333V28Z" fill="#3B2A2A"/>
<path d="M11.6667 28H14V25.6667H11.6667V28Z" fill="#3B2A2A"/>
<path d="M14 28H16.3333V25.6667H14V28Z" fill="#3B2A2A"/>
<path d="M16.3333 28H18.6667V25.6667H16.3333V28Z" fill="#3B2A2A"/>
<path d="M16.3333 25.6667H18.6667V23.3333H16.3333V25.6667Z" fill="#3B2A2A"/>
<path d="M18.6667 25.6667H21V23.3333H18.6667V25.6667Z" fill="#3B2A2A"/>
<path d="M21 25.6667H23.3333V23.3333H21V25.6667Z" fill="#3B2A2A"/>
<path d="M21 23.3333H23.3333V21H21V23.3333Z" fill="#3B2A2A"/>
<path d="M23.3333 23.3333H25.6667V21H23.3333V23.3333Z" fill="#3B2A2A"/>
<path d="M23.3333 21H25.6667V18.6667H23.3333V21Z" fill="#3B2A2A"/>
<path d="M23.3333 18.6667H25.6667V16.3333H23.3333V18.6667Z" fill="#3B2A2A"/>
<path d="M25.6667 18.6667H28V16.3333H25.6667V18.6667Z" fill="#3B2A2A"/>
<path d="M25.6667 16.3333H28V14H25.6667V16.3333Z" fill="#3B2A2A"/>
<path d="M4.66667 23.3333H2.33333V21H4.66667V23.3333Z" fill="#3B2A2A"/>
<path d="M4.66667 21H2.33333V18.6667H4.66667V21Z" fill="#3B2A2A"/>
<path d="M4.66667 18.6667H2.33333V16.3333H4.66667V18.6667Z" fill="#3B2A2A"/>
<path d="M2.33333 18.6667H0V16.3333H2.33333V18.6667Z" fill="#3B2A2A"/>
<path d="M2.33333 16.3333H0V14H2.33333V16.3333Z" fill="#3B2A2A"/>
</svg>
