<svg width="77" height="77" viewBox="0 0 77 77" fill="none" xmlns="http://www.w3.org/2000/svg">
<path d="M0 0H77V77H0V0Z" fill="#E67F5C"/>
<path d="M47.016 29.84C47.016 30.8213 46.9307 31.6747 46.76 32.4C46.9307 33.0827 47.016 33.936 47.016 34.96C47.016 35.9413 46.9307 36.7947 46.76 37.52H43.56C43.7307 38.2027 43.816 39.056 43.816 40.08C43.816 41.0613 43.7307 41.9147 43.56 42.64H40.36C40.5307 43.3227 40.616 44.176 40.616 45.2C40.616 46.1813 40.5307 47.0347 40.36 47.76H35.24C35.0693 47.0347 34.984 46.1813 34.984 45.2C34.984 44.176 35.0693 43.3227 35.24 42.64H38.44C38.2693 41.9147 38.184 41.0613 38.184 40.08C38.184 39.056 38.2693 38.2027 38.44 37.52H41.64C41.4693 36.7947 41.384 35.9413 41.384 34.96C41.384 33.936 41.4693 33.0827 41.64 32.4C41.4693 31.6747 41.384 30.8213 41.384 29.84C41.384 28.816 41.4693 27.9627 41.64 27.28H32.68C32.8507 27.9627 32.936 28.816 32.936 29.84C32.936 30.8213 32.8507 31.6747 32.68 32.4H27.56C27.3893 31.6747 27.304 30.8213 27.304 29.84C27.304 28.816 27.3893 27.9627 27.56 27.28H31.4C31.2293 26.5547 31.144 25.7013 31.144 24.72C31.144 23.696 31.2293 22.8427 31.4 22.16H44.2C44.3707 22.8427 44.456 23.696 44.456 24.72C44.456 25.7013 44.3707 26.5547 44.2 27.28H46.76C46.9307 27.9627 47.016 28.816 47.016 29.84ZM40.36 52.88C40.5307 53.5627 40.616 54.416 40.616 55.44C40.616 56.4213 40.5307 57.2747 40.36 58H35.24C35.0693 57.2747 34.984 56.4213 34.984 55.44C34.984 54.416 35.0693 53.5627 35.24 52.88H40.36Z" fill="#3B2A2A"/>
<path d="M46.76 32.4L45.7866 32.171L45.731 32.4071L45.7899 32.6425L46.76 32.4ZM46.76 37.52V38.52H47.552L47.7334 37.749L46.76 37.52ZM43.56 37.52V36.52H42.2792L42.5899 37.7625L43.56 37.52ZM43.56 42.64V43.64H44.352L44.5334 42.869L43.56 42.64ZM40.36 42.64V41.64H39.0792L39.3899 42.8825L40.36 42.64ZM40.36 47.76V48.76H41.152L41.3334 47.989L40.36 47.76ZM35.24 47.76L34.2666 47.989L34.448 48.76H35.24V47.76ZM35.24 42.64V41.64H34.4592L34.2699 42.3975L35.24 42.64ZM38.44 42.64V43.64H39.7026L39.4134 42.411L38.44 42.64ZM38.44 37.52V36.52H37.6592L37.4699 37.2775L38.44 37.52ZM41.64 37.52V38.52H42.9026L42.6134 37.291L41.64 37.52ZM41.64 32.4L42.6101 32.6425L42.669 32.4071L42.6134 32.171L41.64 32.4ZM41.64 27.28L42.6101 27.5225L42.9208 26.28H41.64V27.28ZM32.68 27.28V26.28H31.3992L31.7099 27.5225L32.68 27.28ZM32.68 32.4V33.4H33.472L33.6534 32.629L32.68 32.4ZM27.56 32.4L26.5866 32.629L26.768 33.4H27.56V32.4ZM27.56 27.28V26.28H26.7792L26.5899 27.0375L27.56 27.28ZM31.4 27.28V28.28H32.6626L32.3734 27.051L31.4 27.28ZM31.4 22.16V21.16H30.6192L30.4299 21.9175L31.4 22.16ZM44.2 22.16L45.1701 21.9175L44.9808 21.16H44.2V22.16ZM44.2 27.28L43.2266 27.051L42.9374 28.28H44.2V27.28ZM46.76 27.28L47.7301 27.0375L47.5408 26.28H46.76V27.28ZM40.36 52.88L41.3301 52.6375L41.1408 51.88H40.36V52.88ZM40.36 58V59H41.152L41.3334 58.229L40.36 58ZM35.24 58L34.2666 58.229L34.448 59H35.24V58ZM35.24 52.88V51.88H34.4592L34.2699 52.6375L35.24 52.88ZM46.016 29.84C46.016 30.767 45.935 31.54 45.7866 32.171L47.7334 32.629C47.9263 31.8093 48.016 30.8757 48.016 29.84H46.016ZM45.7899 32.6425C45.9339 33.2189 46.016 33.9843 46.016 34.96H48.016C48.016 33.8877 47.9274 32.9464 47.7301 32.1575L45.7899 32.6425ZM46.016 34.96C46.016 35.887 45.935 36.66 45.7866 37.291L47.7334 37.749C47.9263 36.9293 48.016 35.9957 48.016 34.96H46.016ZM46.76 36.52H43.56V38.52H46.76V36.52ZM42.5899 37.7625C42.7339 38.3389 42.816 39.1043 42.816 40.08H44.816C44.816 39.0077 44.7274 38.0664 44.5301 37.2775L42.5899 37.7625ZM42.816 40.08C42.816 41.007 42.735 41.78 42.5866 42.411L44.5334 42.869C44.7263 42.0493 44.816 41.1157 44.816 40.08H42.816ZM43.56 41.64H40.36V43.64H43.56V41.64ZM39.3899 42.8825C39.5339 43.4589 39.616 44.2243 39.616 45.2H41.616C41.616 44.1277 41.5274 43.1864 41.3301 42.3975L39.3899 42.8825ZM39.616 45.2C39.616 46.127 39.535 46.9 39.3866 47.531L41.3334 47.989C41.5263 47.1693 41.616 46.2357 41.616 45.2H39.616ZM40.36 46.76H35.24V48.76H40.36V46.76ZM36.2134 47.531C36.065 46.9 35.984 46.127 35.984 45.2H33.984C33.984 46.2357 34.0737 47.1693 34.2666 47.989L36.2134 47.531ZM35.984 45.2C35.984 44.2243 36.0661 43.4589 36.2101 42.8825L34.2699 42.3975C34.0726 43.1864 33.984 44.1277 33.984 45.2H35.984ZM35.24 43.64H38.44V41.64H35.24V43.64ZM39.4134 42.411C39.265 41.78 39.184 41.007 39.184 40.08H37.184C37.184 41.1157 37.2737 42.0493 37.4666 42.869L39.4134 42.411ZM39.184 40.08C39.184 39.1043 39.2661 38.3389 39.4101 37.7625L37.4699 37.2775C37.2726 38.0664 37.184 39.0077 37.184 40.08H39.184ZM38.44 38.52H41.64V36.52H38.44V38.52ZM42.6134 37.291C42.465 36.66 42.384 35.887 42.384 34.96H40.384C40.384 35.9957 40.4737 36.9293 40.6666 37.749L42.6134 37.291ZM42.384 34.96C42.384 33.9843 42.4661 33.2189 42.6101 32.6425L40.6699 32.1575C40.4726 32.9464 40.384 33.8877 40.384 34.96H42.384ZM42.6134 32.171C42.465 31.54 42.384 30.767 42.384 29.84H40.384C40.384 30.8757 40.4737 31.8093 40.6666 32.629L42.6134 32.171ZM42.384 29.84C42.384 28.8643 42.4661 28.0989 42.6101 27.5225L40.6699 27.0375C40.4726 27.8264 40.384 28.7677 40.384 29.84H42.384ZM41.64 26.28H32.68V28.28H41.64V26.28ZM31.7099 27.5225C31.8539 28.0989 31.936 28.8643 31.936 29.84H33.936C33.936 28.7677 33.8474 27.8264 33.6501 27.0375L31.7099 27.5225ZM31.936 29.84C31.936 30.767 31.855 31.54 31.7066 32.171L33.6534 32.629C33.8463 31.8093 33.936 30.8757 33.936 29.84H31.936ZM32.68 31.4H27.56V33.4H32.68V31.4ZM28.5334 32.171C28.385 31.54 28.304 30.767 28.304 29.84H26.304C26.304 30.8757 26.3937 31.8093 26.5866 32.629L28.5334 32.171ZM28.304 29.84C28.304 28.8643 28.3861 28.0989 28.5301 27.5225L26.5899 27.0375C26.3926 27.8264 26.304 28.7677 26.304 29.84H28.304ZM27.56 28.28H31.4V26.28H27.56V28.28ZM32.3734 27.051C32.225 26.42 32.144 25.647 32.144 24.72H30.144C30.144 25.7557 30.2337 26.6893 30.4266 27.509L32.3734 27.051ZM32.144 24.72C32.144 23.7443 32.2261 22.9789 32.3701 22.4025L30.4299 21.9175C30.2326 22.7064 30.144 23.6477 30.144 24.72H32.144ZM31.4 23.16H44.2V21.16H31.4V23.16ZM43.2299 22.4025C43.3739 22.9789 43.456 23.7443 43.456 24.72H45.456C45.456 23.6477 45.3674 22.7064 45.1701 21.9175L43.2299 22.4025ZM43.456 24.72C43.456 25.647 43.375 26.42 43.2266 27.051L45.1734 27.509C45.3663 26.6893 45.456 25.7557 45.456 24.72H43.456ZM44.2 28.28H46.76V26.28H44.2V28.28ZM45.7899 27.5225C45.9339 28.0989 46.016 28.8643 46.016 29.84H48.016C48.016 28.7677 47.9274 27.8264 47.7301 27.0375L45.7899 27.5225ZM39.3899 53.1225C39.5339 53.6989 39.616 54.4643 39.616 55.44H41.616C41.616 54.3677 41.5274 53.4264 41.3301 52.6375L39.3899 53.1225ZM39.616 55.44C39.616 56.367 39.535 57.14 39.3866 57.771L41.3334 58.229C41.5263 57.4093 41.616 56.4757 41.616 55.44H39.616ZM40.36 57H35.24V59H40.36V57ZM36.2134 57.771C36.065 57.14 35.984 56.367 35.984 55.44H33.984C33.984 56.4757 34.0737 57.4093 34.2666 58.229L36.2134 57.771ZM35.984 55.44C35.984 54.4643 36.0661 53.6989 36.2101 53.1225L34.2699 52.6375C34.0726 53.4264 33.984 54.3677 33.984 55.44H35.984ZM35.24 53.88H40.36V51.88H35.24V53.88Z" fill="#3B2A2A"/>
</svg>
