<svg width="1426" height="537" viewBox="0 0 1426 537" fill="none" xmlns="http://www.w3.org/2000/svg">
<g clip-path="url(#clip0_80_4368)">
<path d="M109 10H1322M1322 527H109" stroke="#401B00" stroke-width="5"/>
<rect x="46" width="5" height="5" fill="#FF0000"/>
<rect x="64" width="5" height="5" fill="#FF0000"/>
<rect x="104" width="5" height="5" fill="#FF0000"/>
<rect y="101" width="5" height="5" fill="#FF0000"/>
<rect y="153" width="5" height="5" fill="#FF0000"/>
<rect y="226" width="5" height="5" fill="#FF0000"/>
<rect y="294" width="5" height="5" fill="#FF0000"/>
<rect y="407" width="5" height="5" fill="#FF0000"/>
<rect y="244" width="5" height="5" fill="#FF0000"/>
<rect y="312" width="5" height="5" fill="#FF0000"/>
<rect y="425" width="5" height="5" fill="#FF0000"/>
<rect y="487" width="5" height="5" fill="#FF0000"/>
<path d="M7 497V489.5H42.5V499H37.5V509.5H42.5V533L7 497Z" fill="#CC613D"/>
<path d="M40 532L40 486L50 486L50 532L40 532Z" fill="#E67F5C"/>
<path d="M116 529.5H118.495L118.5 527.005L119.5 10.0048L119.505 7.5H117H106.5V5V2.5H104H69H66.5V5V7.5H48.5V5V2.5H46H5H2.5V5V101V103.5H5H7.5V155.5H5H2.5V158V226V228.5H5H7.47333V246.5H5H2.5V249V294V296.5H5H7.47333V314.5H5H2.5V317V407V409.5H5H7.47333V427.5H5H2.5V430V487V489.5H5H42.5V499.5H40H37.5V502V507V509.5H40H42.5V532V534.5H45H103.062H105.562V532V529.5H116Z" fill="#FFB480" stroke="#401B00" stroke-width="5" stroke-miterlimit="2.9238"/>
<rect y="492" width="5" height="5" fill="#401B00"/>
<rect x="15" y="507" width="5" height="5" fill="#401B00"/>
<rect x="30" y="522" width="5" height="5" fill="#401B00"/>
<rect x="5" y="497" width="5" height="5" fill="#401B00"/>
<rect x="20" y="512" width="5" height="5" fill="#401B00"/>
<rect x="35" y="527" width="5" height="5" fill="#401B00"/>
<rect x="10" y="502" width="5" height="5" fill="#401B00"/>
<rect x="25" y="517" width="5" height="5" fill="#401B00"/>
<rect x="5" y="492" width="5" height="5" fill="#B0431F"/>
<rect x="20" y="507" width="5" height="5" fill="#B0431F"/>
<rect x="35" y="522" width="5" height="5" fill="#B0431F"/>
<rect x="10" y="497" width="5" height="5" fill="#B0431F"/>
<rect x="25" y="512" width="5" height="5" fill="#B0431F"/>
<rect x="15" y="502" width="5" height="5" fill="#B0431F"/>
<rect x="30" y="517" width="5" height="5" fill="#B0431F"/>
<path d="M5 462H10V487H5V462Z" fill="#E67F5C"/>
<path d="M10 477H15V487H10V477Z" fill="#E67F5C"/>
<path d="M50 452H55V467H50V452Z" fill="#E67F5C"/>
<path d="M15 482H50V487H15V482Z" fill="#E67F5C"/>
<path d="M50 522H55V532H50V522Z" fill="#E67F5C"/>
<path d="M55 517H60V532H55V517Z" fill="#E67F5C"/>
<path d="M98 497H103V522H98V497Z" fill="#E67F5C"/>
<path d="M103 507H108V522H103V507Z" fill="#E67F5C"/>
<path d="M108 497H113V507H108V497Z" fill="#E67F5C"/>
<path d="M68 527H103V532H68V527Z" fill="#E67F5C"/>
<path d="M81 522H116V527H81V522Z" fill="#E67F5C"/>
<path d="M15 297H30V302H15V297Z" fill="#E67F5C"/>
<path d="M15 324H30V329H15V324Z" fill="#E67F5C"/>
<path d="M35 324H40V329H35V324Z" fill="#E67F5C"/>
<path d="M40 309H45V314H40V309Z" fill="#E67F5C"/>
<path d="M15 329H35V334H15V329Z" fill="#E67F5C"/>
<path d="M5 317H10V352H5V317Z" fill="#E67F5C"/>
<path d="M5 279H10V294H5V279Z" fill="#E67F5C"/>
<path d="M10 292H15V337H10V292Z" fill="#E67F5C"/>
<path d="M15 113.515H30V123.741H15V113.515Z" fill="#E67F5C"/>
<path d="M15 168.735H30V178.961H15V168.735Z" fill="#E67F5C"/>
<path d="M35 168.735H40V178.961H35V168.735Z" fill="#E67F5C"/>
<path d="M40 138.057H45V148.283H40V138.057Z" fill="#E67F5C"/>
<path d="M15 178.961H35V189.187H15V178.961Z" fill="#E67F5C"/>
<path d="M5 154.419H10V226H5V154.419Z" fill="#E67F5C"/>
<path d="M5 78H10V108.678H5V78Z" fill="#E67F5C"/>
<path d="M10 103.289H15V195.322H10V103.289Z" fill="#E67F5C"/>
<path d="M5 430H30V435H5V430Z" fill="#E67F5C"/>
<path d="M5 405H25V410H5V405Z" fill="#E67F5C"/>
<path d="M10 410H20V415H10V410Z" fill="#E67F5C"/>
<path d="M10 415H15V430H10V415Z" fill="#E67F5C"/>
<path d="M5 378H10V400H5V378Z" fill="#E67F5C"/>
<path d="M5 400H15V405H5V400Z" fill="#E67F5C"/>
<path d="M80.2433 15L80.2433 30L73.403 30L73.403 15L80.2433 15Z" fill="#E67F5C"/>
<path d="M43.3057 15L43.3057 30L36.4654 30L36.4654 15L43.3057 15Z" fill="#E67F5C"/>
<path d="M43.3057 35L43.3057 40L36.4654 40L36.4654 35L43.3057 35Z" fill="#E67F5C"/>
<path d="M63.8265 40L63.8265 45L56.9862 45L56.9862 40L63.8265 40Z" fill="#E67F5C"/>
<path d="M36.4654 15L36.4654 35L29.6251 35L29.6251 15L36.4654 15Z" fill="#E67F5C"/>
<path d="M52.8821 5L52.8821 10L4.99996 10L4.99996 5L52.8821 5Z" fill="#E67F5C"/>
<path d="M104 5L104 10L83.4791 10L83.4791 5L104 5Z" fill="#E67F5C"/>
<path d="M87.0836 10L87.0836 15L25.5208 15L25.5208 10L87.0836 10Z" fill="#E67F5C"/>
<path d="M1419 41V48.5H1383.5V39H1388.5V28.5H1383.5V5L1419 41Z" fill="#CC613D"/>
<path d="M1386 6L1386 52L1376 52L1376 6L1386 6Z" fill="#E67F5C"/>
<path d="M1310 8.5H1307.5L1307.5 10.9952L1306.5 527.995L1306.5 530.5H1309H1319.5V533V535.5H1322H1357H1359.5V533V530.5H1377.5V533V535.5H1380H1421H1423.5V533V437V434.5H1421H1418.5V382.5H1421H1423.5V380V312V309.5H1421H1418.53V291.5H1421H1423.5V289V244V241.5H1421H1418.53V223.5H1421H1423.5V221V131V128.5H1421H1418.53V110.5H1421H1423.5V108V51V48.5H1421H1383.5V38.5H1386H1388.5V36V31V28.5H1386H1383.5V6V3.5H1381H1322.94H1320.44V6V8.5H1310Z" fill="#FFB480" stroke="#401B00" stroke-width="5" stroke-miterlimit="2.9238"/>
<rect x="1426" y="46" width="5" height="5" transform="rotate(-180 1426 46)" fill="#401B00"/>
<rect x="1411" y="31" width="5" height="5" transform="rotate(-180 1411 31)" fill="#401B00"/>
<rect x="1396" y="16" width="5" height="5" transform="rotate(-180 1396 16)" fill="#401B00"/>
<rect x="1421" y="41" width="5" height="5" transform="rotate(-180 1421 41)" fill="#401B00"/>
<rect x="1406" y="26" width="5" height="5" transform="rotate(-180 1406 26)" fill="#401B00"/>
<rect x="1391" y="11" width="5" height="5" transform="rotate(-180 1391 11)" fill="#401B00"/>
<rect x="1416" y="36" width="5" height="5" transform="rotate(-180 1416 36)" fill="#401B00"/>
<rect x="1401" y="21" width="5" height="5" transform="rotate(-180 1401 21)" fill="#401B00"/>
<rect x="1421" y="46" width="5" height="5" transform="rotate(-180 1421 46)" fill="#B0431F"/>
<rect x="1406" y="31" width="5" height="5" transform="rotate(-180 1406 31)" fill="#B0431F"/>
<rect x="1391" y="16" width="5" height="5" transform="rotate(-180 1391 16)" fill="#B0431F"/>
<rect x="1416" y="41" width="5" height="5" transform="rotate(-180 1416 41)" fill="#B0431F"/>
<rect x="1401" y="26" width="5" height="5" transform="rotate(-180 1401 26)" fill="#B0431F"/>
<rect x="1411" y="36" width="5" height="5" transform="rotate(-180 1411 36)" fill="#B0431F"/>
<rect x="1396" y="21" width="5" height="5" transform="rotate(-180 1396 21)" fill="#B0431F"/>
<path d="M1421 76H1416V51H1421V76Z" fill="#E67F5C"/>
<path d="M1416 61H1411V51H1416V61Z" fill="#E67F5C"/>
<path d="M1376 16H1371V6H1376V16Z" fill="#E67F5C"/>
<path d="M1371 21H1366V6H1371V21Z" fill="#E67F5C"/>
<path d="M1328 41H1323V16H1328V41Z" fill="#E67F5C"/>
<path d="M1323 31H1318V16H1323V31Z" fill="#E67F5C"/>
<path d="M1318 41H1313V31H1318V41Z" fill="#E67F5C"/>
<path d="M1376 86H1371V71H1376V86Z" fill="#E67F5C"/>
<path d="M1411 56H1376V51H1411V56Z" fill="#E67F5C"/>
<path d="M1358 11H1323V6H1358V11Z" fill="#E67F5C"/>
<path d="M1345 16H1310V11H1345V16Z" fill="#E67F5C"/>
<path d="M1421 108H1396V103H1421V108Z" fill="#E67F5C"/>
<path d="M1421 133H1401V128H1421V133Z" fill="#E67F5C"/>
<path d="M1416 128H1406V123H1416V128Z" fill="#E67F5C"/>
<path d="M1416 123H1411V108H1416V123Z" fill="#E67F5C"/>
<path d="M1421 160H1416V138H1421V160Z" fill="#E67F5C"/>
<path d="M1411 241H1396V236H1411V241Z" fill="#E67F5C"/>
<path d="M1411 214H1396V209H1411V214Z" fill="#E67F5C"/>
<path d="M1391 214H1386V209H1391V214Z" fill="#E67F5C"/>
<path d="M1386 229H1381V224H1386V229Z" fill="#E67F5C"/>
<path d="M1411 209H1391V204H1411V209Z" fill="#E67F5C"/>
<path d="M1421 221H1416V186H1421V221Z" fill="#E67F5C"/>
<path d="M1421 259H1416V244H1421V259Z" fill="#E67F5C"/>
<path d="M1416 246H1411V201H1416V246Z" fill="#E67F5C"/>
<path d="M1411 424.485H1396V414.259H1411V424.485Z" fill="#E67F5C"/>
<path d="M1411 369.265H1396V359.039H1411V369.265Z" fill="#E67F5C"/>
<path d="M1391 369.265H1386V359.039H1391V369.265Z" fill="#E67F5C"/>
<path d="M1386 399.943H1381V389.717H1386V399.943Z" fill="#E67F5C"/>
<path d="M1411 359.039H1391V348.813H1411V359.039Z" fill="#E67F5C"/>
<path d="M1421 383.581H1416V312H1421V383.581Z" fill="#E67F5C"/>
<path d="M1421 460H1416V429.322H1421V460Z" fill="#E67F5C"/>
<path d="M1416 434.711H1411V342.678H1416V434.711Z" fill="#E67F5C"/>
<path d="M1421 138H1411V133H1421V138Z" fill="#E67F5C"/>
<path d="M1345.76 523L1345.76 508L1352.6 508L1352.6 523L1345.76 523Z" fill="#E67F5C"/>
<path d="M1382.69 523L1382.69 508L1389.53 508L1389.53 523L1382.69 523Z" fill="#E67F5C"/>
<path d="M1382.69 503L1382.69 498L1389.53 498L1389.53 503L1382.69 503Z" fill="#E67F5C"/>
<path d="M1362.17 498L1362.17 493L1369.01 493L1369.01 498L1362.17 498Z" fill="#E67F5C"/>
<path d="M1389.53 523L1389.53 503L1396.37 503L1396.37 523L1389.53 523Z" fill="#E67F5C"/>
<path d="M1373.12 533L1373.12 528L1421 528L1421 533L1373.12 533Z" fill="#E67F5C"/>
<path d="M1322 533L1322 528L1342.52 528L1342.52 533L1322 533Z" fill="#E67F5C"/>
<path d="M1338.92 528L1338.92 523L1400.48 523L1400.48 528L1338.92 528Z" fill="#E67F5C"/>
<path d="M1322 13H116V525H1322V13Z" fill="#FFB480"/>
</g>
<defs>
<clipPath id="clip0_80_4368">
<rect width="1426" height="537" fill="white"/>
</clipPath>
</defs>
</svg>
